<svg width="260" height="172" viewBox="0 0 260 172" fill="none" xmlns="http://www.w3.org/2000/svg">
<path d="M97.625 33.4375C93.2305 33.4375 89.8125 37.0996 89.8125 41.25V135C89.8125 139.395 93.2305 142.812 97.625 142.812H113.25V127.188C113.25 118.643 120.086 111.562 128.875 111.562C137.42 111.562 144.5 118.643 144.5 127.188V142.812H160.125C164.275 142.812 167.938 139.395 167.938 135V41.25C167.938 37.0996 164.275 33.4375 160.125 33.4375H97.625ZM136.688 127.188C136.688 123.037 133.025 119.375 128.875 119.375C124.48 119.375 121.062 123.037 121.062 127.188V142.812H136.688V127.188ZM113.25 150.625H97.625C88.8359 150.625 82 143.789 82 135V41.25C82 32.7051 88.8359 25.625 97.625 25.625H160.125C168.67 25.625 175.75 32.7051 175.75 41.25V135C175.75 143.789 168.67 150.625 160.125 150.625H144.5H136.688H121.062H113.25ZM97.625 54.9219C97.625 51.748 100.066 49.0625 103.484 49.0625H115.203C118.377 49.0625 121.062 51.748 121.062 54.9219V66.6406C121.062 70.0586 118.377 72.5 115.203 72.5H103.484C100.066 72.5 97.625 70.0586 97.625 66.6406V54.9219ZM105.438 56.875V64.6875H113.25V56.875H105.438ZM142.547 49.0625H154.266C157.439 49.0625 160.125 51.748 160.125 54.9219V66.6406C160.125 70.0586 157.439 72.5 154.266 72.5H142.547C139.129 72.5 136.688 70.0586 136.688 66.6406V54.9219C136.688 51.748 139.129 49.0625 142.547 49.0625ZM144.5 64.6875H152.312V56.875H144.5V64.6875ZM97.625 86.1719C97.625 82.998 100.066 80.3125 103.484 80.3125H115.203C118.377 80.3125 121.062 82.998 121.062 86.1719V97.8906C121.062 101.309 118.377 103.75 115.203 103.75H103.484C100.066 103.75 97.625 101.309 97.625 97.8906V86.1719ZM105.438 88.125V95.9375H113.25V88.125H105.438ZM142.547 80.3125H154.266C157.439 80.3125 160.125 82.998 160.125 86.1719V97.8906C160.125 101.309 157.439 103.75 154.266 103.75H142.547C139.129 103.75 136.688 101.309 136.688 97.8906V86.1719C136.688 82.998 139.129 80.3125 142.547 80.3125ZM144.5 95.9375H152.312V88.125H144.5V95.9375Z" fill="#1696D2"/>
</svg>
