<svg width="260" height="172" viewBox="0 0 260 172" fill="none" xmlns="http://www.w3.org/2000/svg">
<path d="M72.4375 45.1562C72.4375 49.5508 74.6348 53.2129 78.2969 55.4102C81.7148 57.6074 86.3535 57.6074 90.0156 55.4102C93.4336 53.2129 95.875 49.5508 95.875 45.1562C95.875 41.0059 93.4336 37.3438 90.0156 35.1465C86.3535 32.9492 81.7148 32.9492 78.2969 35.1465C74.6348 37.3438 72.4375 41.0059 72.4375 45.1562ZM103.688 45.1562C103.688 52.2363 99.7812 58.584 93.9219 62.2461C87.8184 65.6641 80.25 65.6641 74.3906 62.2461C68.2871 58.584 64.625 52.2363 64.625 45.1562C64.625 38.3203 68.2871 31.9727 74.3906 28.3105C80.25 24.8926 87.8184 24.8926 93.9219 28.3105C99.7812 31.9727 103.688 38.3203 103.688 45.1562ZM127.125 64.6875C121.51 64.6875 116.383 67.8613 113.453 72.5C110.768 77.3828 110.768 83.4863 113.453 88.125C116.383 93.0078 121.51 95.9375 127.125 95.9375C132.496 95.9375 137.623 93.0078 140.553 88.125C143.238 83.4863 143.238 77.3828 140.553 72.5C137.623 67.8613 132.496 64.6875 127.125 64.6875ZM127.125 103.75C118.58 103.75 111.012 99.3555 106.617 92.0312C102.467 84.9512 102.467 75.918 106.617 68.5938C111.012 61.5137 118.58 56.875 127.125 56.875C135.426 56.875 142.994 61.5137 147.389 68.5938C151.539 75.918 151.539 84.9512 147.389 92.0312C142.994 99.3555 135.426 103.75 127.125 103.75ZM112.721 119.375C99.5371 119.375 88.5508 129.873 88.0625 142.812H165.943C165.455 129.873 154.469 119.375 141.285 119.375H112.721ZM112.721 111.562H141.285C159.352 111.562 174 126.211 174 144.277C174 147.939 171.07 150.625 167.408 150.625H86.5977C82.9355 150.625 80.25 147.695 80.25 144.277C80.25 126.211 94.6543 111.562 112.721 111.562ZM174 33.4375C169.605 33.4375 165.943 35.8789 163.746 39.2969C161.549 42.959 161.549 47.5977 163.746 51.0156C165.943 54.6777 169.605 56.875 174 56.875C178.15 56.875 181.812 54.6777 184.01 51.0156C186.207 47.5977 186.207 42.959 184.01 39.2969C181.812 35.8789 178.15 33.4375 174 33.4375ZM174 64.6875C166.92 64.6875 160.572 61.0254 156.91 54.9219C153.492 49.0625 153.492 41.4941 156.91 35.3906C160.572 29.5312 166.92 25.625 174 25.625C180.836 25.625 187.184 29.5312 190.846 35.3906C194.264 41.4941 194.264 49.0625 190.846 54.9219C187.184 61.0254 180.836 64.6875 174 64.6875ZM177.906 80.3125H158.375C158.375 77.627 157.887 75.1855 157.398 72.5H177.906C192.799 72.5 205.25 84.9512 205.25 99.8438C205.25 102.041 203.297 103.75 201.344 103.75C199.146 103.75 197.438 102.041 197.438 99.8438C197.438 89.1016 188.648 80.3125 177.906 80.3125ZM95.875 80.3125H76.3438C65.3574 80.3125 56.8125 89.1016 56.8125 99.8438C56.8125 102.041 54.8594 103.75 52.9062 103.75C50.709 103.75 49 102.041 49 99.8438C49 84.9512 61.207 72.5 76.3438 72.5H96.8516C96.1191 75.1855 95.875 77.627 95.875 80.3125Z" fill="#1696D2"/>
</svg>
