<svg width="260" height="172" viewBox="0 0 260 172" fill="none" xmlns="http://www.w3.org/2000/svg">
<path d="M150.25 63.875C147.086 63.875 144.625 66.5117 144.625 69.5V137C144.625 140.164 147.086 142.625 150.25 142.625H161.5V131.375C161.5 125.223 166.422 120.125 172.75 120.125C178.902 120.125 184 125.223 184 131.375V142.625H195.25C198.238 142.625 200.875 140.164 200.875 137V69.5C200.875 66.5117 198.238 63.875 195.25 63.875H150.25ZM178.375 131.375C178.375 128.387 175.738 125.75 172.75 125.75C169.586 125.75 167.125 128.387 167.125 131.375V142.625H178.375V131.375ZM161.5 148.25H150.25C143.922 148.25 139 143.328 139 137V69.5C139 63.3477 143.922 58.25 150.25 58.25H195.25C201.402 58.25 206.5 63.3477 206.5 69.5V137C206.5 143.328 201.402 148.25 195.25 148.25H184H178.375H167.125H161.5ZM150.25 79.3438C150.25 77.0586 152.008 75.125 154.469 75.125H162.906C165.191 75.125 167.125 77.0586 167.125 79.3438V87.7812C167.125 90.2422 165.191 92 162.906 92H154.469C152.008 92 150.25 90.2422 150.25 87.7812V79.3438ZM155.875 80.75V86.375H161.5V80.75H155.875ZM182.594 75.125H191.031C193.316 75.125 195.25 77.0586 195.25 79.3438V87.7812C195.25 90.2422 193.316 92 191.031 92H182.594C180.133 92 178.375 90.2422 178.375 87.7812V79.3438C178.375 77.0586 180.133 75.125 182.594 75.125ZM184 86.375H189.625V80.75H184V86.375ZM150.25 101.844C150.25 99.5586 152.008 97.625 154.469 97.625H162.906C165.191 97.625 167.125 99.5586 167.125 101.844V110.281C167.125 112.742 165.191 114.5 162.906 114.5H154.469C152.008 114.5 150.25 112.742 150.25 110.281V101.844ZM155.875 103.25V108.875H161.5V103.25H155.875ZM182.594 97.625H191.031C193.316 97.625 195.25 99.5586 195.25 101.844V110.281C195.25 112.742 193.316 114.5 191.031 114.5H182.594C180.133 114.5 178.375 112.742 178.375 110.281V101.844C178.375 99.5586 180.133 97.625 182.594 97.625ZM184 108.875H189.625V103.25H184V108.875Z" fill="#AED0DF"/>
<path d="M68.625 31.4375C64.2305 31.4375 60.8125 35.0996 60.8125 39.25V133C60.8125 137.395 64.2305 140.812 68.625 140.812H84.25V125.188C84.25 116.643 91.0859 109.562 99.875 109.562C108.42 109.562 115.5 116.643 115.5 125.188V140.812H131.125C135.275 140.812 138.938 137.395 138.938 133V39.25C138.938 35.0996 135.275 31.4375 131.125 31.4375H68.625ZM107.688 125.188C107.688 121.037 104.025 117.375 99.875 117.375C95.4805 117.375 92.0625 121.037 92.0625 125.188V140.812H107.688V125.188ZM84.25 148.625H68.625C59.8359 148.625 53 141.789 53 133V39.25C53 30.7051 59.8359 23.625 68.625 23.625H131.125C139.67 23.625 146.75 30.7051 146.75 39.25V133C146.75 141.789 139.67 148.625 131.125 148.625H115.5H107.688H92.0625H84.25ZM68.625 52.9219C68.625 49.748 71.0664 47.0625 74.4844 47.0625H86.2031C89.377 47.0625 92.0625 49.748 92.0625 52.9219V64.6406C92.0625 68.0586 89.377 70.5 86.2031 70.5H74.4844C71.0664 70.5 68.625 68.0586 68.625 64.6406V52.9219ZM76.4375 54.875V62.6875H84.25V54.875H76.4375ZM113.547 47.0625H125.266C128.439 47.0625 131.125 49.748 131.125 52.9219V64.6406C131.125 68.0586 128.439 70.5 125.266 70.5H113.547C110.129 70.5 107.688 68.0586 107.688 64.6406V52.9219C107.688 49.748 110.129 47.0625 113.547 47.0625ZM115.5 62.6875H123.312V54.875H115.5V62.6875ZM68.625 84.1719C68.625 80.998 71.0664 78.3125 74.4844 78.3125H86.2031C89.377 78.3125 92.0625 80.998 92.0625 84.1719V95.8906C92.0625 99.3086 89.377 101.75 86.2031 101.75H74.4844C71.0664 101.75 68.625 99.3086 68.625 95.8906V84.1719ZM76.4375 86.125V93.9375H84.25V86.125H76.4375ZM113.547 78.3125H125.266C128.439 78.3125 131.125 80.998 131.125 84.1719V95.8906C131.125 99.3086 128.439 101.75 125.266 101.75H113.547C110.129 101.75 107.688 99.3086 107.688 95.8906V84.1719C107.688 80.998 110.129 78.3125 113.547 78.3125ZM115.5 93.9375H123.312V86.125H115.5V93.9375Z" fill="#1696D2"/>
</svg>
