<svg width="260" height="172" viewBox="0 0 260 172" fill="none" xmlns="http://www.w3.org/2000/svg">
<path d="M125.312 33.4375C96.5039 33.4375 82.5879 42.959 78.6816 47.5977C78.4375 47.8418 78.4375 48.0859 78.4375 49.0625V56.875H172.188V49.0625C172.188 48.3301 171.943 47.8418 171.699 47.5977C168.037 42.959 156.074 33.4375 125.312 33.4375ZM78.4375 88.125H121.406V64.6875H78.4375V88.125ZM129.219 88.125H172.188V64.6875H129.219V88.125ZM78.4375 119.375C78.4375 123.77 81.8555 127.188 86.25 127.188H144.6H164.375C168.525 127.188 172.188 123.77 172.188 119.375V95.9375H78.4375V119.375ZM72.5781 42.7148C78.4375 35.6348 95.0391 25.625 125.312 25.625C157.539 25.625 172.432 35.3906 178.047 42.959C179.512 44.9121 180 47.1094 180 49.0625V119.375C180 125.234 176.826 130.361 172.188 133.047V146.719C172.188 148.916 170.234 150.625 168.281 150.625C166.084 150.625 164.375 148.916 164.375 146.719V135H144.6H86.25V146.719C86.25 148.916 84.2969 150.625 82.3438 150.625C80.1465 150.625 78.4375 148.916 78.4375 146.719V133.047C73.5547 130.361 70.625 125.234 70.625 119.375V49.0625C70.625 47.1094 70.8691 44.668 72.5781 42.7148ZM88.2031 111.562C88.2031 108.389 90.6445 105.703 94.0625 105.703C97.2363 105.703 99.9219 108.389 99.9219 111.562C99.9219 114.98 97.2363 117.422 94.0625 117.422C90.6445 117.422 88.2031 114.98 88.2031 111.562ZM156.562 105.703C159.736 105.703 162.422 108.389 162.422 111.562C162.422 114.98 159.736 117.422 156.562 117.422C153.145 117.422 150.703 114.98 150.703 111.562C150.703 108.389 153.145 105.703 156.562 105.703ZM113.594 41.25H137.031C138.984 41.25 140.938 43.2031 140.938 45.1562C140.938 47.3535 138.984 49.0625 137.031 49.0625H113.594C111.396 49.0625 109.688 47.3535 109.688 45.1562C109.688 43.2031 111.396 41.25 113.594 41.25ZM62.8125 60.7812V84.2188C62.8125 86.416 60.8594 88.125 58.9062 88.125C56.709 88.125 55 86.416 55 84.2188V60.7812C55 58.8281 56.709 56.875 58.9062 56.875C60.8594 56.875 62.8125 58.8281 62.8125 60.7812ZM195.625 60.7812V84.2188C195.625 86.416 193.672 88.125 191.719 88.125C189.521 88.125 187.812 86.416 187.812 84.2188V60.7812C187.812 58.8281 189.521 56.875 191.719 56.875C193.672 56.875 195.625 58.8281 195.625 60.7812Z" fill="#1696D2"/>
</svg>
