<svg width="260" height="172" viewBox="0 0 260 172" fill="none" xmlns="http://www.w3.org/2000/svg">
<path d="M97.625 49.0625C93.2305 49.0625 89.8125 52.7246 89.8125 56.875C89.8125 61.2695 93.2305 64.6875 97.625 64.6875C101.775 64.6875 105.438 61.2695 105.438 56.875C105.438 52.7246 101.775 49.0625 97.625 49.0625ZM97.625 72.5C92.0098 72.5 86.8828 69.5703 83.9531 64.6875C81.2676 60.0488 81.2676 53.9453 83.9531 49.0625C86.8828 44.4238 92.0098 41.25 97.625 41.25C102.996 41.25 108.123 44.4238 111.053 49.0625C113.738 53.9453 113.738 60.0488 111.053 64.6875C108.123 69.5703 102.996 72.5 97.625 72.5ZM160.125 111.562C155.73 111.562 152.312 115.225 152.312 119.375C152.312 123.77 155.73 127.188 160.125 127.188C164.275 127.188 167.938 123.77 167.938 119.375C167.938 115.225 164.275 111.562 160.125 111.562ZM160.125 135C154.51 135 149.383 132.07 146.453 127.188C143.768 122.549 143.768 116.445 146.453 111.562C149.383 106.924 154.51 103.75 160.125 103.75C165.496 103.75 170.623 106.924 173.553 111.562C176.238 116.445 176.238 122.549 173.553 127.188C170.623 132.07 165.496 135 160.125 135ZM174.529 48.0859L88.5918 134.023C87.127 135.488 84.4414 135.488 82.9766 134.023C81.5117 132.559 81.5117 129.873 82.9766 128.408L168.914 42.4707C170.379 41.0059 173.064 41.0059 174.529 42.4707C175.994 43.9355 175.994 46.6211 174.529 48.0859Z" fill="#1696D2"/>
</svg>
