<svg width="960" height="102" viewBox="0 0 960 102" fill="none" xmlns="http://www.w3.org/2000/svg">
<path d="M31.6619 22.4465C31.6619 24.6282 31.3163 26.6337 30.6252 28.463C29.9341 30.2788 28.9585 31.8439 27.6983 33.1584C26.438 34.4728 24.9204 35.4959 23.1452 36.2276C21.3836 36.9458 19.4323 37.3049 17.2913 37.3049C15.1503 37.3049 13.1989 36.9458 11.4373 36.2276C9.67575 35.4959 8.16484 34.4728 6.90462 33.1584C5.6444 31.8439 4.66874 30.2788 3.97766 28.463C3.28657 26.6337 2.94102 24.6282 2.94102 22.4465C2.94102 20.2648 3.28657 18.2661 3.97766 16.4503C4.66874 14.6209 5.6444 13.049 6.90462 11.7346C8.16484 10.4066 9.67575 9.37678 11.4373 8.64504C13.1989 7.91329 15.1503 7.54742 17.2913 7.54742C19.4323 7.54742 21.3836 7.91329 23.1452 8.64504C24.9204 9.37678 26.438 10.4066 27.6983 11.7346C28.9585 13.049 29.9341 14.6209 30.6252 16.4503C31.3163 18.2661 31.6619 20.2648 31.6619 22.4465ZM27.617 22.4465C27.617 20.6578 27.373 19.052 26.8852 17.6292C26.3974 16.2064 25.7063 15.0071 24.8119 14.0315C23.9176 13.0423 22.8335 12.2834 21.5598 11.7549C20.286 11.2265 18.8632 10.9622 17.2913 10.9622C15.7329 10.9622 14.3169 11.2265 13.0431 11.7549C11.7693 12.2834 10.6785 13.0423 9.7706 14.0315C8.87625 15.0071 8.18517 16.2064 7.69734 17.6292C7.20951 19.052 6.9656 20.6578 6.9656 22.4465C6.9656 24.2352 7.20951 25.8409 7.69734 27.2638C8.18517 28.6731 8.87625 29.8723 9.7706 30.8615C10.6785 31.8372 11.7693 32.5892 13.0431 33.1177C14.3169 33.6326 15.7329 33.8901 17.2913 33.8901C18.8632 33.8901 20.286 33.6326 21.5598 33.1177C22.8335 32.5892 23.9176 31.8372 24.8119 30.8615C25.7063 29.8723 26.3974 28.6731 26.8852 27.2638C27.373 25.8409 27.617 24.2352 27.617 22.4465ZM53.064 16.4096V37H50.9094C50.3945 37 50.0693 36.7493 49.9338 36.2479L49.6492 34.0324C48.7549 35.0216 47.7521 35.8211 46.6409 36.4309C45.5298 37.0271 44.256 37.3252 42.8196 37.3252C41.6949 37.3252 40.6989 37.1423 39.8317 36.7764C38.978 36.397 38.2598 35.8685 37.6771 35.191C37.0944 34.5134 36.654 33.6936 36.3559 32.7315C36.0714 31.7694 35.9291 30.7057 35.9291 29.5403V16.4096H39.5471V29.5403C39.5471 31.0986 39.8994 32.3047 40.6041 33.1584C41.3223 34.0121 42.4131 34.4389 43.8766 34.4389C44.9471 34.4389 45.9431 34.1882 46.8645 33.6868C47.7995 33.1719 48.66 32.4673 49.446 31.5729V16.4096H53.064ZM62.2359 20.5358C62.8863 19.1265 63.6858 18.0289 64.6343 17.243C65.5829 16.4435 66.7415 16.0438 68.1101 16.0438C68.5437 16.0438 68.957 16.0912 69.35 16.186C69.7565 16.2809 70.1156 16.4299 70.4273 16.6332L70.1631 19.3366C70.0817 19.6754 69.8785 19.8447 69.5533 19.8447C69.3636 19.8447 69.0858 19.8041 68.7199 19.7228C68.354 19.6415 67.9407 19.6008 67.48 19.6008C66.8296 19.6008 66.2469 19.6957 65.732 19.8854C65.2306 20.0751 64.7766 20.3597 64.3701 20.7391C63.9771 21.105 63.618 21.5657 63.2928 22.1213C62.9812 22.6633 62.6966 23.2866 62.4391 23.9913V37H58.8007V16.4096H60.874C61.267 16.4096 61.538 16.4842 61.6871 16.6332C61.8361 16.7823 61.9377 17.0397 61.9919 17.4056L62.2359 20.5358ZM14.344 65.918C16.1327 65.918 17.42 65.4912 18.206 64.6375C18.9919 63.7838 19.3849 62.5913 19.3849 61.0601C19.3849 60.3825 19.2832 59.766 19.08 59.2104C18.8767 58.6548 18.565 58.1805 18.145 57.7875C17.7385 57.381 17.2167 57.0694 16.5799 56.8525C15.9565 56.6357 15.2112 56.5273 14.344 56.5273H10.7666V65.918H14.344ZM14.344 51.3848C16.4308 51.3848 18.2195 51.6355 19.7101 52.1369C21.2142 52.6247 22.4473 53.3022 23.4094 54.1695C24.3851 55.0367 25.1033 56.0598 25.564 57.2387C26.0247 58.4177 26.2551 59.6914 26.2551 61.0601C26.2551 62.5371 26.018 63.8922 25.5437 65.1253C25.0694 66.3584 24.3444 67.4154 23.3688 68.2962C22.3931 69.177 21.1532 69.8681 19.6491 70.3694C18.1585 70.8573 16.3902 71.1012 14.344 71.1012H10.7666V81H3.89635V51.3848H14.344ZM34.6257 63.174C35.2761 62.0357 36.0214 61.1414 36.8615 60.4909C37.7152 59.8405 38.6909 59.5153 39.7885 59.5153C40.7371 59.5153 41.5094 59.7389 42.1057 60.186L41.6992 64.8204C41.6314 65.1185 41.5162 65.3218 41.3536 65.4302C41.2046 65.5386 40.9945 65.5928 40.7235 65.5928C40.6151 65.5928 40.4728 65.586 40.2967 65.5725C40.1205 65.5589 39.9376 65.5454 39.7478 65.5318C39.5581 65.5047 39.3616 65.4844 39.1584 65.4708C38.9687 65.4437 38.7925 65.4302 38.6299 65.4302C37.7085 65.4302 36.9699 65.6741 36.4144 66.1619C35.8723 66.6497 35.4116 67.3273 35.0322 68.1945V81H28.7311V59.9218H32.4711C32.7828 59.9218 33.0402 59.9489 33.2435 60.0031C33.4603 60.0573 33.6365 60.1454 33.772 60.2673C33.921 60.3757 34.0294 60.5248 34.0972 60.7145C34.1785 60.9042 34.2462 61.1346 34.3004 61.4056L34.6257 63.174ZM50.697 59.9218V81H44.3959V59.9218H50.697ZM51.3474 54.1492C51.3474 54.6505 51.2458 55.1248 51.0425 55.572C50.8392 56.0056 50.5615 56.3918 50.2091 56.7306C49.8568 57.0558 49.4435 57.32 48.9692 57.5233C48.5085 57.713 48.0139 57.8079 47.4854 57.8079C46.9705 57.8079 46.4895 57.713 46.0423 57.5233C45.5951 57.32 45.1954 57.0558 44.843 56.7306C44.5043 56.3918 44.2333 56.0056 44.03 55.572C43.8403 55.1248 43.7454 54.6505 43.7454 54.1492C43.7454 53.6342 43.8403 53.1532 44.03 52.706C44.2333 52.2588 44.5043 51.8659 44.843 51.5271C45.1954 51.1883 45.5951 50.9241 46.0423 50.7344C46.4895 50.5447 46.9705 50.4498 47.4854 50.4498C48.0139 50.4498 48.5085 50.5447 48.9692 50.7344C49.4435 50.9241 49.8568 51.1883 50.2091 51.5271C50.5615 51.8659 50.8392 52.2588 51.0425 52.706C51.2458 53.1532 51.3474 53.6342 51.3474 54.1492ZM60.9048 62.1983C61.3113 61.8189 61.7314 61.4666 62.165 61.1414C62.5987 60.8161 63.0594 60.5451 63.5472 60.3283C64.0486 60.098 64.5838 59.9218 65.153 59.7998C65.7357 59.6643 66.3658 59.5966 67.0433 59.5966C68.1951 59.5966 69.2114 59.7998 70.0922 60.2064C70.9866 60.5993 71.7386 61.1549 72.3484 61.8731C72.9582 62.5777 73.4189 63.4247 73.7306 64.4139C74.0423 65.3895 74.1981 66.4533 74.1981 67.6051V81H67.897V67.6051C67.897 66.5752 67.6599 65.7757 67.1856 65.2066C66.7113 64.6239 66.0135 64.3326 65.092 64.3326C64.4009 64.3326 63.7505 64.4816 63.1407 64.7797C62.5445 65.0643 61.9618 65.4573 61.3926 65.9587V81H55.0915V59.9218H58.9942C59.7801 59.9218 60.295 60.2741 60.5389 60.9788L60.9048 62.1983ZM93.7646 64.922C93.5748 65.1524 93.3919 65.3353 93.2157 65.4708C93.0396 65.6063 92.7889 65.6741 92.4637 65.6741C92.152 65.6741 91.8674 65.5996 91.61 65.4505C91.3661 65.3014 91.0883 65.1388 90.7766 64.9627C90.4649 64.773 90.0991 64.6036 89.679 64.4545C89.2589 64.3055 88.7372 64.2309 88.1139 64.2309C87.3415 64.2309 86.6707 64.3732 86.1016 64.6578C85.546 64.9424 85.0853 65.3489 84.7194 65.8774C84.3536 66.4058 84.0825 67.0563 83.9064 67.8287C83.7302 68.5875 83.6421 69.448 83.6421 70.4101C83.6421 72.4291 84.0283 73.9807 84.8007 75.0648C85.5867 76.1488 86.664 76.6909 88.0326 76.6909C88.7643 76.6909 89.3402 76.6028 89.7603 76.4266C90.1939 76.2369 90.5598 76.0336 90.8579 75.8168C91.156 75.5865 91.427 75.3764 91.671 75.1867C91.9284 74.997 92.2469 74.9022 92.6263 74.9022C93.1277 74.9022 93.5071 75.0851 93.7646 75.451L95.5939 77.7072C94.9435 78.4525 94.2592 79.0622 93.541 79.5365C92.8228 79.9972 92.0843 80.3631 91.3254 80.6341C90.5801 80.8916 89.8281 81.0678 89.0692 81.1626C88.3104 81.271 87.5719 81.3252 86.8537 81.3252C85.5663 81.3252 84.3332 81.0813 83.1543 80.5935C81.9889 80.1056 80.9591 79.401 80.0647 78.4796C79.1839 77.5446 78.4793 76.3995 77.9508 75.0444C77.4359 73.6894 77.1784 72.1446 77.1784 70.4101C77.1784 68.8924 77.402 67.4763 77.8492 66.1619C78.3099 64.8339 78.9807 63.6889 79.8615 62.7268C80.7558 61.7511 81.8534 60.9855 83.1543 60.4299C84.4687 59.8744 85.9864 59.5966 87.7074 59.5966C89.3606 59.5966 90.8105 59.8608 92.0572 60.3893C93.3038 60.9178 94.4285 61.6902 95.4313 62.7065L93.7646 64.922ZM104.49 59.9218V81H98.1887V59.9218H104.49ZM105.14 54.1492C105.14 54.6505 105.039 55.1248 104.835 55.572C104.632 56.0056 104.354 56.3918 104.002 56.7306C103.65 57.0558 103.236 57.32 102.762 57.5233C102.301 57.713 101.807 57.8079 101.278 57.8079C100.763 57.8079 100.282 57.713 99.8351 57.5233C99.3879 57.32 98.9882 57.0558 98.6358 56.7306C98.2971 56.3918 98.0261 56.0056 97.8228 55.572C97.6331 55.1248 97.5382 54.6505 97.5382 54.1492C97.5382 53.6342 97.6331 53.1532 97.8228 52.706C98.0261 52.2588 98.2971 51.8659 98.6358 51.5271C98.9882 51.1883 99.3879 50.9241 99.8351 50.7344C100.282 50.5447 100.763 50.4498 101.278 50.4498C101.807 50.4498 102.301 50.5447 102.762 50.7344C103.236 50.9241 103.65 51.1883 104.002 51.5271C104.354 51.8659 104.632 52.2588 104.835 52.706C105.039 53.1532 105.14 53.6342 105.14 54.1492ZM115.185 75.268C115.66 75.783 116.175 76.1488 116.73 76.3656C117.286 76.5825 117.868 76.6909 118.478 76.6909C119.061 76.6909 119.596 76.5757 120.084 76.3453C120.572 76.115 120.992 75.7491 121.344 75.2477C121.71 74.7328 121.995 74.0688 122.198 73.2557C122.401 72.4427 122.503 71.4535 122.503 70.2881C122.503 69.177 122.422 68.242 122.259 67.4831C122.096 66.7243 121.866 66.1145 121.568 65.6538C121.283 65.1795 120.938 64.8407 120.531 64.6375C120.125 64.4342 119.671 64.3326 119.169 64.3326C118.248 64.3326 117.489 64.502 116.893 64.8407C116.297 65.1795 115.727 65.6741 115.185 66.3245V75.268ZM114.799 62.5235C115.626 61.6427 116.561 60.9246 117.604 60.369C118.661 59.7998 119.915 59.5153 121.365 59.5153C122.462 59.5153 123.479 59.7592 124.414 60.247C125.349 60.7348 126.155 61.4395 126.832 62.3609C127.51 63.2824 128.038 64.4139 128.418 65.7554C128.811 67.0834 129.007 68.5943 129.007 70.2881C129.007 71.8736 128.784 73.337 128.336 74.6786C127.903 76.0201 127.286 77.1855 126.487 78.1747C125.701 79.1639 124.752 79.9363 123.641 80.4918C122.544 81.0474 121.324 81.3252 119.982 81.3252C118.885 81.3252 117.963 81.1694 117.218 80.8577C116.473 80.546 115.795 80.126 115.185 79.5975V87.6873H108.884V59.9218H112.787C113.573 59.9218 114.088 60.2741 114.332 60.9788L114.799 62.5235ZM138.568 50.5718V81H132.267V50.5718H138.568ZM155.938 67.9303C155.938 67.4289 155.87 66.9411 155.735 66.4668C155.613 65.9925 155.403 65.5725 155.104 65.2066C154.82 64.8272 154.44 64.5223 153.966 64.2919C153.492 64.0616 152.916 63.9464 152.238 63.9464C151.046 63.9464 150.111 64.2919 149.433 64.983C148.756 65.6605 148.309 66.643 148.092 67.9303H155.938ZM148.011 71.589C148.214 73.3506 148.749 74.6311 149.616 75.4306C150.484 76.2166 151.602 76.6096 152.97 76.6096C153.702 76.6096 154.332 76.5215 154.86 76.3453C155.389 76.1692 155.856 75.9727 156.263 75.7559C156.683 75.539 157.062 75.3426 157.401 75.1664C157.754 74.9902 158.119 74.9022 158.499 74.9022C159 74.9022 159.38 75.0851 159.637 75.451L161.466 77.7072C160.816 78.4525 160.111 79.0622 159.353 79.5365C158.607 79.9972 157.835 80.3631 157.035 80.6341C156.249 80.8916 155.457 81.0678 154.657 81.1626C153.871 81.271 153.119 81.3252 152.401 81.3252C150.924 81.3252 149.535 81.0881 148.234 80.6138C146.947 80.126 145.815 79.4078 144.84 78.4592C143.878 77.5107 143.112 76.3318 142.543 74.9225C141.987 73.5132 141.709 71.8736 141.709 70.0036C141.709 68.5943 141.947 67.2595 142.421 65.9993C142.909 64.7391 143.6 63.6347 144.494 62.6861C145.402 61.7376 146.493 60.9855 147.767 60.4299C149.054 59.8744 150.504 59.5966 152.116 59.5966C153.512 59.5966 154.786 59.8134 155.938 60.247C157.103 60.6806 158.099 61.3107 158.926 62.1373C159.766 62.9639 160.416 63.9802 160.877 65.1863C161.351 66.3787 161.588 67.7338 161.588 69.2515C161.588 69.7258 161.568 70.112 161.527 70.4101C161.487 70.7082 161.412 70.9453 161.304 71.1215C161.195 71.2977 161.046 71.4196 160.857 71.4874C160.681 71.5551 160.45 71.589 160.166 71.589H148.011ZM178.136 64.5358C177.974 64.7933 177.798 64.9762 177.608 65.0846C177.432 65.193 177.201 65.2472 176.917 65.2472C176.619 65.2472 176.321 65.1863 176.023 65.0643C175.724 64.9288 175.399 64.7865 175.047 64.6375C174.708 64.4884 174.322 64.3529 173.888 64.2309C173.455 64.0954 172.96 64.0277 172.404 64.0277C171.605 64.0277 170.988 64.1835 170.555 64.4952C170.135 64.7933 169.925 65.2134 169.925 65.7554C169.925 66.1484 170.06 66.4736 170.331 66.7311C170.616 66.9885 170.988 67.2189 171.449 67.4221C171.91 67.6118 172.432 67.7948 173.014 67.9709C173.597 68.1471 174.193 68.3436 174.803 68.5604C175.413 68.7772 176.009 69.0347 176.592 69.3328C177.174 69.6174 177.696 69.9765 178.157 70.4101C178.617 70.8302 178.983 71.3451 179.254 71.9549C179.539 72.5647 179.681 73.2964 179.681 74.1501C179.681 75.1935 179.492 76.1556 179.112 77.0364C178.733 77.9172 178.164 78.676 177.405 79.3129C176.659 79.9498 175.731 80.4444 174.62 80.7967C173.522 81.1491 172.255 81.3252 170.819 81.3252C170.101 81.3252 169.383 81.2575 168.664 81.122C167.946 80.9864 167.248 80.8035 166.571 80.5732C165.907 80.3428 165.29 80.0718 164.721 79.7601C164.152 79.4349 163.664 79.0893 163.258 78.7235L164.721 76.4063C164.884 76.1353 165.087 75.9252 165.331 75.7762C165.588 75.6136 165.914 75.5323 166.307 75.5323C166.672 75.5323 166.998 75.6136 167.282 75.7762C167.58 75.9388 167.899 76.115 168.238 76.3047C168.576 76.4944 168.969 76.6705 169.417 76.8331C169.877 76.9958 170.453 77.0771 171.144 77.0771C171.632 77.0771 172.045 77.0296 172.384 76.9348C172.723 76.8264 172.994 76.6841 173.197 76.5079C173.4 76.3318 173.55 76.1353 173.644 75.9185C173.739 75.7017 173.787 75.4781 173.787 75.2477C173.787 74.8276 173.644 74.4821 173.36 74.2111C173.075 73.9401 172.703 73.7097 172.242 73.52C171.781 73.3167 171.253 73.1338 170.656 72.9712C170.074 72.795 169.478 72.5985 168.868 72.3817C168.258 72.1649 167.655 71.9074 167.059 71.6093C166.476 71.2977 165.954 70.9115 165.494 70.4507C165.033 69.9765 164.66 69.4006 164.376 68.723C164.091 68.0455 163.949 67.2257 163.949 66.2635C163.949 65.3692 164.118 64.5223 164.457 63.7228C164.809 62.9097 165.331 62.1983 166.022 61.5885C166.713 60.9788 167.58 60.4977 168.624 60.1454C169.667 59.7795 170.887 59.5966 172.283 59.5966C173.041 59.5966 173.773 59.6643 174.478 59.7998C175.196 59.9353 175.867 60.1251 176.49 60.369C177.113 60.6129 177.682 60.9042 178.197 61.243C178.712 61.5682 179.166 61.9273 179.559 62.3203L178.136 64.5358Z" fill="black"/>
<path d="M282.88 22.4465C282.88 24.6281 282.535 26.6337 281.844 28.463C281.152 30.2788 280.177 31.8439 278.917 33.1583C277.656 34.4728 276.139 35.4959 274.364 36.2276C272.602 36.9458 270.651 37.3049 268.51 37.3049C266.369 37.3049 264.417 36.9458 262.656 36.2276C260.894 35.4959 259.383 34.4728 258.123 33.1583C256.863 31.8439 255.887 30.2788 255.196 28.463C254.505 26.6337 254.159 24.6281 254.159 22.4465C254.159 20.2648 254.505 18.2661 255.196 16.4503C255.887 14.6209 256.863 13.049 258.123 11.7346C259.383 10.4066 260.894 9.37676 262.656 8.64502C264.417 7.91328 266.369 7.54741 268.51 7.54741C270.651 7.54741 272.602 7.91328 274.364 8.64502C276.139 9.37676 277.656 10.4066 278.917 11.7346C280.177 13.049 281.152 14.6209 281.844 16.4503C282.535 18.2661 282.88 20.2648 282.88 22.4465ZM278.835 22.4465C278.835 20.6578 278.591 19.052 278.104 17.6292C277.616 16.2063 276.925 15.0071 276.03 14.0314C275.136 13.0422 274.052 12.2834 272.778 11.7549C271.504 11.2264 270.081 10.9622 268.51 10.9622C266.951 10.9622 265.535 11.2264 264.261 11.7549C262.988 12.2834 261.897 13.0422 260.989 14.0314C260.095 15.0071 259.403 16.2063 258.916 17.6292C258.428 19.052 258.184 20.6578 258.184 22.4465C258.184 24.2352 258.428 25.8409 258.916 27.2638C259.403 28.673 260.095 29.8723 260.989 30.8615C261.897 31.8371 262.988 32.5892 264.261 33.1177C265.535 33.6326 266.951 33.8901 268.51 33.8901C270.081 33.8901 271.504 33.6326 272.778 33.1177C274.052 32.5892 275.136 31.8371 276.03 30.8615C276.925 29.8723 277.616 28.673 278.104 27.2638C278.591 25.8409 278.835 24.2352 278.835 22.4465ZM304.282 16.4096V37H302.128C301.613 37 301.288 36.7493 301.152 36.2479L300.868 34.0324C299.973 35.0216 298.97 35.8211 297.859 36.4309C296.748 37.0271 295.474 37.3252 294.038 37.3252C292.913 37.3252 291.917 37.1423 291.05 36.7764C290.196 36.397 289.478 35.8685 288.895 35.191C288.313 34.5134 287.872 33.6936 287.574 32.7315C287.29 31.7694 287.147 30.7057 287.147 29.5403V16.4096H290.765V29.5403C290.765 31.0986 291.118 32.3046 291.822 33.1583C292.541 34.012 293.631 34.4389 295.095 34.4389C296.165 34.4389 297.161 34.1882 298.083 33.6868C299.018 33.1719 299.878 32.4673 300.664 31.5729V16.4096H304.282ZM313.454 20.5358C314.105 19.1265 314.904 18.0289 315.853 17.243C316.801 16.4435 317.96 16.0437 319.328 16.0437C319.762 16.0437 320.175 16.0912 320.568 16.186C320.975 16.2809 321.334 16.4299 321.646 16.6332L321.381 19.3366C321.3 19.6753 321.097 19.8447 320.772 19.8447C320.582 19.8447 320.304 19.8041 319.938 19.7228C319.572 19.6415 319.159 19.6008 318.698 19.6008C318.048 19.6008 317.465 19.6957 316.95 19.8854C316.449 20.0751 315.995 20.3597 315.588 20.7391C315.195 21.1049 314.836 21.5657 314.511 22.1213C314.199 22.6633 313.915 23.2866 313.657 23.9913V37H310.019V16.4096H312.092C312.485 16.4096 312.756 16.4841 312.905 16.6332C313.054 16.7823 313.156 17.0397 313.21 17.4056L313.454 20.5358ZM262.026 56.6696V63.5805H271.335V68.662H262.026V75.7152H274.181V81H255.115V51.3848H274.181V56.6696H262.026ZM297.85 81H291.793C291.346 81 290.98 80.8916 290.695 80.6748C290.424 80.458 290.207 80.2005 290.045 79.9024L286.284 73.4387C286.217 73.669 286.135 73.8858 286.041 74.0891C285.946 74.2924 285.844 74.4821 285.736 74.6582L282.646 79.9024C282.456 80.1734 282.233 80.4241 281.975 80.6544C281.718 80.8848 281.386 81 280.979 81H275.369L282.443 70.1052L275.654 59.9218H281.711C282.158 59.9218 282.483 59.9828 282.687 60.1047C282.904 60.2131 283.093 60.4028 283.256 60.6738L287.016 66.914C287.098 66.6701 287.199 66.4329 287.321 66.2026C287.443 65.9586 287.579 65.7147 287.728 65.4708L290.411 60.7755C290.6 60.4774 290.797 60.2605 291 60.125C291.217 59.9895 291.481 59.9218 291.793 59.9218H297.565L290.777 69.8206L297.85 81ZM306.1 75.268C306.575 75.7829 307.089 76.1488 307.645 76.3656C308.201 76.5824 308.783 76.6908 309.393 76.6908C309.976 76.6908 310.511 76.5757 310.999 76.3453C311.487 76.1149 311.907 75.7491 312.259 75.2477C312.625 74.7328 312.91 74.0688 313.113 73.2557C313.316 72.4427 313.418 71.4535 313.418 70.2881C313.418 69.1769 313.336 68.2419 313.174 67.4831C313.011 66.7243 312.781 66.1145 312.483 65.6537C312.198 65.1795 311.853 64.8407 311.446 64.6374C311.04 64.4342 310.586 64.3326 310.084 64.3326C309.163 64.3326 308.404 64.5019 307.808 64.8407C307.211 65.1795 306.642 65.6741 306.1 66.3245V75.268ZM305.714 62.5235C306.541 61.6427 307.476 60.9245 308.519 60.369C309.576 59.7998 310.829 59.5153 312.279 59.5153C313.377 59.5153 314.393 59.7592 315.328 60.247C316.263 60.7348 317.07 61.4395 317.747 62.3609C318.425 63.2824 318.953 64.4139 319.333 65.7554C319.726 67.0834 319.922 68.5943 319.922 70.2881C319.922 71.8735 319.698 73.337 319.251 74.6786C318.818 76.0201 318.201 77.1854 317.402 78.1747C316.616 79.1639 315.667 79.9363 314.556 80.4918C313.458 81.0474 312.239 81.3252 310.897 81.3252C309.8 81.3252 308.878 81.1694 308.133 80.8577C307.388 80.546 306.71 80.126 306.1 79.5975V87.6873H299.799V59.9218H303.702C304.488 59.9218 305.003 60.2741 305.247 60.9787L305.714 62.5235ZM336.293 67.9303C336.293 67.4289 336.225 66.9411 336.089 66.4668C335.967 65.9925 335.757 65.5724 335.459 65.2066C335.175 64.8272 334.795 64.5223 334.321 64.2919C333.847 64.0615 333.271 63.9464 332.593 63.9464C331.401 63.9464 330.466 64.2919 329.788 64.983C329.111 65.6605 328.663 66.643 328.447 67.9303H336.293ZM328.365 71.589C328.569 73.3506 329.104 74.6311 329.971 75.4306C330.838 76.2166 331.956 76.6095 333.325 76.6095C334.057 76.6095 334.687 76.5215 335.215 76.3453C335.744 76.1691 336.211 75.9727 336.618 75.7558C337.038 75.539 337.417 75.3425 337.756 75.1664C338.108 74.9902 338.474 74.9021 338.854 74.9021C339.355 74.9021 339.734 75.0851 339.992 75.4509L341.821 77.7072C341.171 78.4524 340.466 79.0622 339.707 79.5365C338.962 79.9972 338.19 80.3631 337.39 80.6341C336.604 80.8916 335.811 81.0677 335.012 81.1626C334.226 81.271 333.474 81.3252 332.756 81.3252C331.279 81.3252 329.89 81.0881 328.589 80.6138C327.302 80.126 326.17 79.4078 325.194 78.4592C324.232 77.5107 323.467 76.3317 322.898 74.9225C322.342 73.5132 322.064 71.8735 322.064 70.0035C322.064 68.5943 322.301 67.2595 322.776 65.9993C323.263 64.7391 323.955 63.6347 324.849 62.6861C325.757 61.7376 326.848 60.9855 328.121 60.4299C329.409 59.8744 330.859 59.5966 332.471 59.5966C333.867 59.5966 335.141 59.8134 336.293 60.247C337.458 60.6806 338.454 61.3107 339.28 62.1373C340.121 62.9639 340.771 63.9802 341.232 65.1862C341.706 66.3787 341.943 67.7338 341.943 69.2515C341.943 69.7258 341.923 70.1119 341.882 70.4101C341.842 70.7082 341.767 70.9453 341.659 71.1215C341.55 71.2976 341.401 71.4196 341.211 71.4874C341.035 71.5551 340.805 71.589 340.52 71.589H328.365ZM350.991 63.174C351.641 62.0357 352.387 61.1413 353.227 60.4909C354.08 59.8405 355.056 59.5153 356.154 59.5153C357.102 59.5153 357.875 59.7388 358.471 60.186L358.064 64.8204C357.997 65.1185 357.881 65.3218 357.719 65.4302C357.57 65.5386 357.36 65.5928 357.089 65.5928C356.98 65.5928 356.838 65.586 356.662 65.5724C356.486 65.5589 356.303 65.5453 356.113 65.5318C355.923 65.5047 355.727 65.4844 355.524 65.4708C355.334 65.4437 355.158 65.4302 354.995 65.4302C354.074 65.4302 353.335 65.6741 352.78 66.1619C352.238 66.6497 351.777 67.3273 351.397 68.1945V81H345.096V59.9218H348.836C349.148 59.9218 349.405 59.9489 349.609 60.0031C349.825 60.0573 350.002 60.1454 350.137 60.2673C350.286 60.3757 350.395 60.5248 350.462 60.7145C350.544 60.9042 350.611 61.1346 350.666 61.4056L350.991 63.174ZM383.404 81H377.103V64.2716H368.282V74.7395C368.282 75.2274 368.397 75.6339 368.627 75.9591C368.871 76.2708 369.217 76.4266 369.664 76.4266C369.894 76.4266 370.084 76.4063 370.233 76.3656C370.396 76.3114 370.531 76.2572 370.64 76.203C370.762 76.1353 370.87 76.0811 370.965 76.0404C371.073 75.9862 371.195 75.9591 371.331 75.9591C371.52 75.9591 371.669 76.0065 371.778 76.1014C371.9 76.1827 372.022 76.3182 372.144 76.5079L374.054 79.4959C373.241 80.1056 372.327 80.5664 371.31 80.878C370.294 81.1761 369.244 81.3252 368.16 81.3252C367.157 81.3252 366.269 81.1829 365.497 80.8984C364.738 80.6002 364.095 80.1869 363.566 79.6585C363.051 79.1164 362.658 78.466 362.387 77.7072C362.116 76.9483 361.981 76.1014 361.981 75.1664V64.2716H360.192C359.867 64.2716 359.589 64.1699 359.359 63.9667C359.128 63.7499 359.013 63.4382 359.013 63.0317V60.5722L362.367 59.9015L363.607 54.7793C363.769 54.1288 364.23 53.8036 364.989 53.8036H368.282V59.9624H383.404V81ZM384.278 54.1288C384.278 54.6302 384.177 55.1045 383.973 55.5517C383.77 55.9988 383.492 56.3918 383.14 56.7306C382.788 57.0558 382.375 57.3133 381.9 57.503C381.439 57.6927 380.945 57.7875 380.416 57.7875C379.901 57.7875 379.42 57.6927 378.973 57.503C378.526 57.3133 378.126 57.0558 377.774 56.7306C377.435 56.3918 377.164 55.9988 376.961 55.5517C376.771 55.1045 376.676 54.6302 376.676 54.1288C376.676 53.6275 376.771 53.1532 376.961 52.706C377.164 52.2453 377.435 51.8523 377.774 51.5271C378.126 51.1883 378.526 50.9241 378.973 50.7344C379.42 50.5311 379.901 50.4295 380.416 50.4295C380.945 50.4295 381.439 50.5311 381.9 50.7344C382.375 50.9241 382.788 51.1883 383.14 51.5271C383.492 51.8523 383.77 52.2453 383.973 52.706C384.177 53.1532 384.278 53.6275 384.278 54.1288ZM401.208 64.5358C401.045 64.7933 400.869 64.9762 400.679 65.0846C400.503 65.193 400.273 65.2472 399.988 65.2472C399.69 65.2472 399.392 65.1862 399.094 65.0643C398.796 64.9288 398.471 64.7865 398.118 64.6374C397.779 64.4884 397.393 64.3529 396.96 64.2309C396.526 64.0954 396.031 64.0277 395.476 64.0277C394.676 64.0277 394.06 64.1835 393.626 64.4952C393.206 64.7933 392.996 65.2134 392.996 65.7554C392.996 66.1484 393.132 66.4736 393.403 66.731C393.687 66.9885 394.06 67.2189 394.521 67.4221C394.981 67.6118 395.503 67.7948 396.086 67.9709C396.668 68.1471 397.265 68.3436 397.874 68.5604C398.484 68.7772 399.08 69.0347 399.663 69.3328C400.246 69.6173 400.767 69.9764 401.228 70.4101C401.689 70.8301 402.055 71.3451 402.326 71.9549C402.61 72.5646 402.753 73.2964 402.753 74.1501C402.753 75.1935 402.563 76.1556 402.183 77.0364C401.804 77.9172 401.235 78.676 400.476 79.3129C399.731 79.9498 398.803 80.4444 397.691 80.7967C396.594 81.149 395.327 81.3252 393.89 81.3252C393.172 81.3252 392.454 81.2574 391.736 81.1219C391.018 80.9864 390.32 80.8035 389.642 80.5731C388.978 80.3428 388.362 80.0718 387.793 79.7601C387.223 79.4349 386.736 79.0893 386.329 78.7235L387.793 76.4063C387.955 76.1353 388.158 75.9252 388.402 75.7762C388.66 75.6136 388.985 75.5323 389.378 75.5323C389.744 75.5323 390.069 75.6136 390.354 75.7762C390.652 75.9388 390.97 76.1149 391.309 76.3046C391.648 76.4944 392.041 76.6705 392.488 76.8331C392.949 76.9957 393.525 77.077 394.216 77.077C394.703 77.077 395.117 77.0296 395.456 76.9348C395.794 76.8264 396.065 76.6841 396.269 76.5079C396.472 76.3317 396.621 76.1353 396.716 75.9185C396.811 75.7016 396.858 75.4781 396.858 75.2477C396.858 74.8276 396.716 74.4821 396.431 74.2111C396.147 73.94 395.774 73.7097 395.313 73.52C394.853 73.3167 394.324 73.1338 393.728 72.9712C393.145 72.795 392.549 72.5985 391.939 72.3817C391.329 72.1649 390.726 71.9074 390.13 71.6093C389.547 71.2976 389.026 70.9114 388.565 70.4507C388.104 69.9764 387.732 69.4005 387.447 68.723C387.162 68.0455 387.02 67.2256 387.02 66.2635C387.02 65.3692 387.19 64.5223 387.528 63.7228C387.881 62.9097 388.402 62.1983 389.093 61.5885C389.785 60.9787 390.652 60.4977 391.695 60.1454C392.739 59.7795 393.958 59.5966 395.354 59.5966C396.113 59.5966 396.844 59.6643 397.549 59.7998C398.267 59.9353 398.938 60.125 399.561 60.369C400.185 60.6129 400.754 60.9042 401.269 61.243C401.784 61.5682 402.238 61.9273 402.631 62.3203L401.208 64.5358ZM419.026 67.9303C419.026 67.4289 418.958 66.9411 418.823 66.4668C418.701 65.9925 418.491 65.5724 418.193 65.2066C417.908 64.8272 417.529 64.5223 417.055 64.2919C416.58 64.0615 416.004 63.9464 415.327 63.9464C414.134 63.9464 413.199 64.2919 412.522 64.983C411.844 65.6605 411.397 66.643 411.18 67.9303H419.026ZM411.099 71.589C411.302 73.3506 411.838 74.6311 412.705 75.4306C413.572 76.2166 414.69 76.6095 416.059 76.6095C416.79 76.6095 417.42 76.5215 417.949 76.3453C418.477 76.1691 418.945 75.9727 419.351 75.7558C419.772 75.539 420.151 75.3425 420.49 75.1664C420.842 74.9902 421.208 74.9021 421.587 74.9021C422.089 74.9021 422.468 75.0851 422.726 75.4509L424.555 77.7072C423.905 78.4524 423.2 79.0622 422.441 79.5365C421.696 79.9972 420.923 80.3631 420.124 80.6341C419.338 80.8916 418.545 81.0677 417.746 81.1626C416.96 81.271 416.208 81.3252 415.489 81.3252C414.012 81.3252 412.624 81.0881 411.323 80.6138C410.035 80.126 408.904 79.4078 407.928 78.4592C406.966 77.5107 406.2 76.3317 405.631 74.9225C405.076 73.5132 404.798 71.8735 404.798 70.0035C404.798 68.5943 405.035 67.2595 405.509 65.9993C405.997 64.7391 406.688 63.6347 407.583 62.6861C408.491 61.7376 409.581 60.9855 410.855 60.4299C412.142 59.8744 413.592 59.5966 415.205 59.5966C416.601 59.5966 417.874 59.8134 419.026 60.247C420.192 60.6806 421.188 61.3107 422.014 62.1373C422.854 62.9639 423.505 63.9802 423.965 65.1862C424.44 66.3787 424.677 67.7338 424.677 69.2515C424.677 69.7258 424.657 70.1119 424.616 70.4101C424.575 70.7082 424.501 70.9453 424.392 71.1215C424.284 71.2976 424.135 71.4196 423.945 71.4874C423.769 71.5551 423.539 71.589 423.254 71.589H411.099Z" fill="black"/>
<path d="M229.29 50.4772H216.85V63.5875H212.429V50.4772H200.051V46.3611H212.429V33.3423H216.85V46.3611H229.29V50.4772Z" fill="#1696D2"/>
<path d="M528.382 22.4465C528.382 24.6281 528.036 26.6337 527.345 28.463C526.654 30.2788 525.678 31.8439 524.418 33.1583C523.158 34.4728 521.64 35.4959 519.865 36.2276C518.103 36.9458 516.152 37.3049 514.011 37.3049C511.87 37.3049 509.919 36.9458 508.157 36.2276C506.396 35.4959 504.885 34.4728 503.624 33.1583C502.364 31.8439 501.389 30.2788 500.698 28.463C500.006 26.6337 499.661 24.6281 499.661 22.4465C499.661 20.2648 500.006 18.2661 500.698 16.4503C501.389 14.6209 502.364 13.049 503.624 11.7346C504.885 10.4066 506.396 9.37676 508.157 8.64502C509.919 7.91328 511.87 7.54741 514.011 7.54741C516.152 7.54741 518.103 7.91328 519.865 8.64502C521.64 9.37676 523.158 10.4066 524.418 11.7346C525.678 13.049 526.654 14.6209 527.345 16.4503C528.036 18.2661 528.382 20.2648 528.382 22.4465ZM524.337 22.4465C524.337 20.6578 524.093 19.052 523.605 17.6292C523.117 16.2063 522.426 15.0071 521.532 14.0314C520.637 13.0422 519.553 12.2834 518.28 11.7549C517.006 11.2264 515.583 10.9622 514.011 10.9622C512.453 10.9622 511.037 11.2264 509.763 11.7549C508.489 12.2834 507.398 13.0422 506.49 14.0314C505.596 15.0071 504.905 16.2063 504.417 17.6292C503.929 19.052 503.685 20.6578 503.685 22.4465C503.685 24.2352 503.929 25.8409 504.417 27.2638C504.905 28.673 505.596 29.8723 506.49 30.8615C507.398 31.8371 508.489 32.5892 509.763 33.1177C511.037 33.6326 512.453 33.8901 514.011 33.8901C515.583 33.8901 517.006 33.6326 518.28 33.1177C519.553 32.5892 520.637 31.8371 521.532 30.8615C522.426 29.8723 523.117 28.673 523.605 27.2638C524.093 25.8409 524.337 24.2352 524.337 22.4465ZM549.784 16.4096V37H547.629C547.114 37 546.789 36.7493 546.654 36.2479L546.369 34.0324C545.475 35.0216 544.472 35.8211 543.361 36.4309C542.25 37.0271 540.976 37.3252 539.54 37.3252C538.415 37.3252 537.419 37.1423 536.552 36.7764C535.698 36.397 534.98 35.8685 534.397 35.191C533.814 34.5134 533.374 33.6936 533.076 32.7315C532.791 31.7694 532.649 30.7057 532.649 29.5403V16.4096H536.267V29.5403C536.267 31.0986 536.619 32.3046 537.324 33.1583C538.042 34.012 539.133 34.4389 540.596 34.4389C541.667 34.4389 542.663 34.1882 543.584 33.6868C544.519 33.1719 545.38 32.4673 546.166 31.5729V16.4096H549.784ZM558.956 20.5358C559.606 19.1265 560.406 18.0289 561.354 17.243C562.303 16.4435 563.461 16.0437 564.83 16.0437C565.264 16.0437 565.677 16.0912 566.07 16.186C566.476 16.2809 566.836 16.4299 567.147 16.6332L566.883 19.3366C566.802 19.6753 566.598 19.8447 566.273 19.8447C566.083 19.8447 565.806 19.8041 565.44 19.7228C565.074 19.6415 564.661 19.6008 564.2 19.6008C563.549 19.6008 562.967 19.6957 562.452 19.8854C561.95 20.0751 561.497 20.3597 561.09 20.7391C560.697 21.1049 560.338 21.5657 560.013 22.1213C559.701 22.6633 559.416 23.2866 559.159 23.9913V37H555.521V16.4096H557.594C557.987 16.4096 558.258 16.4841 558.407 16.6332C558.556 16.7823 558.658 17.0397 558.712 17.4056L558.956 20.5358ZM533.91 51.3848V81H527.853V63.9667C527.853 63.5737 527.86 63.1469 527.874 62.6861C527.901 62.2254 527.941 61.7579 527.996 61.2836L520.129 76.5079C519.885 76.9822 519.553 77.3413 519.133 77.5852C518.727 77.8291 518.259 77.9511 517.731 77.9511H516.796C516.267 77.9511 515.793 77.8291 515.373 77.5852C514.966 77.3413 514.641 76.9822 514.397 76.5079L506.531 61.243C506.572 61.7308 506.606 62.2119 506.633 62.6861C506.66 63.1469 506.673 63.5737 506.673 63.9667V81H500.616V51.3848H505.86C506.158 51.3848 506.416 51.3916 506.633 51.4051C506.863 51.4187 507.066 51.4593 507.243 51.5271C507.419 51.5948 507.575 51.7032 507.71 51.8523C507.859 51.9878 508.001 52.1843 508.137 52.4418L515.759 67.4628C516.03 67.9777 516.288 68.513 516.532 69.0685C516.789 69.6241 517.033 70.1933 517.263 70.7759C517.494 70.1797 517.731 69.597 517.975 69.0279C518.232 68.4588 518.503 67.9167 518.788 67.4018L526.39 52.4418C526.525 52.1843 526.661 51.9878 526.796 51.8523C526.945 51.7032 527.108 51.5948 527.284 51.5271C527.46 51.4593 527.657 51.4187 527.874 51.4051C528.104 51.3916 528.368 51.3848 528.666 51.3848H533.91ZM551.384 67.9303C551.384 67.4289 551.316 66.9411 551.181 66.4668C551.059 65.9925 550.849 65.5724 550.551 65.2066C550.266 64.8272 549.887 64.5223 549.413 64.2919C548.938 64.0615 548.362 63.9464 547.685 63.9464C546.492 63.9464 545.557 64.2919 544.88 64.983C544.202 65.6605 543.755 66.643 543.538 67.9303H551.384ZM543.457 71.589C543.66 73.3506 544.196 74.6311 545.063 75.4306C545.93 76.2166 547.048 76.6095 548.417 76.6095C549.148 76.6095 549.778 76.5215 550.307 76.3453C550.835 76.1691 551.303 75.9727 551.709 75.7558C552.13 75.539 552.509 75.3425 552.848 75.1664C553.2 74.9902 553.566 74.9021 553.945 74.9021C554.447 74.9021 554.826 75.0851 555.084 75.4509L556.913 77.7072C556.263 78.4524 555.558 79.0622 554.799 79.5365C554.054 79.9972 553.281 80.3631 552.482 80.6341C551.696 80.8916 550.903 81.0677 550.104 81.1626C549.318 81.271 548.566 81.3252 547.848 81.3252C546.37 81.3252 544.982 81.0881 543.681 80.6138C542.393 80.126 541.262 79.4078 540.286 78.4592C539.324 77.5107 538.558 76.3317 537.989 74.9225C537.434 73.5132 537.156 71.8735 537.156 70.0035C537.156 68.5943 537.393 67.2595 537.867 65.9993C538.355 64.7391 539.046 63.6347 539.941 62.6861C540.849 61.7376 541.939 60.9855 543.213 60.4299C544.5 59.8744 545.95 59.5966 547.563 59.5966C548.959 59.5966 550.232 59.8134 551.384 60.247C552.55 60.6806 553.546 61.3107 554.372 62.1373C555.212 62.9639 555.863 63.9802 556.324 65.1862C556.798 66.3787 557.035 67.7338 557.035 69.2515C557.035 69.7258 557.015 70.1119 556.974 70.4101C556.933 70.7082 556.859 70.9453 556.75 71.1215C556.642 71.2976 556.493 71.4196 556.303 71.4874C556.127 71.5551 555.897 71.589 555.612 71.589H543.457ZM567.451 81.3252C566.448 81.3252 565.561 81.1829 564.788 80.8984C564.03 80.6002 563.386 80.1869 562.857 79.6585C562.342 79.1164 561.95 78.466 561.678 77.7072C561.407 76.9483 561.272 76.1014 561.272 75.1664V64.2716H559.483C559.158 64.2716 558.88 64.1699 558.65 63.9667C558.42 63.7499 558.304 63.4382 558.304 63.0317V60.5722L561.658 59.9218L562.898 54.7793C563.061 54.1288 563.521 53.8036 564.28 53.8036H567.573V59.9624H572.797V64.2716H567.573V74.7395C567.573 75.2274 567.688 75.6339 567.919 75.9591C568.163 76.2708 568.508 76.4266 568.955 76.4266C569.186 76.4266 569.375 76.4063 569.524 76.3656C569.687 76.3114 569.822 76.2572 569.931 76.203C570.053 76.1353 570.161 76.0811 570.256 76.0404C570.365 75.9862 570.486 75.9591 570.622 75.9591C570.812 75.9591 570.961 76.0065 571.069 76.1014C571.191 76.1827 571.313 76.3182 571.435 76.5079L573.346 79.4959C572.533 80.1056 571.618 80.5664 570.602 80.878C569.585 81.1761 568.535 81.3252 567.451 81.3252ZM581.813 61.7715C582.572 61.121 583.392 60.5993 584.273 60.2063C585.167 59.7998 586.231 59.5966 587.464 59.5966C588.616 59.5966 589.632 59.7998 590.513 60.2063C591.407 60.5993 592.159 61.1549 592.769 61.8731C593.379 62.5777 593.839 63.4247 594.151 64.4139C594.463 65.3895 594.619 66.4532 594.619 67.6051V81H588.317V67.6051C588.317 66.5752 588.08 65.7757 587.606 65.2066C587.132 64.6239 586.434 64.3326 585.512 64.3326C584.821 64.3326 584.171 64.4816 583.561 64.7797C582.965 65.0643 582.382 65.4573 581.813 65.9586V81H575.512V50.5718H581.813V61.7715ZM608.412 59.5966C610.011 59.5966 611.468 59.8472 612.783 60.3486C614.097 60.85 615.222 61.5682 616.157 62.5032C617.105 63.4382 617.837 64.5765 618.352 65.918C618.88 67.246 619.145 68.7433 619.145 70.4101C619.145 72.0904 618.88 73.608 618.352 74.9631C617.837 76.3046 617.105 77.4497 616.157 78.3982C615.222 79.3332 614.097 80.0582 612.783 80.5731C611.468 81.0745 610.011 81.3252 608.412 81.3252C606.8 81.3252 605.33 81.0745 604.002 80.5731C602.687 80.0582 601.549 79.3332 600.587 78.3982C599.638 77.4497 598.9 76.3046 598.371 74.9631C597.856 73.608 597.599 72.0904 597.599 70.4101C597.599 68.7433 597.856 67.246 598.371 65.918C598.9 64.5765 599.638 63.4382 600.587 62.5032C601.549 61.5682 602.687 60.85 604.002 60.3486C605.33 59.8472 606.8 59.5966 608.412 59.5966ZM608.412 76.6502C609.862 76.6502 610.926 76.142 611.604 75.1257C612.295 74.0959 612.64 72.5375 612.64 70.4507C612.64 68.3639 612.295 66.8123 611.604 65.796C610.926 64.7797 609.862 64.2716 608.412 64.2716C606.922 64.2716 605.831 64.7797 605.14 65.796C604.449 66.8123 604.103 68.3639 604.103 70.4507C604.103 72.5375 604.449 74.0959 605.14 75.1257C605.831 76.142 606.922 76.6502 608.412 76.6502ZM635.103 65.5724C634.629 65.044 634.114 64.6781 633.558 64.4748C633.002 64.258 632.42 64.1496 631.81 64.1496C631.227 64.1496 630.692 64.2648 630.204 64.4952C629.716 64.7255 629.29 65.0982 628.924 65.6131C628.571 66.1145 628.294 66.7717 628.09 67.5847C627.887 68.3978 627.785 69.3802 627.785 70.532C627.785 71.6432 627.867 72.5782 628.029 73.337C628.192 74.0959 628.416 74.7124 628.7 75.1867C628.998 75.6474 629.351 75.9794 629.757 76.1827C630.164 76.386 630.618 76.4876 631.119 76.4876C631.58 76.4876 631.993 76.4469 632.359 76.3656C632.738 76.2708 633.084 76.142 633.395 75.9794C633.707 75.8168 633.998 75.6136 634.269 75.3696C634.554 75.1122 634.832 74.8208 635.103 74.4956V65.5724ZM641.404 50.5718V81H637.501C636.715 81 636.2 80.6477 635.957 79.943L635.469 78.3373C635.049 78.7844 634.608 79.191 634.148 79.5568C633.687 79.9227 633.185 80.2411 632.643 80.5122C632.115 80.7696 631.539 80.9661 630.916 81.1016C630.306 81.2507 629.642 81.3252 628.924 81.3252C627.826 81.3252 626.81 81.0813 625.875 80.5935C624.94 80.1056 624.134 79.401 623.456 78.4795C622.778 77.5581 622.243 76.4334 621.85 75.1054C621.471 73.7639 621.281 72.2394 621.281 70.532C621.281 68.9601 621.498 67.5034 621.932 66.1619C622.365 64.8068 622.975 63.6415 623.761 62.6658C624.56 61.6766 625.516 60.9042 626.627 60.3486C627.738 59.793 628.964 59.5153 630.306 59.5153C631.403 59.5153 632.325 59.6711 633.07 59.9828C633.816 60.2944 634.493 60.7145 635.103 61.243V50.5718H641.404ZM659.056 64.5358C658.893 64.7933 658.717 64.9762 658.527 65.0846C658.351 65.193 658.121 65.2472 657.836 65.2472C657.538 65.2472 657.24 65.1862 656.942 65.0643C656.644 64.9288 656.319 64.7865 655.966 64.6374C655.628 64.4884 655.241 64.3529 654.808 64.2309C654.374 64.0954 653.88 64.0277 653.324 64.0277C652.524 64.0277 651.908 64.1835 651.474 64.4952C651.054 64.7933 650.844 65.2134 650.844 65.7554C650.844 66.1484 650.98 66.4736 651.251 66.731C651.535 66.9885 651.908 67.2189 652.369 67.4221C652.829 67.6118 653.351 67.7948 653.934 67.9709C654.516 68.1471 655.113 68.3436 655.722 68.5604C656.332 68.7772 656.928 69.0347 657.511 69.3328C658.094 69.6173 658.616 69.9764 659.076 70.4101C659.537 70.8301 659.903 71.3451 660.174 71.9549C660.458 72.5646 660.601 73.2964 660.601 74.1501C660.601 75.1935 660.411 76.1556 660.032 77.0364C659.652 77.9172 659.083 78.676 658.324 79.3129C657.579 79.9498 656.651 80.4444 655.54 80.7967C654.442 81.149 653.175 81.3252 651.739 81.3252C651.02 81.3252 650.302 81.2574 649.584 81.1219C648.866 80.9864 648.168 80.8035 647.49 80.5731C646.826 80.3428 646.21 80.0718 645.641 79.7601C645.072 79.4349 644.584 79.0893 644.177 78.7235L645.641 76.4063C645.803 76.1353 646.007 75.9252 646.25 75.7762C646.508 75.6136 646.833 75.5323 647.226 75.5323C647.592 75.5323 647.917 75.6136 648.202 75.7762C648.5 75.9388 648.818 76.1149 649.157 76.3046C649.496 76.4944 649.889 76.6705 650.336 76.8331C650.797 76.9957 651.373 77.077 652.064 77.077C652.552 77.077 652.965 77.0296 653.304 76.9348C653.642 76.8264 653.913 76.6841 654.117 76.5079C654.32 76.3317 654.469 76.1353 654.564 75.9185C654.659 75.7016 654.706 75.4781 654.706 75.2477C654.706 74.8276 654.564 74.4821 654.279 74.2111C653.995 73.94 653.622 73.7097 653.161 73.52C652.701 73.3167 652.172 73.1338 651.576 72.9712C650.993 72.795 650.397 72.5985 649.787 72.3817C649.177 72.1649 648.574 71.9074 647.978 71.6093C647.396 71.2976 646.874 70.9114 646.413 70.4507C645.952 69.9764 645.58 69.4005 645.295 68.723C645.011 68.0455 644.868 67.2256 644.868 66.2635C644.868 65.3692 645.038 64.5223 645.376 63.7228C645.729 62.9097 646.25 62.1983 646.942 61.5885C647.633 60.9787 648.5 60.4977 649.543 60.1454C650.587 59.7795 651.806 59.5966 653.202 59.5966C653.961 59.5966 654.693 59.6643 655.397 59.7998C656.115 59.9353 656.786 60.125 657.41 60.369C658.033 60.6129 658.602 60.9042 659.117 61.243C659.632 61.5682 660.086 61.9273 660.479 62.3203L659.056 64.5358Z" fill="black"/>
<path d="M474.156 50.4772H461.717V63.5875H457.296V50.4772H444.917V46.3611H457.296V33.3423H461.717V46.3611H474.156V50.4772Z" fill="#1696D2"/>
<path d="M771.343 22.4465C771.343 24.6281 770.997 26.6337 770.306 28.463C769.615 30.2788 768.639 31.8439 767.379 33.1583C766.119 34.4728 764.601 35.4959 762.826 36.2276C761.064 36.9458 759.113 37.3049 756.972 37.3049C754.831 37.3049 752.88 36.9458 751.118 36.2276C749.356 35.4959 747.846 34.4728 746.585 33.1583C745.325 31.8439 744.349 30.2788 743.658 28.463C742.967 26.6337 742.622 24.6281 742.622 22.4465C742.622 20.2648 742.967 18.2661 743.658 16.4503C744.349 14.6209 745.325 13.049 746.585 11.7346C747.846 10.4066 749.356 9.37676 751.118 8.64502C752.88 7.91328 754.831 7.54741 756.972 7.54741C759.113 7.54741 761.064 7.91328 762.826 8.64502C764.601 9.37676 766.119 10.4066 767.379 11.7346C768.639 13.049 769.615 14.6209 770.306 16.4503C770.997 18.2661 771.343 20.2648 771.343 22.4465ZM767.298 22.4465C767.298 20.6578 767.054 19.052 766.566 17.6292C766.078 16.2063 765.387 15.0071 764.493 14.0314C763.598 13.0422 762.514 12.2834 761.24 11.7549C759.967 11.2264 758.544 10.9622 756.972 10.9622C755.414 10.9622 753.998 11.2264 752.724 11.7549C751.45 12.2834 750.359 13.0422 749.451 14.0314C748.557 15.0071 747.866 16.2063 747.378 17.6292C746.89 19.052 746.646 20.6578 746.646 22.4465C746.646 24.2352 746.89 25.8409 747.378 27.2638C747.866 28.673 748.557 29.8723 749.451 30.8615C750.359 31.8371 751.45 32.5892 752.724 33.1177C753.998 33.6326 755.414 33.8901 756.972 33.8901C758.544 33.8901 759.967 33.6326 761.24 33.1177C762.514 32.5892 763.598 31.8371 764.493 30.8615C765.387 29.8723 766.078 28.673 766.566 27.2638C767.054 25.8409 767.298 24.2352 767.298 22.4465ZM792.745 16.4096V37H790.59C790.075 37 789.75 36.7493 789.614 36.2479L789.33 34.0324C788.436 35.0216 787.433 35.8211 786.322 36.4309C785.21 37.0271 783.937 37.3252 782.5 37.3252C781.376 37.3252 780.38 37.1423 779.512 36.7764C778.659 36.397 777.94 35.8685 777.358 35.191C776.775 34.5134 776.335 33.6936 776.037 32.7315C775.752 31.7694 775.61 30.7057 775.61 29.5403V16.4096H779.228V29.5403C779.228 31.0986 779.58 32.3046 780.285 33.1583C781.003 34.012 782.094 34.4389 783.557 34.4389C784.628 34.4389 785.624 34.1882 786.545 33.6868C787.48 33.1719 788.341 32.4673 789.127 31.5729V16.4096H792.745ZM801.917 20.5358C802.567 19.1265 803.366 18.0289 804.315 17.243C805.264 16.4435 806.422 16.0437 807.791 16.0437C808.224 16.0437 808.638 16.0912 809.031 16.186C809.437 16.2809 809.796 16.4299 810.108 16.6332L809.844 19.3366C809.762 19.6753 809.559 19.8447 809.234 19.8447C809.044 19.8447 808.766 19.8041 808.401 19.7228C808.035 19.6415 807.621 19.6008 807.161 19.6008C806.51 19.6008 805.928 19.6957 805.413 19.8854C804.911 20.0751 804.457 20.3597 804.051 20.7391C803.658 21.1049 803.299 21.5657 802.974 22.1213C802.662 22.6633 802.377 23.2866 802.12 23.9913V37H798.481V16.4096H800.555C800.948 16.4096 801.219 16.4841 801.368 16.6332C801.517 16.7823 801.618 17.0397 801.673 17.4056L801.917 20.5358ZM772.643 66.1822C772.643 68.3232 772.271 70.3152 771.525 72.1581C770.794 74.001 769.757 75.6068 768.416 76.9754C767.074 78.3305 765.455 79.3942 763.558 80.1666C761.674 80.939 759.58 81.3252 757.277 81.3252C754.973 81.3252 752.873 80.939 750.976 80.1666C749.079 79.3942 747.453 78.3305 746.097 76.9754C744.756 75.6068 743.713 74.001 742.967 72.1581C742.236 70.3152 741.87 68.3232 741.87 66.1822C741.87 64.0412 742.236 62.0492 742.967 60.2063C743.713 58.3634 744.756 56.7645 746.097 55.4094C747.453 54.0543 749.079 52.9906 750.976 52.2182C752.873 51.4458 754.973 51.0596 757.277 51.0596C759.58 51.0596 761.674 51.4526 763.558 52.2385C765.455 53.0109 767.074 54.0746 768.416 55.4297C769.757 56.7848 770.794 58.3838 771.525 60.2267C772.271 62.0696 772.643 64.0548 772.643 66.1822ZM765.611 66.1822C765.611 64.7187 765.421 63.4043 765.041 62.239C764.662 61.06 764.113 60.0641 763.395 59.251C762.69 58.438 761.823 57.8146 760.793 57.381C759.763 56.9474 758.591 56.7306 757.277 56.7306C755.949 56.7306 754.763 56.9474 753.72 57.381C752.69 57.8146 751.816 58.438 751.098 59.251C750.393 60.0641 749.851 61.06 749.472 62.239C749.092 63.4043 748.902 64.7187 748.902 66.1822C748.902 67.6593 749.092 68.9872 749.472 70.1662C749.851 71.3315 750.393 72.3207 751.098 73.1338C751.816 73.9468 752.69 74.5701 753.72 75.0038C754.763 75.4238 755.949 75.6339 757.277 75.6339C758.591 75.6339 759.763 75.4238 760.793 75.0038C761.823 74.5701 762.69 73.9468 763.395 73.1338C764.113 72.3207 764.662 71.3315 765.041 70.1662C765.421 68.9872 765.611 67.6593 765.611 66.1822ZM794.62 59.9218V81H790.717C789.931 81 789.416 80.6477 789.172 79.943L788.807 78.7235C788.4 79.1164 787.98 79.4755 787.546 79.8007C787.113 80.1124 786.645 80.3834 786.144 80.6138C785.656 80.8306 785.121 81 784.538 81.1219C783.969 81.2574 783.346 81.3252 782.668 81.3252C781.516 81.3252 780.493 81.1287 779.599 80.7357C778.718 80.3292 777.973 79.7669 777.363 79.0487C776.753 78.3305 776.292 77.4836 775.981 76.5079C775.669 75.5323 775.513 74.4617 775.513 73.2964V59.9218H781.814V73.2964C781.814 74.3398 782.051 75.1461 782.526 75.7152C783 76.2843 783.698 76.5689 784.619 76.5689C785.31 76.5689 785.954 76.4266 786.55 76.142C787.16 75.8439 787.75 75.4442 788.319 74.9428V59.9218H794.62ZM806.442 81.3252C805.439 81.3252 804.552 81.1829 803.779 80.8984C803.02 80.6002 802.377 80.1869 801.848 79.6585C801.333 79.1164 800.94 78.466 800.669 77.7072C800.398 76.9483 800.263 76.1014 800.263 75.1664V64.2716H798.474C798.149 64.2716 797.871 64.1699 797.641 63.9667C797.41 63.7499 797.295 63.4382 797.295 63.0317V60.5722L800.649 59.9218L801.889 54.7793C802.052 54.1288 802.512 53.8036 803.271 53.8036H806.564V59.9624H811.788V64.2716H806.564V74.7395C806.564 75.2274 806.679 75.6339 806.909 75.9591C807.153 76.2708 807.499 76.4266 807.946 76.4266C808.176 76.4266 808.366 76.4063 808.515 76.3656C808.678 76.3114 808.813 76.2572 808.922 76.203C809.044 76.1353 809.152 76.0811 809.247 76.0404C809.355 75.9862 809.477 75.9591 809.613 75.9591C809.803 75.9591 809.952 76.0065 810.06 76.1014C810.182 76.1827 810.304 76.3182 810.426 76.5079L812.337 79.4959C811.524 80.1056 810.609 80.5664 809.593 80.878C808.576 81.1761 807.526 81.3252 806.442 81.3252ZM829.793 64.922C829.603 65.1524 829.42 65.3353 829.244 65.4708C829.068 65.6063 828.817 65.6741 828.492 65.6741C828.18 65.6741 827.896 65.5995 827.638 65.4505C827.394 65.3014 827.117 65.1388 826.805 64.9627C826.493 64.773 826.127 64.6036 825.707 64.4545C825.287 64.3054 824.766 64.2309 824.142 64.2309C823.37 64.2309 822.699 64.3732 822.13 64.6578C821.574 64.9423 821.114 65.3489 820.748 65.8773C820.382 66.4058 820.111 67.0563 819.935 67.8286C819.759 68.5875 819.67 69.448 819.67 70.4101C819.67 72.4291 820.057 73.9807 820.829 75.0648C821.615 76.1488 822.692 76.6908 824.061 76.6908C824.793 76.6908 825.369 76.6028 825.789 76.4266C826.222 76.2369 826.588 76.0336 826.886 75.8168C827.184 75.5865 827.455 75.3764 827.699 75.1867C827.957 74.997 828.275 74.9021 828.655 74.9021C829.156 74.9021 829.535 75.0851 829.793 75.4509L831.622 77.7072C830.972 78.4524 830.288 79.0622 829.569 79.5365C828.851 79.9972 828.113 80.3631 827.354 80.6341C826.608 80.8916 825.856 81.0677 825.098 81.1626C824.339 81.271 823.6 81.3252 822.882 81.3252C821.595 81.3252 820.362 81.0813 819.183 80.5935C818.017 80.1056 816.987 79.401 816.093 78.4795C815.212 77.5445 814.508 76.3995 813.979 75.0444C813.464 73.6894 813.207 72.1446 813.207 70.4101C813.207 68.8924 813.43 67.4763 813.878 66.1619C814.338 64.8339 815.009 63.6889 815.89 62.7268C816.784 61.7511 817.882 60.9855 819.183 60.4299C820.497 59.8744 822.015 59.5966 823.736 59.5966C825.389 59.5966 826.839 59.8608 828.086 60.3893C829.332 60.9178 830.457 61.6902 831.46 62.7065L829.793 64.922ZM843.433 59.5966C845.032 59.5966 846.489 59.8472 847.803 60.3486C849.118 60.85 850.243 61.5682 851.178 62.5032C852.126 63.4382 852.858 64.5765 853.373 65.918C853.901 67.246 854.166 68.7433 854.166 70.4101C854.166 72.0904 853.901 73.608 853.373 74.9631C852.858 76.3046 852.126 77.4497 851.178 78.3982C850.243 79.3332 849.118 80.0582 847.803 80.5731C846.489 81.0745 845.032 81.3252 843.433 81.3252C841.821 81.3252 840.351 81.0745 839.023 80.5731C837.708 80.0582 836.57 79.3332 835.608 78.3982C834.659 77.4497 833.921 76.3046 833.392 74.9631C832.877 73.608 832.62 72.0904 832.62 70.4101C832.62 68.7433 832.877 67.246 833.392 65.918C833.921 64.5765 834.659 63.4382 835.608 62.5032C836.57 61.5682 837.708 60.85 839.023 60.3486C840.351 59.8472 841.821 59.5966 843.433 59.5966ZM843.433 76.6502C844.883 76.6502 845.947 76.142 846.625 75.1257C847.316 74.0959 847.661 72.5375 847.661 70.4507C847.661 68.3639 847.316 66.8123 846.625 65.796C845.947 64.7797 844.883 64.2716 843.433 64.2716C841.943 64.2716 840.852 64.7797 840.161 65.796C839.47 66.8123 839.124 68.3639 839.124 70.4507C839.124 72.5375 839.47 74.0959 840.161 75.1257C840.852 76.142 841.943 76.6502 843.433 76.6502ZM857.339 81V59.9218H861.241C862.027 59.9218 862.542 60.2741 862.786 60.9787L863.132 62.117C863.484 61.7511 863.85 61.4191 864.229 61.121C864.609 60.8094 865.015 60.5451 865.449 60.3283C865.896 60.0979 866.37 59.9218 866.872 59.7998C867.387 59.6643 867.949 59.5966 868.559 59.5966C869.832 59.5966 870.883 59.9286 871.709 60.5925C872.549 61.243 873.186 62.117 873.62 63.2146C873.972 62.5642 874.399 62.0086 874.9 61.5479C875.415 61.0871 875.964 60.7145 876.547 60.4299C877.143 60.1454 877.766 59.9353 878.417 59.7998C879.081 59.6643 879.738 59.5966 880.388 59.5966C881.594 59.5966 882.665 59.7795 883.6 60.1454C884.535 60.4977 885.314 61.0194 885.937 61.7105C886.574 62.388 887.055 63.2282 887.381 64.2309C887.706 65.2201 887.868 66.3448 887.868 67.6051V81H881.567V67.6051C881.567 65.4234 880.632 64.3326 878.762 64.3326C877.909 64.3326 877.197 64.6171 876.628 65.1862C876.073 65.7418 875.795 66.5481 875.795 67.6051V81H869.494V67.6051C869.494 66.399 869.257 65.5521 868.782 65.0643C868.308 64.5765 867.61 64.3326 866.689 64.3326C866.12 64.3326 865.577 64.4613 865.063 64.7187C864.561 64.9762 864.087 65.3218 863.64 65.7554V81H857.339ZM905.027 67.9303C905.027 67.4289 904.959 66.9411 904.824 66.4668C904.702 65.9925 904.492 65.5724 904.194 65.2066C903.909 64.8272 903.53 64.5223 903.056 64.2919C902.581 64.0615 902.005 63.9464 901.328 63.9464C900.135 63.9464 899.2 64.2919 898.523 64.983C897.845 65.6605 897.398 66.643 897.181 67.9303H905.027ZM897.1 71.589C897.303 73.3506 897.839 74.6311 898.706 75.4306C899.573 76.2166 900.691 76.6095 902.06 76.6095C902.791 76.6095 903.421 76.5215 903.95 76.3453C904.478 76.1691 904.946 75.9727 905.352 75.7558C905.773 75.539 906.152 75.3425 906.491 75.1664C906.843 74.9902 907.209 74.9021 907.588 74.9021C908.09 74.9021 908.469 75.0851 908.727 75.4509L910.556 77.7072C909.906 78.4524 909.201 79.0622 908.442 79.5365C907.697 79.9972 906.924 80.3631 906.125 80.6341C905.339 80.8916 904.546 81.0677 903.747 81.1626C902.961 81.271 902.209 81.3252 901.49 81.3252C900.013 81.3252 898.625 81.0881 897.324 80.6138C896.036 80.126 894.905 79.4078 893.929 78.4592C892.967 77.5107 892.201 76.3317 891.632 74.9225C891.077 73.5132 890.799 71.8735 890.799 70.0035C890.799 68.5943 891.036 67.2595 891.51 65.9993C891.998 64.7391 892.689 63.6347 893.584 62.6861C894.492 61.7376 895.582 60.9855 896.856 60.4299C898.143 59.8744 899.593 59.5966 901.206 59.5966C902.602 59.5966 903.875 59.8134 905.027 60.247C906.193 60.6806 907.189 61.3107 908.015 62.1373C908.855 62.9639 909.506 63.9802 909.966 65.1862C910.441 66.3787 910.678 67.7338 910.678 69.2515C910.678 69.7258 910.658 70.1119 910.617 70.4101C910.576 70.7082 910.502 70.9453 910.393 71.1215C910.285 71.2976 910.136 71.4196 909.946 71.4874C909.77 71.5551 909.54 71.589 909.255 71.589H897.1ZM927.226 64.5358C927.063 64.7933 926.887 64.9762 926.697 65.0846C926.521 65.193 926.291 65.2472 926.006 65.2472C925.708 65.2472 925.41 65.1862 925.112 65.0643C924.814 64.9288 924.489 64.7865 924.136 64.6374C923.798 64.4884 923.411 64.3529 922.978 64.2309C922.544 64.0954 922.05 64.0277 921.494 64.0277C920.694 64.0277 920.078 64.1835 919.644 64.4952C919.224 64.7933 919.014 65.2134 919.014 65.7554C919.014 66.1484 919.15 66.4736 919.421 66.731C919.705 66.9885 920.078 67.2189 920.539 67.4221C920.999 67.6118 921.521 67.7948 922.104 67.9709C922.686 68.1471 923.283 68.3436 923.892 68.5604C924.502 68.7772 925.098 69.0347 925.681 69.3328C926.264 69.6173 926.786 69.9764 927.246 70.4101C927.707 70.8301 928.073 71.3451 928.344 71.9549C928.628 72.5646 928.771 73.2964 928.771 74.1501C928.771 75.1935 928.581 76.1556 928.202 77.0364C927.822 77.9172 927.253 78.676 926.494 79.3129C925.749 79.9498 924.821 80.4444 923.709 80.7967C922.612 81.149 921.345 81.3252 919.909 81.3252C919.19 81.3252 918.472 81.2574 917.754 81.1219C917.036 80.9864 916.338 80.8035 915.66 80.5731C914.996 80.3428 914.38 80.0718 913.811 79.7601C913.242 79.4349 912.754 79.0893 912.347 78.7235L913.811 76.4063C913.973 76.1353 914.177 75.9252 914.42 75.7762C914.678 75.6136 915.003 75.5323 915.396 75.5323C915.762 75.5323 916.087 75.6136 916.372 75.7762C916.67 75.9388 916.988 76.1149 917.327 76.3046C917.666 76.4944 918.059 76.6705 918.506 76.8331C918.967 76.9957 919.543 77.077 920.234 77.077C920.722 77.077 921.135 77.0296 921.474 76.9348C921.812 76.8264 922.083 76.6841 922.287 76.5079C922.49 76.3317 922.639 76.1353 922.734 75.9185C922.829 75.7016 922.876 75.4781 922.876 75.2477C922.876 74.8276 922.734 74.4821 922.449 74.2111C922.165 73.94 921.792 73.7097 921.331 73.52C920.871 73.3167 920.342 73.1338 919.746 72.9712C919.163 72.795 918.567 72.5985 917.957 72.3817C917.347 72.1649 916.744 71.9074 916.148 71.6093C915.565 71.2976 915.044 70.9114 914.583 70.4507C914.122 69.9764 913.75 69.4005 913.465 68.723C913.181 68.0455 913.038 67.2256 913.038 66.2635C913.038 65.3692 913.208 64.5223 913.546 63.7228C913.899 62.9097 914.42 62.1983 915.112 61.5885C915.803 60.9787 916.67 60.4977 917.713 60.1454C918.757 59.7795 919.976 59.5966 921.372 59.5966C922.131 59.5966 922.863 59.6643 923.567 59.7998C924.285 59.9353 924.956 60.125 925.579 60.369C926.203 60.6129 926.772 60.9042 927.287 61.243C927.802 61.5682 928.256 61.9273 928.649 62.3203L927.226 64.5358Z" fill="#1696D2"/>
<path d="M691.202 51.3004H717.605V55.8128H691.202V51.3004ZM691.202 40.9341H717.605V45.4465H691.202V40.9341Z" fill="#1696D2"/>
</svg>
