<svg width="160" height="106" viewBox="0 0 160 106" fill="none" xmlns="http://www.w3.org/2000/svg">
<path d="M80 25.7916C73.1032 25.7916 67.4595 31.4354 67.4595 38.3321C67.4595 45.2289 73.1032 50.8727 80 50.8727C86.8968 50.8727 92.5405 45.2289 92.5405 38.3321C92.5405 31.4354 86.8968 25.7916 80 25.7916ZM80 45.5011C76.0595 45.5011 72.8345 42.2761 72.8345 38.3356C72.8345 34.3951 76.0595 31.1701 80 31.1701C83.9405 31.1701 87.1655 34.3951 87.1655 38.3356C87.1655 42.2761 83.9405 45.5011 80 45.5011Z" fill="#1696D2"/>
<path d="M111.265 41.3791C110.19 24.6263 96.3933 11.4572 80 11.4572C63.6067 11.4572 49.8097 24.6255 48.7347 41.3791C48.1972 48.8134 50.6159 56.4291 55.3627 62.7888L77.8474 92.7985C78.3849 93.5141 79.1912 93.8735 79.9974 93.8735C80.8037 93.8735 81.6099 93.5141 82.1474 92.7985L104.632 62.7888C109.473 56.4296 111.804 48.8138 111.267 41.3791H111.265ZM100.334 59.5638L79.9991 86.7072L59.6644 59.5638C55.6332 54.1888 53.6612 47.9169 54.1114 41.736C54.9143 29.4638 64.858 16.833 79.9991 16.833C95.1403 16.833 105.084 29.4647 105.889 41.736C106.336 47.9206 104.365 54.1888 100.334 59.5638Z" fill="#1696D2"/>
</svg>
