<svg width="160" height="106" viewBox="0 0 160 106" fill="none" xmlns="http://www.w3.org/2000/svg">
<path d="M43.4213 72.3475C51.6557 72.3475 58.3533 65.6496 58.3533 57.4102C58.3533 49.1758 51.6555 42.4781 43.4213 42.4781C35.1869 42.4781 28.4893 49.176 28.4893 57.4155C28.4893 65.6499 35.1872 72.3475 43.4213 72.3475ZM43.4213 48.7635C48.1921 48.7635 52.0724 52.6438 52.0724 57.4146C52.0724 62.1854 48.1921 66.0656 43.4213 66.0656C38.6505 66.0656 34.7703 62.1854 34.7703 57.4146C34.7703 52.6438 38.6505 48.7635 43.4213 48.7635Z" fill="#1696D2"/>
<path d="M26.2864 94.3261C26.2864 87.9095 31.5052 82.6907 37.9218 82.6907H48.9218C49.25 82.6907 49.5781 82.7063 49.901 82.7324C50.8125 82.8105 51.7135 82.5032 52.375 81.899C53.0208 81.3053 53.375 80.4927 53.375 79.6178C53.375 78.0137 52.1458 76.6386 50.5781 76.4875C50.0312 76.4355 49.4791 76.4094 48.9166 76.4094H37.9166C28.0417 76.4042 19.9993 84.4458 19.9993 94.3268V95.6184H26.2857L26.2864 94.3261Z" fill="#1696D2"/>
<path d="M54.4946 95.6181H60.781V87.8786C60.781 80.6234 66.6821 74.7223 73.9373 74.7223H86.0676C93.3228 74.7223 99.2238 80.6234 99.2238 87.8786V95.6181H105.51V87.8786C105.51 81.316 102.213 75.2379 96.6977 71.6185C93.5258 69.5352 89.8488 68.4363 86.0726 68.4363H73.9424C67.9372 68.4363 62.359 71.1707 58.6357 75.9363C55.9326 79.3947 54.5054 83.5248 54.5054 87.8789L54.4946 95.6181Z" fill="#1696D2"/>
<path d="M122.079 76.4048H111.079C110.771 76.4048 110.464 76.4152 110.162 76.4308C108.469 76.5246 107.141 77.9048 107.141 79.5819C107.141 80.4465 107.501 81.2798 108.126 81.8683C108.756 82.462 109.584 82.7589 110.438 82.712C110.652 82.6964 110.865 82.6912 111.079 82.6912H122.079C128.495 82.6912 133.714 87.91 133.714 94.3267V95.6183H140.001V94.3267C140.001 84.4464 131.958 76.4048 122.079 76.4048Z" fill="#1696D2"/>
<path d="M116.579 72.3475C124.813 72.3475 131.516 65.6496 131.516 57.4102C131.516 49.1758 124.818 42.4781 116.579 42.4781C108.339 42.4781 101.641 49.176 101.641 57.4155C101.641 65.6499 108.344 72.3475 116.579 72.3475ZM116.579 48.7635C121.349 48.7635 125.23 52.6438 125.23 57.4146C125.23 62.1854 121.349 66.0656 116.579 66.0656C111.808 66.0656 107.928 62.1854 107.928 57.4146C107.928 52.6438 111.808 48.7635 116.579 48.7635Z" fill="#1696D2"/>
<path d="M80 65.9675C90.3593 65.9675 98.7866 57.5404 98.7866 47.1808C98.7866 36.8215 90.3596 28.3942 80 28.3942C69.6404 28.3942 61.2133 36.8212 61.2133 47.1808C61.2133 57.535 69.6404 65.9675 80 65.9675ZM80 34.6755C86.8959 34.6755 92.5052 40.2848 92.5052 47.1807C92.5052 54.0766 86.8959 59.6859 80 59.6859C73.1041 59.6859 67.4948 54.0766 67.4948 47.1807C67.4948 40.2848 73.1041 34.6755 80 34.6755Z" fill="#1696D2"/>
</svg>
