<svg width="227" height="90" viewBox="0 0 227 90" fill="none" xmlns="http://www.w3.org/2000/svg">
<path d="M66.612 19.544C66.612 21.2613 66.34 22.84 65.796 24.28C65.252 25.7093 64.484 26.9413 63.492 27.976C62.5 29.0107 61.3053 29.816 59.908 30.392C58.5213 30.9573 56.9853 31.24 55.3 31.24C53.6147 31.24 52.0787 30.9573 50.692 30.392C49.3053 29.816 48.116 29.0107 47.124 27.976C46.132 26.9413 45.364 25.7093 44.82 24.28C44.276 22.84 44.004 21.2613 44.004 19.544C44.004 17.8267 44.276 16.2533 44.82 14.824C45.364 13.384 46.132 12.1467 47.124 11.112C48.116 10.0667 49.3053 9.256 50.692 8.68C52.0787 8.104 53.6147 7.816 55.3 7.816C56.9853 7.816 58.5213 8.104 59.908 8.68C61.3053 9.256 62.5 10.0667 63.492 11.112C64.484 12.1467 65.252 13.384 65.796 14.824C66.34 16.2533 66.612 17.8267 66.612 19.544ZM63.428 19.544C63.428 18.136 63.236 16.872 62.852 15.752C62.468 14.632 61.924 13.688 61.22 12.92C60.516 12.1413 59.6627 11.544 58.66 11.128C57.6573 10.712 56.5373 10.504 55.3 10.504C54.0733 10.504 52.9587 10.712 51.956 11.128C50.9533 11.544 50.0947 12.1413 49.38 12.92C48.676 13.688 48.132 14.632 47.748 15.752C47.364 16.872 47.172 18.136 47.172 19.544C47.172 20.952 47.364 22.216 47.748 23.336C48.132 24.4453 48.676 25.3893 49.38 26.168C50.0947 26.936 50.9533 27.528 51.956 27.944C52.9587 28.3493 54.0733 28.552 55.3 28.552C56.5373 28.552 57.6573 28.3493 58.66 27.944C59.6627 27.528 60.516 26.936 61.22 26.168C61.924 25.3893 62.468 24.4453 62.852 23.336C63.236 22.216 63.428 20.952 63.428 19.544ZM83.459 14.792V31H81.763C81.3577 31 81.1017 30.8027 80.995 30.408L80.771 28.664C80.067 29.4427 79.2777 30.072 78.403 30.552C77.5283 31.0213 76.5257 31.256 75.395 31.256C74.5097 31.256 73.7257 31.112 73.043 30.824C72.371 30.5253 71.8057 30.1093 71.347 29.576C70.8883 29.0427 70.5417 28.3973 70.307 27.64C70.083 26.8827 69.971 26.0453 69.971 25.128V14.792H72.819V25.128C72.819 26.3547 73.0963 27.304 73.651 27.976C74.2163 28.648 75.075 28.984 76.227 28.984C77.0697 28.984 77.8537 28.7867 78.579 28.392C79.315 27.9867 79.9923 27.432 80.611 26.728V14.792H83.459ZM90.6788 18.04C91.1908 16.9307 91.8201 16.0667 92.5668 15.448C93.3134 14.8187 94.2254 14.504 95.3028 14.504C95.6441 14.504 95.9694 14.5413 96.2788 14.616C96.5988 14.6907 96.8814 14.808 97.1268 14.968L96.9188 17.096C96.8548 17.3627 96.6948 17.496 96.4388 17.496C96.2894 17.496 96.0708 17.464 95.7828 17.4C95.4948 17.336 95.1694 17.304 94.8068 17.304C94.2948 17.304 93.8361 17.3787 93.4308 17.528C93.0361 17.6773 92.6788 17.9013 92.3588 18.2C92.0494 18.488 91.7668 18.8507 91.5108 19.288C91.2654 19.7147 91.0414 20.2053 90.8388 20.76V31H87.9748V14.792H89.6068C89.9161 14.792 90.1294 14.8507 90.2468 14.968C90.3641 15.0853 90.4441 15.288 90.4868 15.576L90.6788 18.04Z" fill="#1696D2"/>
<path d="M67.636 57.336C67.636 59.0213 67.3427 60.5893 66.756 62.04C66.18 63.4907 65.364 64.7547 64.308 65.832C63.252 66.8987 61.9773 67.736 60.484 68.344C59.0013 68.952 57.3533 69.256 55.54 69.256C53.7267 69.256 52.0733 68.952 50.58 68.344C49.0867 67.736 47.8067 66.8987 46.74 65.832C45.684 64.7547 44.8627 63.4907 44.276 62.04C43.7 60.5893 43.412 59.0213 43.412 57.336C43.412 55.6507 43.7 54.0827 44.276 52.632C44.8627 51.1813 45.684 49.9227 46.74 48.856C47.8067 47.7893 49.0867 46.952 50.58 46.344C52.0733 45.736 53.7267 45.432 55.54 45.432C57.3533 45.432 59.0013 45.7413 60.484 46.36C61.9773 46.968 63.252 47.8053 64.308 48.872C65.364 49.9387 66.18 51.1973 66.756 52.648C67.3427 54.0987 67.636 55.6613 67.636 57.336ZM62.1 57.336C62.1 56.184 61.9507 55.1493 61.652 54.232C61.3533 53.304 60.9213 52.52 60.356 51.88C59.8013 51.24 59.1187 50.7493 58.308 50.408C57.4973 50.0667 56.5747 49.896 55.54 49.896C54.4947 49.896 53.5613 50.0667 52.74 50.408C51.9293 50.7493 51.2413 51.24 50.676 51.88C50.1213 52.52 49.6947 53.304 49.396 54.232C49.0973 55.1493 48.948 56.184 48.948 57.336C48.948 58.4987 49.0973 59.544 49.396 60.472C49.6947 61.3893 50.1213 62.168 50.676 62.808C51.2413 63.448 51.9293 63.9387 52.74 64.28C53.5613 64.6107 54.4947 64.776 55.54 64.776C56.5747 64.776 57.4973 64.6107 58.308 64.28C59.1187 63.9387 59.8013 63.448 60.356 62.808C60.9213 62.168 61.3533 61.3893 61.652 60.472C61.9507 59.544 62.1 58.4987 62.1 57.336ZM84.935 52.408V69H81.863C81.2443 69 80.839 68.7227 80.647 68.168L80.359 67.208C80.039 67.5173 79.7083 67.8 79.367 68.056C79.0257 68.3013 78.6577 68.5147 78.263 68.696C77.879 68.8667 77.4577 69 76.999 69.096C76.551 69.2027 76.0603 69.256 75.527 69.256C74.6203 69.256 73.815 69.1013 73.111 68.792C72.4177 68.472 71.831 68.0293 71.351 67.464C70.871 66.8987 70.5083 66.232 70.263 65.464C70.0177 64.696 69.895 63.8533 69.895 62.936V52.408H74.855V62.936C74.855 63.7573 75.0417 64.392 75.415 64.84C75.7883 65.288 76.3377 65.512 77.063 65.512C77.607 65.512 78.1137 65.4 78.583 65.176C79.063 64.9413 79.527 64.6267 79.975 64.232V52.408H84.935ZM94.241 69.256C93.4517 69.256 92.753 69.144 92.145 68.92C91.5477 68.6853 91.041 68.36 90.625 67.944C90.2197 67.5173 89.9103 67.0053 89.697 66.408C89.4837 65.8107 89.377 65.144 89.377 64.408V55.832H87.969C87.713 55.832 87.4943 55.752 87.313 55.592C87.1317 55.4213 87.041 55.176 87.041 54.856V52.92L89.681 52.408L90.657 48.36C90.785 47.848 91.1477 47.592 91.745 47.592H94.337V52.44H98.449V55.832H94.337V64.072C94.337 64.456 94.4277 64.776 94.609 65.032C94.801 65.2773 95.073 65.4 95.425 65.4C95.6063 65.4 95.7557 65.384 95.873 65.352C96.001 65.3093 96.1077 65.2667 96.193 65.224C96.289 65.1707 96.3743 65.128 96.449 65.096C96.5343 65.0533 96.6303 65.032 96.737 65.032C96.8863 65.032 97.0037 65.0693 97.089 65.144C97.185 65.208 97.281 65.3147 97.377 65.464L98.881 67.816C98.241 68.296 97.521 68.6587 96.721 68.904C95.921 69.1387 95.0943 69.256 94.241 69.256ZM112.622 56.344C112.473 56.5253 112.329 56.6693 112.19 56.776C112.051 56.8827 111.854 56.936 111.598 56.936C111.353 56.936 111.129 56.8773 110.926 56.76C110.734 56.6427 110.515 56.5147 110.27 56.376C110.025 56.2267 109.737 56.0933 109.406 55.976C109.075 55.8587 108.665 55.8 108.174 55.8C107.566 55.8 107.038 55.912 106.59 56.136C106.153 56.36 105.79 56.68 105.502 57.096C105.214 57.512 105.001 58.024 104.862 58.632C104.723 59.2293 104.654 59.9067 104.654 60.664C104.654 62.2533 104.958 63.4747 105.566 64.328C106.185 65.1813 107.033 65.608 108.11 65.608C108.686 65.608 109.139 65.5387 109.47 65.4C109.811 65.2507 110.099 65.0907 110.334 64.92C110.569 64.7387 110.782 64.5733 110.974 64.424C111.177 64.2747 111.427 64.2 111.726 64.2C112.121 64.2 112.419 64.344 112.622 64.632L114.062 66.408C113.55 66.9947 113.011 67.4747 112.446 67.848C111.881 68.2107 111.299 68.4987 110.702 68.712C110.115 68.9147 109.523 69.0533 108.926 69.128C108.329 69.2133 107.747 69.256 107.182 69.256C106.169 69.256 105.198 69.064 104.27 68.68C103.353 68.296 102.542 67.7413 101.838 67.016C101.145 66.28 100.59 65.3787 100.174 64.312C99.7687 63.2453 99.566 62.0293 99.566 60.664C99.566 59.4693 99.742 58.3547 100.094 57.32C100.457 56.2747 100.985 55.3733 101.678 54.616C102.382 53.848 103.246 53.2453 104.27 52.808C105.305 52.3707 106.499 52.152 107.854 52.152C109.155 52.152 110.297 52.36 111.278 52.776C112.259 53.192 113.145 53.8 113.934 54.6L112.622 56.344ZM123.359 52.152C124.618 52.152 125.765 52.3493 126.799 52.744C127.834 53.1387 128.719 53.704 129.455 54.44C130.202 55.176 130.778 56.072 131.183 57.128C131.599 58.1733 131.807 59.352 131.807 60.664C131.807 61.9867 131.599 63.1813 131.183 64.248C130.778 65.304 130.202 66.2053 129.455 66.952C128.719 67.688 127.834 68.2587 126.799 68.664C125.765 69.0587 124.618 69.256 123.359 69.256C122.09 69.256 120.933 69.0587 119.887 68.664C118.853 68.2587 117.957 67.688 117.199 66.952C116.453 66.2053 115.871 65.304 115.455 64.248C115.05 63.1813 114.847 61.9867 114.847 60.664C114.847 59.352 115.05 58.1733 115.455 57.128C115.871 56.072 116.453 55.176 117.199 54.44C117.957 53.704 118.853 53.1387 119.887 52.744C120.933 52.3493 122.09 52.152 123.359 52.152ZM123.359 65.576C124.501 65.576 125.338 65.176 125.871 64.376C126.415 63.5653 126.687 62.3387 126.687 60.696C126.687 59.0533 126.415 57.832 125.871 57.032C125.338 56.232 124.501 55.832 123.359 55.832C122.186 55.832 121.327 56.232 120.783 57.032C120.239 57.832 119.967 59.0533 119.967 60.696C119.967 62.3387 120.239 63.5653 120.783 64.376C121.327 65.176 122.186 65.576 123.359 65.576ZM134.305 69V52.408H137.377C137.996 52.408 138.401 52.6853 138.593 53.24L138.865 54.136C139.142 53.848 139.43 53.5867 139.729 53.352C140.028 53.1067 140.348 52.8987 140.689 52.728C141.041 52.5467 141.414 52.408 141.809 52.312C142.214 52.2053 142.657 52.152 143.137 52.152C144.14 52.152 144.966 52.4133 145.617 52.936C146.278 53.448 146.78 54.136 147.121 55C147.398 54.488 147.734 54.0507 148.129 53.688C148.534 53.3253 148.966 53.032 149.425 52.808C149.894 52.584 150.385 52.4187 150.897 52.312C151.42 52.2053 151.937 52.152 152.449 52.152C153.398 52.152 154.241 52.296 154.977 52.584C155.713 52.8613 156.326 53.272 156.817 53.816C157.318 54.3493 157.697 55.0107 157.953 55.8C158.209 56.5787 158.337 57.464 158.337 58.456V69H153.377V58.456C153.377 56.7387 152.641 55.88 151.169 55.88C150.497 55.88 149.937 56.104 149.489 56.552C149.052 56.9893 148.833 57.624 148.833 58.456V69H143.873V58.456C143.873 57.5067 143.686 56.84 143.313 56.456C142.94 56.072 142.39 55.88 141.665 55.88C141.217 55.88 140.79 55.9813 140.385 56.184C139.99 56.3867 139.617 56.6587 139.265 57V69H134.305ZM171.844 58.712C171.844 58.3173 171.79 57.9333 171.684 57.56C171.588 57.1867 171.422 56.856 171.188 56.568C170.964 56.2693 170.665 56.0293 170.292 55.848C169.918 55.6667 169.465 55.576 168.932 55.576C167.993 55.576 167.257 55.848 166.724 56.392C166.19 56.9253 165.838 57.6987 165.668 58.712H171.844ZM165.604 61.592C165.764 62.9787 166.185 63.9867 166.868 64.616C167.55 65.2347 168.43 65.544 169.508 65.544C170.084 65.544 170.58 65.4747 170.996 65.336C171.412 65.1973 171.78 65.0427 172.1 64.872C172.43 64.7013 172.729 64.5467 172.996 64.408C173.273 64.2693 173.561 64.2 173.86 64.2C174.254 64.2 174.553 64.344 174.756 64.632L176.196 66.408C175.684 66.9947 175.129 67.4747 174.532 67.848C173.945 68.2107 173.337 68.4987 172.708 68.712C172.089 68.9147 171.465 69.0533 170.836 69.128C170.217 69.2133 169.625 69.256 169.06 69.256C167.897 69.256 166.804 69.0693 165.78 68.696C164.766 68.312 163.876 67.7467 163.108 67C162.35 66.2533 161.748 65.3253 161.3 64.216C160.862 63.1067 160.644 61.816 160.644 60.344C160.644 59.2347 160.83 58.184 161.204 57.192C161.588 56.2 162.132 55.3307 162.836 54.584C163.55 53.8373 164.409 53.2453 165.412 52.808C166.425 52.3707 167.566 52.152 168.836 52.152C169.934 52.152 170.937 52.3227 171.844 52.664C172.761 53.0053 173.545 53.5013 174.196 54.152C174.857 54.8027 175.369 55.6027 175.732 56.552C176.105 57.4907 176.292 58.5573 176.292 59.752C176.292 60.1253 176.276 60.4293 176.244 60.664C176.212 60.8987 176.153 61.0853 176.068 61.224C175.982 61.3627 175.865 61.4587 175.716 61.512C175.577 61.5653 175.396 61.592 175.172 61.592H165.604ZM189.318 56.04C189.19 56.2427 189.051 56.3867 188.902 56.472C188.763 56.5573 188.582 56.6 188.358 56.6C188.123 56.6 187.888 56.552 187.654 56.456C187.419 56.3493 187.163 56.2373 186.886 56.12C186.619 56.0027 186.315 55.896 185.974 55.8C185.632 55.6933 185.243 55.64 184.806 55.64C184.176 55.64 183.691 55.7627 183.35 56.008C183.019 56.2427 182.854 56.5733 182.854 57C182.854 57.3093 182.96 57.5653 183.174 57.768C183.398 57.9707 183.691 58.152 184.054 58.312C184.416 58.4613 184.827 58.6053 185.286 58.744C185.744 58.8827 186.214 59.0373 186.694 59.208C187.174 59.3787 187.643 59.5813 188.102 59.816C188.56 60.04 188.971 60.3227 189.334 60.664C189.696 60.9947 189.984 61.4 190.198 61.88C190.422 62.36 190.534 62.936 190.534 63.608C190.534 64.4293 190.384 65.1867 190.086 65.88C189.787 66.5733 189.339 67.1707 188.742 67.672C188.155 68.1733 187.424 68.5627 186.55 68.84C185.686 69.1173 184.688 69.256 183.558 69.256C182.992 69.256 182.427 69.2027 181.862 69.096C181.296 68.9893 180.747 68.8453 180.214 68.664C179.691 68.4827 179.206 68.2693 178.758 68.024C178.31 67.768 177.926 67.496 177.606 67.208L178.758 65.384C178.886 65.1707 179.046 65.0053 179.238 64.888C179.44 64.76 179.696 64.696 180.006 64.696C180.294 64.696 180.55 64.76 180.774 64.888C181.008 65.016 181.259 65.1547 181.526 65.304C181.792 65.4533 182.102 65.592 182.454 65.72C182.816 65.848 183.27 65.912 183.814 65.912C184.198 65.912 184.523 65.8747 184.79 65.8C185.056 65.7147 185.27 65.6027 185.43 65.464C185.59 65.3253 185.707 65.1707 185.782 65C185.856 64.8293 185.894 64.6533 185.894 64.472C185.894 64.1413 185.782 63.8693 185.558 63.656C185.334 63.4427 185.04 63.2613 184.678 63.112C184.315 62.952 183.899 62.808 183.43 62.68C182.971 62.5413 182.502 62.3867 182.022 62.216C181.542 62.0453 181.067 61.8427 180.598 61.608C180.139 61.3627 179.728 61.0587 179.366 60.696C179.003 60.3227 178.71 59.8693 178.486 59.336C178.262 58.8027 178.15 58.1573 178.15 57.4C178.15 56.696 178.283 56.0293 178.55 55.4C178.827 54.76 179.238 54.2 179.782 53.72C180.326 53.24 181.008 52.8613 181.83 52.584C182.651 52.296 183.611 52.152 184.71 52.152C185.307 52.152 185.883 52.2053 186.438 52.312C187.003 52.4187 187.531 52.568 188.022 52.76C188.512 52.952 188.96 53.1813 189.366 53.448C189.771 53.704 190.128 53.9867 190.438 54.296L189.318 56.04Z" fill="#1696D2"/>
<path d="M3 42.624H24.84V47.952H3V42.624ZM3 33.816H24.84V39.168H3V33.816Z" fill="black"/>
</svg>
