<svg width="225" height="90" viewBox="0 0 225 90" fill="none" xmlns="http://www.w3.org/2000/svg">
<path d="M24.112 19.544C24.112 21.2613 23.84 22.84 23.296 24.28C22.752 25.7093 21.984 26.9413 20.992 27.976C20 29.0107 18.8053 29.816 17.408 30.392C16.0213 30.9573 14.4853 31.24 12.8 31.24C11.1147 31.24 9.57867 30.9573 8.192 30.392C6.80533 29.816 5.616 29.0107 4.624 27.976C3.632 26.9413 2.864 25.7093 2.32 24.28C1.776 22.84 1.504 21.2613 1.504 19.544C1.504 17.8267 1.776 16.2533 2.32 14.824C2.864 13.384 3.632 12.1467 4.624 11.112C5.616 10.0667 6.80533 9.256 8.192 8.68C9.57867 8.104 11.1147 7.816 12.8 7.816C14.4853 7.816 16.0213 8.104 17.408 8.68C18.8053 9.256 20 10.0667 20.992 11.112C21.984 12.1467 22.752 13.384 23.296 14.824C23.84 16.2533 24.112 17.8267 24.112 19.544ZM20.928 19.544C20.928 18.136 20.736 16.872 20.352 15.752C19.968 14.632 19.424 13.688 18.72 12.92C18.016 12.1413 17.1627 11.544 16.16 11.128C15.1573 10.712 14.0373 10.504 12.8 10.504C11.5733 10.504 10.4587 10.712 9.456 11.128C8.45333 11.544 7.59467 12.1413 6.88 12.92C6.176 13.688 5.632 14.632 5.248 15.752C4.864 16.872 4.672 18.136 4.672 19.544C4.672 20.952 4.864 22.216 5.248 23.336C5.632 24.4453 6.176 25.3893 6.88 26.168C7.59467 26.936 8.45333 27.528 9.456 27.944C10.4587 28.3493 11.5733 28.552 12.8 28.552C14.0373 28.552 15.1573 28.3493 16.16 27.944C17.1627 27.528 18.016 26.936 18.72 26.168C19.424 25.3893 19.968 24.4453 20.352 23.336C20.736 22.216 20.928 20.952 20.928 19.544ZM40.959 14.792V31H39.263C38.8577 31 38.6017 30.8027 38.495 30.408L38.271 28.664C37.567 29.4427 36.7777 30.072 35.903 30.552C35.0283 31.0213 34.0257 31.256 32.895 31.256C32.0097 31.256 31.2257 31.112 30.543 30.824C29.871 30.5253 29.3057 30.1093 28.847 29.576C28.3883 29.0427 28.0417 28.3973 27.807 27.64C27.583 26.8827 27.471 26.0453 27.471 25.128V14.792H30.319V25.128C30.319 26.3547 30.5963 27.304 31.151 27.976C31.7163 28.648 32.575 28.984 33.727 28.984C34.5697 28.984 35.3537 28.7867 36.079 28.392C36.815 27.9867 37.4923 27.432 38.111 26.728V14.792H40.959ZM48.1788 18.04C48.6908 16.9307 49.3201 16.0667 50.0668 15.448C50.8134 14.8187 51.7254 14.504 52.8028 14.504C53.1441 14.504 53.4694 14.5413 53.7788 14.616C54.0988 14.6907 54.3814 14.808 54.6268 14.968L54.4188 17.096C54.3548 17.3627 54.1948 17.496 53.9388 17.496C53.7894 17.496 53.5708 17.464 53.2828 17.4C52.9948 17.336 52.6694 17.304 52.3068 17.304C51.7948 17.304 51.3361 17.3787 50.9308 17.528C50.5361 17.6773 50.1788 17.9013 49.8588 18.2C49.5494 18.488 49.2668 18.8507 49.0108 19.288C48.7654 19.7147 48.5414 20.2053 48.3388 20.76V31H45.4748V14.792H47.1068C47.4161 14.792 47.6294 14.8507 47.7468 14.968C47.8641 15.0853 47.9441 15.288 47.9868 15.576L48.1788 18.04ZM10.48 57.128C11.888 57.128 12.9013 56.792 13.52 56.12C14.1387 55.448 14.448 54.5093 14.448 53.304C14.448 52.7707 14.368 52.2853 14.208 51.848C14.048 51.4107 13.8027 51.0373 13.472 50.728C13.152 50.408 12.7413 50.1627 12.24 49.992C11.7493 49.8213 11.1627 49.736 10.48 49.736H7.664V57.128H10.48ZM10.48 45.688C12.1227 45.688 13.5307 45.8853 14.704 46.28C15.888 46.664 16.8587 47.1973 17.616 47.88C18.384 48.5627 18.9493 49.368 19.312 50.296C19.6747 51.224 19.856 52.2267 19.856 53.304C19.856 54.4667 19.6693 55.5333 19.296 56.504C18.9227 57.4747 18.352 58.3067 17.584 59C16.816 59.6933 15.84 60.2373 14.656 60.632C13.4827 61.016 12.0907 61.208 10.48 61.208H7.664V69H2.256V45.688H10.48ZM26.445 54.968C26.957 54.072 27.5437 53.368 28.205 52.856C28.877 52.344 29.645 52.088 30.509 52.088C31.2557 52.088 31.8637 52.264 32.333 52.616L32.013 56.264C31.9597 56.4987 31.869 56.6587 31.741 56.744C31.6237 56.8293 31.4583 56.872 31.245 56.872C31.1597 56.872 31.0477 56.8667 30.909 56.856C30.7703 56.8453 30.6263 56.8347 30.477 56.824C30.3277 56.8027 30.173 56.7867 30.013 56.776C29.8637 56.7547 29.725 56.744 29.597 56.744C28.8717 56.744 28.2903 56.936 27.853 57.32C27.4263 57.704 27.0637 58.2373 26.765 58.92V69H21.805V52.408H24.749C24.9943 52.408 25.197 52.4293 25.357 52.472C25.5277 52.5147 25.6663 52.584 25.773 52.68C25.8903 52.7653 25.9757 52.8827 26.029 53.032C26.093 53.1813 26.1463 53.3627 26.189 53.576L26.445 54.968ZM39.0958 52.408V69H34.1358V52.408H39.0958ZM39.6078 47.864C39.6078 48.2587 39.5278 48.632 39.3678 48.984C39.2078 49.3253 38.9891 49.6293 38.7118 49.896C38.4344 50.152 38.1091 50.36 37.7358 50.52C37.3731 50.6693 36.9838 50.744 36.5677 50.744C36.1624 50.744 35.7838 50.6693 35.4318 50.52C35.0798 50.36 34.7651 50.152 34.4878 49.896C34.2211 49.6293 34.0078 49.3253 33.8478 48.984C33.6984 48.632 33.6238 48.2587 33.6238 47.864C33.6238 47.4587 33.6984 47.08 33.8478 46.728C34.0078 46.376 34.2211 46.0667 34.4878 45.8C34.7651 45.5333 35.0798 45.3253 35.4318 45.176C35.7838 45.0267 36.1624 44.952 36.5677 44.952C36.9838 44.952 37.3731 45.0267 37.7358 45.176C38.1091 45.3253 38.4344 45.5333 38.7118 45.8C38.9891 46.0667 39.2078 46.376 39.3678 46.728C39.5278 47.08 39.6078 47.4587 39.6078 47.864ZM47.131 54.2C47.451 53.9013 47.7817 53.624 48.123 53.368C48.4643 53.112 48.827 52.8987 49.211 52.728C49.6057 52.5467 50.027 52.408 50.475 52.312C50.9337 52.2053 51.4297 52.152 51.963 52.152C52.8697 52.152 53.6697 52.312 54.363 52.632C55.067 52.9413 55.659 53.3787 56.139 53.944C56.619 54.4987 56.9817 55.1653 57.227 55.944C57.4723 56.712 57.595 57.5493 57.595 58.456V69H52.635V58.456C52.635 57.6453 52.4483 57.016 52.075 56.568C51.7017 56.1093 51.1523 55.88 50.427 55.88C49.883 55.88 49.371 55.9973 48.891 56.232C48.4217 56.456 47.963 56.7653 47.515 57.16V69H42.555V52.408H45.627C46.2457 52.408 46.651 52.6853 46.843 53.24L47.131 54.2ZM72.997 56.344C72.8477 56.5253 72.7037 56.6693 72.565 56.776C72.4263 56.8827 72.229 56.936 71.973 56.936C71.7277 56.936 71.5037 56.8773 71.301 56.76C71.109 56.6427 70.8903 56.5147 70.645 56.376C70.3997 56.2267 70.1117 56.0933 69.781 55.976C69.4503 55.8587 69.0397 55.8 68.549 55.8C67.941 55.8 67.413 55.912 66.965 56.136C66.5277 56.36 66.165 56.68 65.877 57.096C65.589 57.512 65.3757 58.024 65.237 58.632C65.0983 59.2293 65.029 59.9067 65.029 60.664C65.029 62.2533 65.333 63.4747 65.941 64.328C66.5597 65.1813 67.4077 65.608 68.485 65.608C69.061 65.608 69.5143 65.5387 69.845 65.4C70.1863 65.2507 70.4743 65.0907 70.709 64.92C70.9437 64.7387 71.157 64.5733 71.349 64.424C71.5517 64.2747 71.8023 64.2 72.101 64.2C72.4957 64.2 72.7943 64.344 72.997 64.632L74.437 66.408C73.925 66.9947 73.3863 67.4747 72.821 67.848C72.2557 68.2107 71.6743 68.4987 71.077 68.712C70.4903 68.9147 69.8983 69.0533 69.301 69.128C68.7037 69.2133 68.1223 69.256 67.557 69.256C66.5437 69.256 65.573 69.064 64.645 68.68C63.7277 68.296 62.917 67.7413 62.213 67.016C61.5197 66.28 60.965 65.3787 60.549 64.312C60.1437 63.2453 59.941 62.0293 59.941 60.664C59.941 59.4693 60.117 58.3547 60.469 57.32C60.8317 56.2747 61.3597 55.3733 62.053 54.616C62.757 53.848 63.621 53.2453 64.645 52.808C65.6797 52.3707 66.8743 52.152 68.229 52.152C69.5303 52.152 70.6717 52.36 71.653 52.776C72.6343 53.192 73.5197 53.8 74.309 54.6L72.997 56.344ZM81.4395 52.408V69H76.4795V52.408H81.4395ZM81.9515 47.864C81.9515 48.2587 81.8715 48.632 81.7115 48.984C81.5515 49.3253 81.3328 49.6293 81.0555 49.896C80.7782 50.152 80.4528 50.36 80.0795 50.52C79.7168 50.6693 79.3275 50.744 78.9115 50.744C78.5062 50.744 78.1275 50.6693 77.7755 50.52C77.4235 50.36 77.1088 50.152 76.8315 49.896C76.5648 49.6293 76.3515 49.3253 76.1915 48.984C76.0422 48.632 75.9675 48.2587 75.9675 47.864C75.9675 47.4587 76.0422 47.08 76.1915 46.728C76.3515 46.376 76.5648 46.0667 76.8315 45.8C77.1088 45.5333 77.4235 45.3253 77.7755 45.176C78.1275 45.0267 78.5062 44.952 78.9115 44.952C79.3275 44.952 79.7168 45.0267 80.0795 45.176C80.4528 45.3253 80.7782 45.5333 81.0555 45.8C81.3328 46.0667 81.5515 46.376 81.7115 46.728C81.8715 47.08 81.9515 47.4587 81.9515 47.864ZM89.8588 64.488C90.2321 64.8933 90.6374 65.1813 91.0748 65.352C91.5121 65.5227 91.9708 65.608 92.4508 65.608C92.9094 65.608 93.3308 65.5173 93.7148 65.336C94.0988 65.1547 94.4294 64.8667 94.7068 64.472C94.9948 64.0667 95.2188 63.544 95.3788 62.904C95.5388 62.264 95.6188 61.4853 95.6188 60.568C95.6188 59.6933 95.5548 58.9573 95.4268 58.36C95.2988 57.7627 95.1174 57.2827 94.8828 56.92C94.6588 56.5467 94.3868 56.28 94.0668 56.12C93.7468 55.96 93.3894 55.88 92.9948 55.88C92.2694 55.88 91.6721 56.0133 91.2028 56.28C90.7334 56.5467 90.2854 56.936 89.8588 57.448V64.488ZM89.5548 54.456C90.2054 53.7627 90.9414 53.1973 91.7628 52.76C92.5948 52.312 93.5814 52.088 94.7228 52.088C95.5868 52.088 96.3868 52.28 97.1228 52.664C97.8588 53.048 98.4934 53.6027 99.0268 54.328C99.5601 55.0533 99.9761 55.944 100.275 57C100.584 58.0453 100.739 59.2347 100.739 60.568C100.739 61.816 100.563 62.968 100.211 64.024C99.8694 65.08 99.3841 65.9973 98.7548 66.776C98.1361 67.5547 97.3894 68.1627 96.5148 68.6C95.6508 69.0373 94.6908 69.256 93.6348 69.256C92.7708 69.256 92.0454 69.1333 91.4588 68.888C90.8721 68.6427 90.3388 68.312 89.8588 67.896V74.264H84.8988V52.408H87.9708C88.5894 52.408 88.9948 52.6853 89.1868 53.24L89.5548 54.456ZM108.265 45.048V69H103.305V45.048H108.265ZM121.938 58.712C121.938 58.3173 121.884 57.9333 121.778 57.56C121.682 57.1867 121.516 56.856 121.282 56.568C121.058 56.2693 120.759 56.0293 120.386 55.848C120.012 55.6667 119.559 55.576 119.026 55.576C118.087 55.576 117.351 55.848 116.818 56.392C116.284 56.9253 115.932 57.6987 115.762 58.712H121.938ZM115.698 61.592C115.858 62.9787 116.279 63.9867 116.962 64.616C117.644 65.2347 118.524 65.544 119.602 65.544C120.178 65.544 120.674 65.4747 121.09 65.336C121.506 65.1973 121.874 65.0427 122.194 64.872C122.524 64.7013 122.823 64.5467 123.09 64.408C123.367 64.2693 123.655 64.2 123.954 64.2C124.348 64.2 124.647 64.344 124.85 64.632L126.29 66.408C125.778 66.9947 125.223 67.4747 124.626 67.848C124.039 68.2107 123.431 68.4987 122.802 68.712C122.183 68.9147 121.559 69.0533 120.93 69.128C120.311 69.2133 119.719 69.256 119.154 69.256C117.991 69.256 116.898 69.0693 115.874 68.696C114.86 68.312 113.97 67.7467 113.202 67C112.444 66.2533 111.842 65.3253 111.394 64.216C110.956 63.1067 110.738 61.816 110.738 60.344C110.738 59.2347 110.924 58.184 111.298 57.192C111.682 56.2 112.226 55.3307 112.93 54.584C113.644 53.8373 114.503 53.2453 115.506 52.808C116.519 52.3707 117.66 52.152 118.93 52.152C120.028 52.152 121.031 52.3227 121.938 52.664C122.855 53.0053 123.639 53.5013 124.29 54.152C124.951 54.8027 125.463 55.6027 125.826 56.552C126.199 57.4907 126.385 58.5573 126.385 59.752C126.385 60.1253 126.37 60.4293 126.338 60.664C126.306 60.8987 126.247 61.0853 126.162 61.224C126.076 61.3627 125.959 61.4587 125.81 61.512C125.671 61.5653 125.49 61.592 125.266 61.592H115.698ZM139.412 56.04C139.284 56.2427 139.145 56.3867 138.996 56.472C138.857 56.5573 138.676 56.6 138.452 56.6C138.217 56.6 137.982 56.552 137.748 56.456C137.513 56.3493 137.257 56.2373 136.98 56.12C136.713 56.0027 136.409 55.896 136.068 55.8C135.726 55.6933 135.337 55.64 134.9 55.64C134.27 55.64 133.785 55.7627 133.444 56.008C133.113 56.2427 132.948 56.5733 132.948 57C132.948 57.3093 133.054 57.5653 133.268 57.768C133.492 57.9707 133.785 58.152 134.148 58.312C134.51 58.4613 134.921 58.6053 135.38 58.744C135.838 58.8827 136.308 59.0373 136.788 59.208C137.268 59.3787 137.737 59.5813 138.196 59.816C138.654 60.04 139.065 60.3227 139.428 60.664C139.79 60.9947 140.078 61.4 140.292 61.88C140.516 62.36 140.628 62.936 140.628 63.608C140.628 64.4293 140.478 65.1867 140.18 65.88C139.881 66.5733 139.433 67.1707 138.836 67.672C138.249 68.1733 137.518 68.5627 136.644 68.84C135.78 69.1173 134.782 69.256 133.652 69.256C133.086 69.256 132.521 69.2027 131.956 69.096C131.39 68.9893 130.841 68.8453 130.308 68.664C129.785 68.4827 129.3 68.2693 128.852 68.024C128.404 67.768 128.02 67.496 127.7 67.208L128.852 65.384C128.98 65.1707 129.14 65.0053 129.332 64.888C129.534 64.76 129.79 64.696 130.1 64.696C130.388 64.696 130.644 64.76 130.868 64.888C131.102 65.016 131.353 65.1547 131.62 65.304C131.886 65.4533 132.196 65.592 132.548 65.72C132.91 65.848 133.364 65.912 133.908 65.912C134.292 65.912 134.617 65.8747 134.884 65.8C135.15 65.7147 135.364 65.6027 135.524 65.464C135.684 65.3253 135.801 65.1707 135.876 65C135.95 64.8293 135.988 64.6533 135.988 64.472C135.988 64.1413 135.876 63.8693 135.652 63.656C135.428 63.4427 135.134 63.2613 134.772 63.112C134.409 62.952 133.993 62.808 133.524 62.68C133.065 62.5413 132.596 62.3867 132.116 62.216C131.636 62.0453 131.161 61.8427 130.692 61.608C130.233 61.3627 129.822 61.0587 129.46 60.696C129.097 60.3227 128.804 59.8693 128.58 59.336C128.356 58.8027 128.243 58.1573 128.243 57.4C128.243 56.696 128.377 56.0293 128.644 55.4C128.921 54.76 129.332 54.2 129.876 53.72C130.42 53.24 131.102 52.8613 131.924 52.584C132.745 52.296 133.705 52.152 134.804 52.152C135.401 52.152 135.977 52.2053 136.532 52.312C137.097 52.4187 137.625 52.568 138.116 52.76C138.606 52.952 139.054 53.1813 139.46 53.448C139.865 53.704 140.222 53.9867 140.532 54.296L139.412 56.04Z" fill="black"/>
</svg>
