<svg width="79" height="79" viewBox="0 0 79 79" fill="none" xmlns="http://www.w3.org/2000/svg">
<circle cx="39.5" cy="39.5" r="39.5" fill="#E7F3F9"/>
<path d="M37.5395 35.42C37.7955 35.452 38.0035 35.468 38.1635 35.468C38.3555 35.468 38.5155 35.468 38.6435 35.468C39.8275 35.468 40.7875 35.116 41.5235 34.412C42.2595 33.708 42.6275 32.796 42.6275 31.676C42.6275 30.588 42.2755 29.708 41.5715 29.036C40.8995 28.364 40.0195 28.028 38.9315 28.028C37.7795 28.028 36.8515 28.412 36.1475 29.18C35.4435 29.948 35.0915 30.94 35.0915 32.156H26.4035C26.6275 30.268 27.0915 28.588 27.7955 27.116C28.5315 25.644 29.4595 24.412 30.5795 23.42C31.6995 22.396 33.0115 21.628 34.5155 21.116C36.0195 20.572 37.6835 20.3 39.5075 20.3C41.2995 20.3 42.9155 20.556 44.3555 21.068C45.8275 21.548 47.0755 22.252 48.0995 23.18C49.1555 24.076 49.9555 25.18 50.4995 26.492C51.0755 27.772 51.3635 29.212 51.3635 30.812C51.3635 32.54 51.0275 33.964 50.3555 35.084C49.7155 36.172 48.7875 37.116 47.5715 37.916C49.4275 38.492 50.8675 39.532 51.8915 41.036C52.9475 42.508 53.4755 44.332 53.4755 46.508C53.4755 48.3 53.1235 49.932 52.4195 51.404C51.7155 52.876 50.7235 54.14 49.4435 55.196C48.1955 56.252 46.6915 57.068 44.9315 57.644C43.2035 58.22 41.2995 58.508 39.2195 58.508C36.4355 58.508 33.9235 57.964 31.6835 56.876C29.4435 55.788 27.6515 54.06 26.3075 51.692C25.6995 50.636 25.2835 49.58 25.0595 48.524C24.8675 47.468 24.7715 46.396 24.7715 45.308H34.0835C34.1475 47.004 34.6435 48.3 35.5715 49.196C36.4995 50.06 37.7475 50.492 39.3155 50.492C40.9795 50.492 42.1955 50.044 42.9635 49.148C43.7315 48.252 44.1155 47.148 44.1155 45.836C44.1155 44.268 43.6515 43.084 42.7235 42.284C41.7955 41.484 40.6915 41.084 39.4115 41.084C39.0915 41.084 38.7875 41.116 38.4995 41.18C38.2115 41.212 37.8915 41.26 37.5395 41.324V35.42Z" fill="#1696D2"/>
</svg>
