<svg width="79" height="79" viewBox="0 0 79 79" fill="none" xmlns="http://www.w3.org/2000/svg">
<circle cx="39.5" cy="39.5" r="39.5" fill="#E7F3F9"/>
<path d="M50.0675 29.276H37.5395L36.9155 33.26C37.4915 33.196 38.0195 33.148 38.4995 33.116C38.9795 33.052 39.4755 33.02 39.9875 33.02C41.8115 33.02 43.5075 33.34 45.0755 33.98C46.6435 34.62 47.9875 35.5 49.1075 36.62C50.2275 37.74 51.1075 39.084 51.7475 40.652C52.3875 42.22 52.7075 43.932 52.7075 45.788C52.7075 47.74 52.3395 49.5 51.6035 51.068C50.8995 52.636 49.8915 53.98 48.5795 55.1C47.2675 56.188 45.6675 57.02 43.7795 57.596C41.8915 58.204 39.7955 58.508 37.4915 58.508C35.3155 58.508 33.2355 58.236 31.2515 57.692C29.2995 57.18 27.4595 56.38 25.7315 55.292L27.1235 46.46C28.7235 47.836 30.3555 48.892 32.0195 49.628C33.6835 50.332 35.2675 50.684 36.7715 50.684C38.6915 50.684 40.2115 50.172 41.3315 49.148C42.4515 48.092 43.0115 46.796 43.0115 45.26C43.0115 43.468 42.2595 42.028 40.7555 40.94C39.2515 39.82 37.2835 39.26 34.8515 39.26C33.7635 39.26 32.6435 39.388 31.4915 39.644C30.3395 39.868 29.2035 40.236 28.0835 40.748L31.1075 21.308H50.0675V29.276Z" fill="#1696D2"/>
</svg>
