<svg width="160" height="106" viewBox="0 0 160 106" fill="none" xmlns="http://www.w3.org/2000/svg">
<path d="M100.825 15.5095H120.165C121.256 15.5095 122.14 16.393 122.14 17.4849V94.5219C122.14 95.6137 121.256 96.4973 120.165 96.4973H100.825C99.7331 96.4973 98.8496 95.6138 98.8496 94.5219V17.4849C98.8496 16.3964 99.733 15.5095 100.825 15.5095ZM39.8354 54.0281H59.1751C60.2669 54.0281 61.1504 54.9115 61.1504 56.0034V94.5219C61.1504 95.6137 60.2669 96.4973 59.1751 96.4973H39.8354C38.7436 96.4973 37.8601 95.6138 37.8601 94.5219V56.0034C37.8601 54.9116 38.7436 54.0281 39.8354 54.0281ZM57.1997 57.9787H41.81V92.5464H57.1997V57.9787ZM70.3284 36.3007H89.6681C90.7599 36.3007 91.6434 37.1842 91.6434 38.276V94.5218C91.6434 95.6135 90.76 96.4971 89.6681 96.4971H70.3284C69.2367 96.4971 68.3531 95.6136 68.3531 94.5218V38.276C68.3531 37.1843 69.2366 36.3007 70.3284 36.3007ZM87.6927 40.2514H72.303V92.5471H87.6927V40.2514ZM118.189 19.46H102.799V92.5463H118.189V19.46Z" fill="#1696D2"/>
</svg>
