<svg width="228" height="90" viewBox="0 0 228 90" fill="none" xmlns="http://www.w3.org/2000/svg">
<path d="M60.862 19.544C60.862 21.2613 60.59 22.84 60.046 24.28C59.502 25.7093 58.734 26.9413 57.742 27.976C56.75 29.0107 55.5553 29.816 54.158 30.392C52.7713 30.9573 51.2353 31.24 49.55 31.24C47.8647 31.24 46.3287 30.9573 44.942 30.392C43.5553 29.816 42.366 29.0107 41.374 27.976C40.382 26.9413 39.614 25.7093 39.07 24.28C38.526 22.84 38.254 21.2613 38.254 19.544C38.254 17.8267 38.526 16.2533 39.07 14.824C39.614 13.384 40.382 12.1467 41.374 11.112C42.366 10.0667 43.5553 9.256 44.942 8.68C46.3287 8.104 47.8647 7.816 49.55 7.816C51.2353 7.816 52.7713 8.104 54.158 8.68C55.5553 9.256 56.75 10.0667 57.742 11.112C58.734 12.1467 59.502 13.384 60.046 14.824C60.59 16.2533 60.862 17.8267 60.862 19.544ZM57.678 19.544C57.678 18.136 57.486 16.872 57.102 15.752C56.718 14.632 56.174 13.688 55.47 12.92C54.766 12.1413 53.9127 11.544 52.91 11.128C51.9073 10.712 50.7873 10.504 49.55 10.504C48.3233 10.504 47.2087 10.712 46.206 11.128C45.2033 11.544 44.3447 12.1413 43.63 12.92C42.926 13.688 42.382 14.632 41.998 15.752C41.614 16.872 41.422 18.136 41.422 19.544C41.422 20.952 41.614 22.216 41.998 23.336C42.382 24.4453 42.926 25.3893 43.63 26.168C44.3447 26.936 45.2033 27.528 46.206 27.944C47.2087 28.3493 48.3233 28.552 49.55 28.552C50.7873 28.552 51.9073 28.3493 52.91 27.944C53.9127 27.528 54.766 26.936 55.47 26.168C56.174 25.3893 56.718 24.4453 57.102 23.336C57.486 22.216 57.678 20.952 57.678 19.544ZM77.709 14.792V31H76.013C75.6077 31 75.3517 30.8027 75.245 30.408L75.021 28.664C74.317 29.4427 73.5277 30.072 72.653 30.552C71.7783 31.0213 70.7757 31.256 69.645 31.256C68.7597 31.256 67.9757 31.112 67.293 30.824C66.621 30.5253 66.0557 30.1093 65.597 29.576C65.1383 29.0427 64.7917 28.3973 64.557 27.64C64.333 26.8827 64.221 26.0453 64.221 25.128V14.792H67.069V25.128C67.069 26.3547 67.3463 27.304 67.901 27.976C68.4663 28.648 69.325 28.984 70.477 28.984C71.3197 28.984 72.1037 28.7867 72.829 28.392C73.565 27.9867 74.2423 27.432 74.861 26.728V14.792H77.709ZM84.9288 18.04C85.4408 16.9307 86.0701 16.0667 86.8168 15.448C87.5634 14.8187 88.4754 14.504 89.5528 14.504C89.8941 14.504 90.2194 14.5413 90.5288 14.616C90.8488 14.6907 91.1314 14.808 91.3768 14.968L91.1688 17.096C91.1048 17.3627 90.9448 17.496 90.6888 17.496C90.5394 17.496 90.3208 17.464 90.0328 17.4C89.7448 17.336 89.4194 17.304 89.0568 17.304C88.5448 17.304 88.0861 17.3787 87.6808 17.528C87.2861 17.6773 86.9288 17.9013 86.6088 18.2C86.2994 18.488 86.0168 18.8507 85.7608 19.288C85.5154 19.7147 85.2914 20.2053 85.0888 20.76V31H82.2248V14.792H83.8568C84.1661 14.792 84.3794 14.8507 84.4968 14.968C84.6141 15.0853 84.6941 15.288 84.7368 15.576L84.9288 18.04Z" fill="black"/>
<path d="M44.446 49.848V55.288H51.774V59.288H44.446V64.84H54.014V69H39.006V45.688H54.014V49.848H44.446ZM72.6458 69H67.8778C67.5258 69 67.2378 68.9147 67.0138 68.744C66.8004 68.5733 66.6298 68.3707 66.5018 68.136L63.5417 63.048C63.4884 63.2293 63.4244 63.4 63.3498 63.56C63.2751 63.72 63.1951 63.8693 63.1098 64.008L60.6778 68.136C60.5284 68.3493 60.3524 68.5467 60.1498 68.728C59.9471 68.9093 59.6858 69 59.3658 69H54.9497L60.5178 60.424L55.1738 52.408H59.9418C60.2938 52.408 60.5498 52.456 60.7098 52.552C60.8804 52.6373 61.0298 52.7867 61.1578 53L64.1178 57.912C64.1818 57.72 64.2618 57.5333 64.3578 57.352C64.4538 57.16 64.5604 56.968 64.6778 56.776L66.7898 53.08C66.9391 52.8453 67.0938 52.6747 67.2538 52.568C67.4244 52.4613 67.6324 52.408 67.8778 52.408H72.4218L67.0778 60.2L72.6458 69ZM79.14 64.488C79.5133 64.8933 79.9187 65.1813 80.356 65.352C80.7933 65.5227 81.252 65.608 81.732 65.608C82.1907 65.608 82.612 65.5173 82.996 65.336C83.38 65.1547 83.7107 64.8667 83.988 64.472C84.276 64.0667 84.5 63.544 84.66 62.904C84.82 62.264 84.9 61.4853 84.9 60.568C84.9 59.6933 84.836 58.9573 84.708 58.36C84.58 57.7627 84.3987 57.2827 84.164 56.92C83.94 56.5467 83.668 56.28 83.348 56.12C83.028 55.96 82.6707 55.88 82.276 55.88C81.5507 55.88 80.9533 56.0133 80.484 56.28C80.0147 56.5467 79.5667 56.936 79.14 57.448V64.488ZM78.836 54.456C79.4867 53.7627 80.2227 53.1973 81.044 52.76C81.876 52.312 82.8627 52.088 84.004 52.088C84.868 52.088 85.668 52.28 86.404 52.664C87.14 53.048 87.7747 53.6027 88.308 54.328C88.8413 55.0533 89.2573 55.944 89.556 57C89.8653 58.0453 90.02 59.2347 90.02 60.568C90.02 61.816 89.844 62.968 89.492 64.024C89.1507 65.08 88.6653 65.9973 88.036 66.776C87.4173 67.5547 86.6707 68.1627 85.796 68.6C84.932 69.0373 83.972 69.256 82.916 69.256C82.052 69.256 81.3267 69.1333 80.74 68.888C80.1533 68.6427 79.62 68.312 79.14 67.896V74.264H74.18V52.408H77.252C77.8707 52.408 78.276 52.6853 78.468 53.24L78.836 54.456ZM102.906 58.712C102.906 58.3173 102.853 57.9333 102.746 57.56C102.65 57.1867 102.485 56.856 102.25 56.568C102.026 56.2693 101.728 56.0293 101.354 55.848C100.981 55.6667 100.528 55.576 99.9943 55.576C99.0556 55.576 98.3196 55.848 97.7863 56.392C97.2529 56.9253 96.9009 57.6987 96.7303 58.712H102.906ZM96.6663 61.592C96.8263 62.9787 97.2476 63.9867 97.9303 64.616C98.6129 65.2347 99.4929 65.544 100.57 65.544C101.146 65.544 101.642 65.4747 102.058 65.336C102.474 65.1973 102.842 65.0427 103.162 64.872C103.493 64.7013 103.792 64.5467 104.058 64.408C104.336 64.2693 104.624 64.2 104.922 64.2C105.317 64.2 105.616 64.344 105.818 64.632L107.258 66.408C106.746 66.9947 106.192 67.4747 105.594 67.848C105.008 68.2107 104.4 68.4987 103.77 68.712C103.152 68.9147 102.528 69.0533 101.898 69.128C101.28 69.2133 100.688 69.256 100.122 69.256C98.9596 69.256 97.8663 69.0693 96.8423 68.696C95.8289 68.312 94.9383 67.7467 94.1703 67C93.4129 66.2533 92.8103 65.3253 92.3623 64.216C91.9249 63.1067 91.7063 61.816 91.7063 60.344C91.7063 59.2347 91.8929 58.184 92.2663 57.192C92.6503 56.2 93.1943 55.3307 93.8983 54.584C94.6129 53.8373 95.4716 53.2453 96.4743 52.808C97.4876 52.3707 98.6289 52.152 99.8983 52.152C100.997 52.152 102 52.3227 102.906 52.664C103.824 53.0053 104.608 53.5013 105.258 54.152C105.92 54.8027 106.432 55.6027 106.794 56.552C107.168 57.4907 107.354 58.5573 107.354 59.752C107.354 60.1253 107.338 60.4293 107.306 60.664C107.274 60.8987 107.216 61.0853 107.13 61.224C107.045 61.3627 106.928 61.4587 106.778 61.512C106.64 61.5653 106.458 61.592 106.234 61.592H96.6663ZM114.476 54.968C114.988 54.072 115.575 53.368 116.236 52.856C116.908 52.344 117.676 52.088 118.54 52.088C119.287 52.088 119.895 52.264 120.364 52.616L120.044 56.264C119.991 56.4987 119.9 56.6587 119.772 56.744C119.655 56.8293 119.49 56.872 119.276 56.872C119.191 56.872 119.079 56.8667 118.94 56.856C118.802 56.8453 118.658 56.8347 118.508 56.824C118.359 56.8027 118.204 56.7867 118.044 56.776C117.895 56.7547 117.756 56.744 117.628 56.744C116.903 56.744 116.322 56.936 115.884 57.32C115.458 57.704 115.095 58.2373 114.796 58.92V69H109.836V52.408H112.78C113.026 52.408 113.228 52.4293 113.388 52.472C113.559 52.5147 113.698 52.584 113.804 52.68C113.922 52.7653 114.007 52.8827 114.06 53.032C114.124 53.1813 114.178 53.3627 114.22 53.576L114.476 54.968ZM139.991 69H135.031V55.832H128.087V64.072C128.087 64.456 128.178 64.776 128.359 65.032C128.551 65.2773 128.823 65.4 129.175 65.4C129.356 65.4 129.506 65.384 129.623 65.352C129.751 65.3093 129.858 65.2667 129.943 65.224C130.039 65.1707 130.124 65.128 130.199 65.096C130.284 65.0533 130.38 65.032 130.487 65.032C130.636 65.032 130.754 65.0693 130.839 65.144C130.935 65.208 131.031 65.3147 131.127 65.464L132.631 67.816C131.991 68.296 131.271 68.6587 130.471 68.904C129.671 69.1387 128.844 69.256 127.991 69.256C127.202 69.256 126.503 69.144 125.895 68.92C125.298 68.6853 124.791 68.36 124.375 67.944C123.97 67.5173 123.66 67.0053 123.447 66.408C123.234 65.8107 123.127 65.144 123.127 64.408V55.832H121.719C121.463 55.832 121.244 55.752 121.063 55.592C120.882 55.4213 120.791 55.176 120.791 54.856V52.92L123.431 52.392L124.407 48.36C124.535 47.848 124.898 47.592 125.495 47.592H128.087V52.44H139.991V69ZM140.679 47.848C140.679 48.2427 140.599 48.616 140.439 48.968C140.279 49.32 140.06 49.6293 139.783 49.896C139.506 50.152 139.18 50.3547 138.807 50.504C138.444 50.6533 138.055 50.728 137.639 50.728C137.234 50.728 136.855 50.6533 136.503 50.504C136.151 50.3547 135.836 50.152 135.559 49.896C135.292 49.6293 135.079 49.32 134.919 48.968C134.77 48.616 134.695 48.2427 134.695 47.848C134.695 47.4533 134.77 47.08 134.919 46.728C135.079 46.3653 135.292 46.056 135.559 45.8C135.836 45.5333 136.151 45.3253 136.503 45.176C136.855 45.016 137.234 44.936 137.639 44.936C138.055 44.936 138.444 45.016 138.807 45.176C139.18 45.3253 139.506 45.5333 139.783 45.8C140.06 46.056 140.279 46.3653 140.439 46.728C140.599 47.08 140.679 47.4533 140.679 47.848ZM154.005 56.04C153.877 56.2427 153.739 56.3867 153.589 56.472C153.451 56.5573 153.269 56.6 153.045 56.6C152.811 56.6 152.576 56.552 152.341 56.456C152.107 56.3493 151.851 56.2373 151.573 56.12C151.307 56.0027 151.003 55.896 150.661 55.8C150.32 55.6933 149.931 55.64 149.493 55.64C148.864 55.64 148.379 55.7627 148.037 56.008C147.707 56.2427 147.541 56.5733 147.541 57C147.541 57.3093 147.648 57.5653 147.861 57.768C148.085 57.9707 148.379 58.152 148.741 58.312C149.104 58.4613 149.515 58.6053 149.973 58.744C150.432 58.8827 150.901 59.0373 151.381 59.208C151.861 59.3787 152.331 59.5813 152.789 59.816C153.248 60.04 153.659 60.3227 154.021 60.664C154.384 60.9947 154.672 61.4 154.885 61.88C155.109 62.36 155.221 62.936 155.221 63.608C155.221 64.4293 155.072 65.1867 154.773 65.88C154.475 66.5733 154.027 67.1707 153.429 67.672C152.843 68.1733 152.112 68.5627 151.237 68.84C150.373 69.1173 149.376 69.256 148.245 69.256C147.68 69.256 147.115 69.2027 146.549 69.096C145.984 68.9893 145.435 68.8453 144.901 68.664C144.379 68.4827 143.893 68.2693 143.445 68.024C142.997 67.768 142.613 67.496 142.293 67.208L143.445 65.384C143.573 65.1707 143.733 65.0053 143.925 64.888C144.128 64.76 144.384 64.696 144.693 64.696C144.981 64.696 145.237 64.76 145.461 64.888C145.696 65.016 145.947 65.1547 146.213 65.304C146.48 65.4533 146.789 65.592 147.141 65.72C147.504 65.848 147.957 65.912 148.501 65.912C148.885 65.912 149.211 65.8747 149.477 65.8C149.744 65.7147 149.957 65.6027 150.117 65.464C150.277 65.3253 150.395 65.1707 150.469 65C150.544 64.8293 150.581 64.6533 150.581 64.472C150.581 64.1413 150.469 63.8693 150.245 63.656C150.021 63.4427 149.728 63.2613 149.365 63.112C149.003 62.952 148.587 62.808 148.117 62.68C147.659 62.5413 147.189 62.3867 146.709 62.216C146.229 62.0453 145.755 61.8427 145.285 61.608C144.827 61.3627 144.416 61.0587 144.053 60.696C143.691 60.3227 143.397 59.8693 143.173 59.336C142.949 58.8027 142.837 58.1573 142.837 57.4C142.837 56.696 142.971 56.0293 143.237 55.4C143.515 54.76 143.925 54.2 144.469 53.72C145.013 53.24 145.696 52.8613 146.517 52.584C147.339 52.296 148.299 52.152 149.397 52.152C149.995 52.152 150.571 52.2053 151.125 52.312C151.691 52.4187 152.219 52.568 152.709 52.76C153.2 52.952 153.648 53.1813 154.053 53.448C154.459 53.704 154.816 53.9867 155.125 54.296L154.005 56.04ZM168.031 58.712C168.031 58.3173 167.978 57.9333 167.871 57.56C167.775 57.1867 167.61 56.856 167.375 56.568C167.151 56.2693 166.853 56.0293 166.479 55.848C166.106 55.6667 165.653 55.576 165.119 55.576C164.181 55.576 163.445 55.848 162.911 56.392C162.378 56.9253 162.026 57.6987 161.855 58.712H168.031ZM161.791 61.592C161.951 62.9787 162.373 63.9867 163.055 64.616C163.738 65.2347 164.618 65.544 165.695 65.544C166.271 65.544 166.767 65.4747 167.183 65.336C167.599 65.1973 167.967 65.0427 168.287 64.872C168.618 64.7013 168.917 64.5467 169.183 64.408C169.461 64.2693 169.749 64.2 170.047 64.2C170.442 64.2 170.741 64.344 170.943 64.632L172.383 66.408C171.871 66.9947 171.317 67.4747 170.719 67.848C170.133 68.2107 169.525 68.4987 168.895 68.712C168.277 68.9147 167.653 69.0533 167.023 69.128C166.405 69.2133 165.813 69.256 165.247 69.256C164.085 69.256 162.991 69.0693 161.967 68.696C160.954 68.312 160.063 67.7467 159.295 67C158.538 66.2533 157.935 65.3253 157.487 64.216C157.05 63.1067 156.831 61.816 156.831 60.344C156.831 59.2347 157.018 58.184 157.391 57.192C157.775 56.2 158.319 55.3307 159.023 54.584C159.738 53.8373 160.597 53.2453 161.599 52.808C162.613 52.3707 163.754 52.152 165.023 52.152C166.122 52.152 167.125 52.3227 168.031 52.664C168.949 53.0053 169.733 53.5013 170.383 54.152C171.045 54.8027 171.557 55.6027 171.919 56.552C172.293 57.4907 172.479 58.5573 172.479 59.752C172.479 60.1253 172.463 60.4293 172.431 60.664C172.399 60.8987 172.341 61.0853 172.255 61.224C172.17 61.3627 172.053 61.4587 171.903 61.512C171.765 61.5653 171.583 61.592 171.359 61.592H161.791Z" fill="black"/>
<path d="M26.55 43.536H17.67V53.088H11.622V43.536H2.79V38.208H11.622V28.704H17.67V38.208H26.55V43.536Z" fill="black"/>
</svg>
