<svg width="79" height="79" viewBox="0 0 79 79" fill="none" xmlns="http://www.w3.org/2000/svg">
<circle cx="39.5" cy="39.5" r="39.5" fill="#E7F3F9"/>
<path d="M53.6675 57.5H24.5315L33.5075 48.188C35.8755 45.724 37.7315 43.644 39.0755 41.948C40.4195 40.22 41.4115 38.764 42.0515 37.58C42.7235 36.396 43.1395 35.436 43.2995 34.7C43.4595 33.964 43.5395 33.34 43.5395 32.828C43.5395 32.284 43.4435 31.756 43.2515 31.244C43.0915 30.732 42.8355 30.284 42.4835 29.9C42.1315 29.484 41.6995 29.164 41.1875 28.94C40.7075 28.684 40.1315 28.556 39.4595 28.556C38.1795 28.556 37.1715 28.972 36.4355 29.804C35.7315 30.636 35.3795 31.676 35.3795 32.924C35.3795 33.276 35.4275 33.788 35.5235 34.46H25.2515C25.2515 32.348 25.5875 30.428 26.2595 28.7C26.9635 26.972 27.9395 25.484 29.1875 24.236C30.4355 22.988 31.9075 22.028 33.6035 21.356C35.3315 20.684 37.2195 20.348 39.2675 20.348C41.2835 20.348 43.1395 20.668 44.8355 21.308C46.5635 21.948 48.0515 22.844 49.2995 23.996C50.5475 25.148 51.5235 26.524 52.2275 28.124C52.9315 29.692 53.2835 31.404 53.2835 33.26C53.2835 35.244 52.8515 37.084 51.9875 38.78C51.1555 40.444 49.8115 42.156 47.9555 43.916L41.9555 49.532H53.6675V57.5Z" fill="#1696D2"/>
</svg>
