<svg width="225" height="90" viewBox="0 0 225 90" fill="none" xmlns="http://www.w3.org/2000/svg">
<path d="M61.8938 19.544C61.8938 21.2613 61.6218 22.84 61.0778 24.28C60.5338 25.7093 59.7658 26.9413 58.7738 27.976C57.7818 29.0107 56.5871 29.816 55.1898 30.392C53.8031 30.9573 52.2671 31.24 50.5818 31.24C48.8965 31.24 47.3605 30.9573 45.9738 30.392C44.5871 29.816 43.3978 29.0107 42.4058 27.976C41.4138 26.9413 40.6458 25.7093 40.1018 24.28C39.5578 22.84 39.2858 21.2613 39.2858 19.544C39.2858 17.8267 39.5578 16.2533 40.1018 14.824C40.6458 13.384 41.4138 12.1467 42.4058 11.112C43.3978 10.0667 44.5871 9.256 45.9738 8.68C47.3605 8.104 48.8965 7.816 50.5818 7.816C52.2671 7.816 53.8031 8.104 55.1898 8.68C56.5871 9.256 57.7818 10.0667 58.7738 11.112C59.7658 12.1467 60.5338 13.384 61.0778 14.824C61.6218 16.2533 61.8938 17.8267 61.8938 19.544ZM58.7098 19.544C58.7098 18.136 58.5178 16.872 58.1338 15.752C57.7498 14.632 57.2058 13.688 56.5018 12.92C55.7978 12.1413 54.9445 11.544 53.9418 11.128C52.9391 10.712 51.8191 10.504 50.5818 10.504C49.3551 10.504 48.2405 10.712 47.2378 11.128C46.2351 11.544 45.3765 12.1413 44.6618 12.92C43.9578 13.688 43.4138 14.632 43.0298 15.752C42.6458 16.872 42.4538 18.136 42.4538 19.544C42.4538 20.952 42.6458 22.216 43.0298 23.336C43.4138 24.4453 43.9578 25.3893 44.6618 26.168C45.3765 26.936 46.2351 27.528 47.2378 27.944C48.2405 28.3493 49.3551 28.552 50.5818 28.552C51.8191 28.552 52.9391 28.3493 53.9418 27.944C54.9445 27.528 55.7978 26.936 56.5018 26.168C57.2058 25.3893 57.7498 24.4453 58.1338 23.336C58.5178 22.216 58.7098 20.952 58.7098 19.544ZM78.7408 14.792V31H77.0448C76.6395 31 76.3835 30.8027 76.2768 30.408L76.0528 28.664C75.3488 29.4427 74.5595 30.072 73.6848 30.552C72.8101 31.0213 71.8075 31.256 70.6768 31.256C69.7915 31.256 69.0075 31.112 68.3248 30.824C67.6528 30.5253 67.0875 30.1093 66.6288 29.576C66.1701 29.0427 65.8235 28.3973 65.5888 27.64C65.3648 26.8827 65.2528 26.0453 65.2528 25.128V14.792H68.1008V25.128C68.1008 26.3547 68.3781 27.304 68.9328 27.976C69.4981 28.648 70.3568 28.984 71.5088 28.984C72.3515 28.984 73.1355 28.7867 73.8608 28.392C74.5968 27.9867 75.2741 27.432 75.8928 26.728V14.792H78.7408ZM85.9605 18.04C86.4725 16.9307 87.1019 16.0667 87.8485 15.448C88.5952 14.8187 89.5072 14.504 90.5845 14.504C90.9259 14.504 91.2512 14.5413 91.5605 14.616C91.8805 14.6907 92.1632 14.808 92.4085 14.968L92.2005 17.096C92.1365 17.3627 91.9765 17.496 91.7205 17.496C91.5712 17.496 91.3525 17.464 91.0645 17.4C90.7765 17.336 90.4512 17.304 90.0885 17.304C89.5765 17.304 89.1179 17.3787 88.7125 17.528C88.3179 17.6773 87.9605 17.9013 87.6405 18.2C87.3312 18.488 87.0485 18.8507 86.7925 19.288C86.5472 19.7147 86.3232 20.2053 86.1205 20.76V31H83.2565V14.792H84.8885C85.1979 14.792 85.4112 14.8507 85.5285 14.968C85.6459 15.0853 85.7259 15.288 85.7685 15.576L85.9605 18.04ZM48.2618 57.128C49.6698 57.128 50.6831 56.792 51.3018 56.12C51.9205 55.448 52.2298 54.5093 52.2298 53.304C52.2298 52.7707 52.1498 52.2853 51.9898 51.848C51.8298 51.4107 51.5845 51.0373 51.2538 50.728C50.9338 50.408 50.5231 50.1627 50.0218 49.992C49.5311 49.8213 48.9445 49.736 48.2618 49.736H45.4458V57.128H48.2618ZM48.2618 45.688C49.9045 45.688 51.3125 45.8853 52.4858 46.28C53.6698 46.664 54.6405 47.1973 55.3978 47.88C56.1658 48.5627 56.7311 49.368 57.0938 50.296C57.4565 51.224 57.6378 52.2267 57.6378 53.304C57.6378 54.4667 57.4511 55.5333 57.0778 56.504C56.7045 57.4747 56.1338 58.3067 55.3658 59C54.5978 59.6933 53.6218 60.2373 52.4378 60.632C51.2645 61.016 49.8725 61.208 48.2618 61.208H45.4458V69H40.0378V45.688H48.2618ZM64.2268 54.968C64.7388 54.072 65.3255 53.368 65.9868 52.856C66.6588 52.344 67.4268 52.088 68.2908 52.088C69.0375 52.088 69.6455 52.264 70.1148 52.616L69.7948 56.264C69.7415 56.4987 69.6508 56.6587 69.5228 56.744C69.4055 56.8293 69.2401 56.872 69.0268 56.872C68.9415 56.872 68.8295 56.8667 68.6908 56.856C68.5521 56.8453 68.4081 56.8347 68.2588 56.824C68.1095 56.8027 67.9548 56.7867 67.7948 56.776C67.6455 56.7547 67.5068 56.744 67.3788 56.744C66.6535 56.744 66.0721 56.936 65.6348 57.32C65.2081 57.704 64.8455 58.2373 64.5468 58.92V69H59.5868V52.408H62.5308C62.7761 52.408 62.9788 52.4293 63.1388 52.472C63.3095 52.5147 63.4481 52.584 63.5548 52.68C63.6721 52.7653 63.7575 52.8827 63.8108 53.032C63.8748 53.1813 63.9281 53.3627 63.9708 53.576L64.2268 54.968ZM76.8775 52.408V69H71.9175V52.408H76.8775ZM77.3895 47.864C77.3895 48.2587 77.3095 48.632 77.1495 48.984C76.9895 49.3253 76.7709 49.6293 76.4935 49.896C76.2162 50.152 75.8909 50.36 75.5175 50.52C75.1549 50.6693 74.7655 50.744 74.3495 50.744C73.9442 50.744 73.5655 50.6693 73.2135 50.52C72.8615 50.36 72.5469 50.152 72.2695 49.896C72.0029 49.6293 71.7895 49.3253 71.6295 48.984C71.4802 48.632 71.4055 48.2587 71.4055 47.864C71.4055 47.4587 71.4802 47.08 71.6295 46.728C71.7895 46.376 72.0029 46.0667 72.2695 45.8C72.5469 45.5333 72.8615 45.3253 73.2135 45.176C73.5655 45.0267 73.9442 44.952 74.3495 44.952C74.7655 44.952 75.1549 45.0267 75.5175 45.176C75.8909 45.3253 76.2162 45.5333 76.4935 45.8C76.7709 46.0667 76.9895 46.376 77.1495 46.728C77.3095 47.08 77.3895 47.4587 77.3895 47.864ZM84.9128 54.2C85.2328 53.9013 85.5635 53.624 85.9048 53.368C86.2461 53.112 86.6088 52.8987 86.9928 52.728C87.3875 52.5467 87.8088 52.408 88.2568 52.312C88.7155 52.2053 89.2115 52.152 89.7448 52.152C90.6515 52.152 91.4515 52.312 92.1448 52.632C92.8488 52.9413 93.4408 53.3787 93.9208 53.944C94.4008 54.4987 94.7635 55.1653 95.0088 55.944C95.2541 56.712 95.3768 57.5493 95.3768 58.456V69H90.4168V58.456C90.4168 57.6453 90.2301 57.016 89.8568 56.568C89.4835 56.1093 88.9341 55.88 88.2088 55.88C87.6648 55.88 87.1528 55.9973 86.6728 56.232C86.2035 56.456 85.7448 56.7653 85.2968 57.16V69H80.3368V52.408H83.4088C84.0275 52.408 84.4328 52.6853 84.6248 53.24L84.9128 54.2ZM110.779 56.344C110.629 56.5253 110.485 56.6693 110.347 56.776C110.208 56.8827 110.011 56.936 109.755 56.936C109.509 56.936 109.285 56.8773 109.083 56.76C108.891 56.6427 108.672 56.5147 108.427 56.376C108.181 56.2267 107.893 56.0933 107.563 55.976C107.232 55.8587 106.821 55.8 106.331 55.8C105.723 55.8 105.195 55.912 104.747 56.136C104.309 56.36 103.947 56.68 103.659 57.096C103.371 57.512 103.157 58.024 103.019 58.632C102.88 59.2293 102.811 59.9067 102.811 60.664C102.811 62.2533 103.115 63.4747 103.723 64.328C104.341 65.1813 105.189 65.608 106.267 65.608C106.843 65.608 107.296 65.5387 107.627 65.4C107.968 65.2507 108.256 65.0907 108.491 64.92C108.725 64.7387 108.939 64.5733 109.131 64.424C109.333 64.2747 109.584 64.2 109.883 64.2C110.277 64.2 110.576 64.344 110.779 64.632L112.219 66.408C111.707 66.9947 111.168 67.4747 110.603 67.848C110.037 68.2107 109.456 68.4987 108.859 68.712C108.272 68.9147 107.68 69.0533 107.083 69.128C106.485 69.2133 105.904 69.256 105.339 69.256C104.325 69.256 103.355 69.064 102.427 68.68C101.509 68.296 100.699 67.7413 99.9948 67.016C99.3015 66.28 98.7468 65.3787 98.3308 64.312C97.9255 63.2453 97.7228 62.0293 97.7228 60.664C97.7228 59.4693 97.8988 58.3547 98.2508 57.32C98.6135 56.2747 99.1415 55.3733 99.8348 54.616C100.539 53.848 101.403 53.2453 102.427 52.808C103.461 52.3707 104.656 52.152 106.011 52.152C107.312 52.152 108.453 52.36 109.435 52.776C110.416 53.192 111.301 53.8 112.091 54.6L110.779 56.344ZM119.221 52.408V69H114.261V52.408H119.221ZM119.733 47.864C119.733 48.2587 119.653 48.632 119.493 48.984C119.333 49.3253 119.115 49.6293 118.837 49.896C118.56 50.152 118.235 50.36 117.861 50.52C117.499 50.6693 117.109 50.744 116.693 50.744C116.288 50.744 115.909 50.6693 115.557 50.52C115.205 50.36 114.891 50.152 114.613 49.896C114.347 49.6293 114.133 49.3253 113.973 48.984C113.824 48.632 113.749 48.2587 113.749 47.864C113.749 47.4587 113.824 47.08 113.973 46.728C114.133 46.376 114.347 46.0667 114.613 45.8C114.891 45.5333 115.205 45.3253 115.557 45.176C115.909 45.0267 116.288 44.952 116.693 44.952C117.109 44.952 117.499 45.0267 117.861 45.176C118.235 45.3253 118.56 45.5333 118.837 45.8C119.115 46.0667 119.333 46.376 119.493 46.728C119.653 47.08 119.733 47.4587 119.733 47.864ZM127.641 64.488C128.014 64.8933 128.419 65.1813 128.857 65.352C129.294 65.5227 129.753 65.608 130.233 65.608C130.691 65.608 131.113 65.5173 131.497 65.336C131.881 65.1547 132.211 64.8667 132.489 64.472C132.777 64.0667 133.001 63.544 133.161 62.904C133.321 62.264 133.401 61.4853 133.401 60.568C133.401 59.6933 133.337 58.9573 133.209 58.36C133.081 57.7627 132.899 57.2827 132.665 56.92C132.441 56.5467 132.169 56.28 131.849 56.12C131.529 55.96 131.171 55.88 130.777 55.88C130.051 55.88 129.454 56.0133 128.985 56.28C128.515 56.5467 128.067 56.936 127.641 57.448V64.488ZM127.337 54.456C127.987 53.7627 128.723 53.1973 129.545 52.76C130.377 52.312 131.363 52.088 132.505 52.088C133.369 52.088 134.169 52.28 134.905 52.664C135.641 53.048 136.275 53.6027 136.809 54.328C137.342 55.0533 137.758 55.944 138.057 57C138.366 58.0453 138.521 59.2347 138.521 60.568C138.521 61.816 138.345 62.968 137.993 64.024C137.651 65.08 137.166 65.9973 136.537 66.776C135.918 67.5547 135.171 68.1627 134.297 68.6C133.433 69.0373 132.473 69.256 131.417 69.256C130.553 69.256 129.827 69.1333 129.241 68.888C128.654 68.6427 128.121 68.312 127.641 67.896V74.264H122.681V52.408H125.753C126.371 52.408 126.777 52.6853 126.969 53.24L127.337 54.456ZM146.047 45.048V69H141.087V45.048H146.047ZM159.719 58.712C159.719 58.3173 159.666 57.9333 159.559 57.56C159.463 57.1867 159.298 56.856 159.063 56.568C158.839 56.2693 158.541 56.0293 158.167 55.848C157.794 55.6667 157.341 55.576 156.807 55.576C155.869 55.576 155.133 55.848 154.599 56.392C154.066 56.9253 153.714 57.6987 153.543 58.712H159.719ZM153.479 61.592C153.639 62.9787 154.061 63.9867 154.743 64.616C155.426 65.2347 156.306 65.544 157.383 65.544C157.959 65.544 158.455 65.4747 158.871 65.336C159.287 65.1973 159.655 65.0427 159.975 64.872C160.306 64.7013 160.605 64.5467 160.871 64.408C161.149 64.2693 161.437 64.2 161.735 64.2C162.13 64.2 162.429 64.344 162.631 64.632L164.071 66.408C163.559 66.9947 163.005 67.4747 162.407 67.848C161.821 68.2107 161.213 68.4987 160.583 68.712C159.965 68.9147 159.341 69.0533 158.711 69.128C158.093 69.2133 157.501 69.256 156.935 69.256C155.773 69.256 154.679 69.0693 153.655 68.696C152.642 68.312 151.751 67.7467 150.983 67C150.226 66.2533 149.623 65.3253 149.175 64.216C148.738 63.1067 148.519 61.816 148.519 60.344C148.519 59.2347 148.706 58.184 149.079 57.192C149.463 56.2 150.007 55.3307 150.711 54.584C151.426 53.8373 152.285 53.2453 153.287 52.808C154.301 52.3707 155.442 52.152 156.711 52.152C157.81 52.152 158.813 52.3227 159.719 52.664C160.637 53.0053 161.421 53.5013 162.071 54.152C162.733 54.8027 163.245 55.6027 163.607 56.552C163.981 57.4907 164.167 58.5573 164.167 59.752C164.167 60.1253 164.151 60.4293 164.119 60.664C164.087 60.8987 164.029 61.0853 163.943 61.224C163.858 61.3627 163.741 61.4587 163.591 61.512C163.453 61.5653 163.271 61.592 163.047 61.592H153.479ZM177.193 56.04C177.065 56.2427 176.927 56.3867 176.777 56.472C176.639 56.5573 176.457 56.6 176.233 56.6C175.999 56.6 175.764 56.552 175.529 56.456C175.295 56.3493 175.039 56.2373 174.761 56.12C174.495 56.0027 174.191 55.896 173.849 55.8C173.508 55.6933 173.119 55.64 172.681 55.64C172.052 55.64 171.567 55.7627 171.225 56.008C170.895 56.2427 170.729 56.5733 170.729 57C170.729 57.3093 170.836 57.5653 171.049 57.768C171.273 57.9707 171.567 58.152 171.929 58.312C172.292 58.4613 172.703 58.6053 173.161 58.744C173.62 58.8827 174.089 59.0373 174.569 59.208C175.049 59.3787 175.519 59.5813 175.977 59.816C176.436 60.04 176.847 60.3227 177.209 60.664C177.572 60.9947 177.86 61.4 178.073 61.88C178.297 62.36 178.409 62.936 178.409 63.608C178.409 64.4293 178.26 65.1867 177.961 65.88C177.663 66.5733 177.215 67.1707 176.617 67.672C176.031 68.1733 175.3 68.5627 174.425 68.84C173.561 69.1173 172.564 69.256 171.433 69.256C170.868 69.256 170.303 69.2027 169.737 69.096C169.172 68.9893 168.623 68.8453 168.089 68.664C167.567 68.4827 167.081 68.2693 166.633 68.024C166.185 67.768 165.801 67.496 165.481 67.208L166.633 65.384C166.761 65.1707 166.921 65.0053 167.113 64.888C167.316 64.76 167.572 64.696 167.881 64.696C168.169 64.696 168.425 64.76 168.649 64.888C168.884 65.016 169.135 65.1547 169.401 65.304C169.668 65.4533 169.977 65.592 170.329 65.72C170.692 65.848 171.145 65.912 171.689 65.912C172.073 65.912 172.399 65.8747 172.665 65.8C172.932 65.7147 173.145 65.6027 173.305 65.464C173.465 65.3253 173.583 65.1707 173.657 65C173.732 64.8293 173.769 64.6533 173.769 64.472C173.769 64.1413 173.657 63.8693 173.433 63.656C173.209 63.4427 172.916 63.2613 172.553 63.112C172.191 62.952 171.775 62.808 171.305 62.68C170.847 62.5413 170.377 62.3867 169.897 62.216C169.417 62.0453 168.943 61.8427 168.473 61.608C168.015 61.3627 167.604 61.0587 167.241 60.696C166.879 60.3227 166.585 59.8693 166.361 59.336C166.137 58.8027 166.025 58.1573 166.025 57.4C166.025 56.696 166.159 56.0293 166.425 55.4C166.703 54.76 167.113 54.2 167.657 53.72C168.201 53.24 168.884 52.8613 169.705 52.584C170.527 52.296 171.487 52.152 172.585 52.152C173.183 52.152 173.759 52.2053 174.313 52.312C174.879 52.4187 175.407 52.568 175.897 52.76C176.388 52.952 176.836 53.1813 177.241 53.448C177.647 53.704 178.004 53.9867 178.313 54.296L177.193 56.04Z" fill="black"/>
</svg>
