<svg width="227" height="90" viewBox="0 0 227 90" fill="none" xmlns="http://www.w3.org/2000/svg">
<path d="M60.612 19.544C60.612 21.2613 60.34 22.84 59.796 24.28C59.252 25.7093 58.484 26.9413 57.492 27.976C56.5 29.0107 55.3053 29.816 53.908 30.392C52.5213 30.9573 50.9853 31.24 49.3 31.24C47.6147 31.24 46.0787 30.9573 44.692 30.392C43.3053 29.816 42.116 29.0107 41.124 27.976C40.132 26.9413 39.364 25.7093 38.82 24.28C38.276 22.84 38.004 21.2613 38.004 19.544C38.004 17.8267 38.276 16.2533 38.82 14.824C39.364 13.384 40.132 12.1467 41.124 11.112C42.116 10.0667 43.3053 9.256 44.692 8.68C46.0787 8.104 47.6147 7.816 49.3 7.816C50.9853 7.816 52.5213 8.104 53.908 8.68C55.3053 9.256 56.5 10.0667 57.492 11.112C58.484 12.1467 59.252 13.384 59.796 14.824C60.34 16.2533 60.612 17.8267 60.612 19.544ZM57.428 19.544C57.428 18.136 57.236 16.872 56.852 15.752C56.468 14.632 55.924 13.688 55.22 12.92C54.516 12.1413 53.6627 11.544 52.66 11.128C51.6573 10.712 50.5373 10.504 49.3 10.504C48.0733 10.504 46.9587 10.712 45.956 11.128C44.9533 11.544 44.0947 12.1413 43.38 12.92C42.676 13.688 42.132 14.632 41.748 15.752C41.364 16.872 41.172 18.136 41.172 19.544C41.172 20.952 41.364 22.216 41.748 23.336C42.132 24.4453 42.676 25.3893 43.38 26.168C44.0947 26.936 44.9533 27.528 45.956 27.944C46.9587 28.3493 48.0733 28.552 49.3 28.552C50.5373 28.552 51.6573 28.3493 52.66 27.944C53.6627 27.528 54.516 26.936 55.22 26.168C55.924 25.3893 56.468 24.4453 56.852 23.336C57.236 22.216 57.428 20.952 57.428 19.544ZM77.459 14.792V31H75.763C75.3577 31 75.1017 30.8027 74.995 30.408L74.771 28.664C74.067 29.4427 73.2777 30.072 72.403 30.552C71.5283 31.0213 70.5257 31.256 69.395 31.256C68.5097 31.256 67.7257 31.112 67.043 30.824C66.371 30.5253 65.8057 30.1093 65.347 29.576C64.8883 29.0427 64.5417 28.3973 64.307 27.64C64.083 26.8827 63.971 26.0453 63.971 25.128V14.792H66.819V25.128C66.819 26.3547 67.0963 27.304 67.651 27.976C68.2163 28.648 69.075 28.984 70.227 28.984C71.0697 28.984 71.8537 28.7867 72.579 28.392C73.315 27.9867 73.9923 27.432 74.611 26.728V14.792H77.459ZM84.6788 18.04C85.1908 16.9307 85.8201 16.0667 86.5668 15.448C87.3134 14.8187 88.2254 14.504 89.3028 14.504C89.6441 14.504 89.9694 14.5413 90.2788 14.616C90.5988 14.6907 90.8814 14.808 91.1268 14.968L90.9188 17.096C90.8548 17.3627 90.6948 17.496 90.4388 17.496C90.2894 17.496 90.0708 17.464 89.7828 17.4C89.4948 17.336 89.1694 17.304 88.8068 17.304C88.2948 17.304 87.8361 17.3787 87.4308 17.528C87.0361 17.6773 86.6788 17.9013 86.3588 18.2C86.0494 18.488 85.7668 18.8507 85.5108 19.288C85.2654 19.7147 85.0414 20.2053 84.8388 20.76V31H81.9748V14.792H83.6068C83.9161 14.792 84.1294 14.8507 84.2468 14.968C84.3641 15.0853 84.4441 15.288 84.4868 15.576L84.6788 18.04ZM64.964 45.688V69H60.196V55.592C60.196 55.2827 60.2013 54.9467 60.212 54.584C60.2333 54.2213 60.2653 53.8533 60.308 53.48L54.116 65.464C53.924 65.8373 53.6627 66.12 53.332 66.312C53.012 66.504 52.644 66.6 52.228 66.6H51.492C51.076 66.6 50.7027 66.504 50.372 66.312C50.052 66.12 49.796 65.8373 49.604 65.464L43.412 53.448C43.444 53.832 43.4707 54.2107 43.492 54.584C43.5133 54.9467 43.524 55.2827 43.524 55.592V69H38.756V45.688H42.884C43.1187 45.688 43.3213 45.6933 43.492 45.704C43.6733 45.7147 43.8333 45.7467 43.972 45.8C44.1107 45.8533 44.2333 45.9387 44.34 46.056C44.4573 46.1627 44.5693 46.3173 44.676 46.52L50.676 58.344C50.8893 58.7493 51.092 59.1707 51.284 59.608C51.4867 60.0453 51.6787 60.4933 51.86 60.952C52.0413 60.4827 52.228 60.024 52.42 59.576C52.6227 59.128 52.836 58.7013 53.06 58.296L59.044 46.52C59.1507 46.3173 59.2573 46.1627 59.364 46.056C59.4813 45.9387 59.6093 45.8533 59.748 45.8C59.8867 45.7467 60.0413 45.7147 60.212 45.704C60.3933 45.6933 60.6013 45.688 60.836 45.688H64.964ZM78.7188 58.712C78.7188 58.3173 78.6654 57.9333 78.5588 57.56C78.4628 57.1867 78.2974 56.856 78.0628 56.568C77.8388 56.2693 77.5401 56.0293 77.1668 55.848C76.7934 55.6667 76.3401 55.576 75.8068 55.576C74.8681 55.576 74.1321 55.848 73.5988 56.392C73.0654 56.9253 72.7134 57.6987 72.5428 58.712H78.7188ZM72.4788 61.592C72.6388 62.9787 73.0601 63.9867 73.7428 64.616C74.4254 65.2347 75.3054 65.544 76.3828 65.544C76.9588 65.544 77.4548 65.4747 77.8708 65.336C78.2868 65.1973 78.6548 65.0427 78.9748 64.872C79.3054 64.7013 79.6041 64.5467 79.8708 64.408C80.1481 64.2693 80.4361 64.2 80.7348 64.2C81.1294 64.2 81.4281 64.344 81.6308 64.632L83.0708 66.408C82.5588 66.9947 82.0041 67.4747 81.4068 67.848C80.8201 68.2107 80.2121 68.4987 79.5828 68.712C78.9641 68.9147 78.3401 69.0533 77.7108 69.128C77.0921 69.2133 76.5001 69.256 75.9348 69.256C74.7721 69.256 73.6788 69.0693 72.6548 68.696C71.6414 68.312 70.7508 67.7467 69.9828 67C69.2254 66.2533 68.6228 65.3253 68.1748 64.216C67.7374 63.1067 67.5188 61.816 67.5188 60.344C67.5188 59.2347 67.7054 58.184 68.0788 57.192C68.4628 56.2 69.0068 55.3307 69.7108 54.584C70.4254 53.8373 71.2841 53.2453 72.2868 52.808C73.3001 52.3707 74.4414 52.152 75.7108 52.152C76.8094 52.152 77.8121 52.3227 78.7188 52.664C79.6361 53.0053 80.4201 53.5013 81.0708 54.152C81.7321 54.8027 82.2441 55.6027 82.6068 56.552C82.9801 57.4907 83.1667 58.5573 83.1667 59.752C83.1667 60.1253 83.1508 60.4293 83.1188 60.664C83.0868 60.8987 83.0281 61.0853 82.9428 61.224C82.8574 61.3627 82.7401 61.4587 82.5908 61.512C82.4521 61.5653 82.2708 61.592 82.0468 61.592H72.4788ZM91.366 69.256C90.5767 69.256 89.878 69.144 89.27 68.92C88.6727 68.6853 88.166 68.36 87.75 67.944C87.3447 67.5173 87.0353 67.0053 86.822 66.408C86.6087 65.8107 86.502 65.144 86.502 64.408V55.832H85.094C84.838 55.832 84.6193 55.752 84.438 55.592C84.2567 55.4213 84.166 55.176 84.166 54.856V52.92L86.806 52.408L87.782 48.36C87.91 47.848 88.2727 47.592 88.87 47.592H91.462V52.44H95.574V55.832H91.462V64.072C91.462 64.456 91.5527 64.776 91.734 65.032C91.926 65.2773 92.198 65.4 92.55 65.4C92.7313 65.4 92.8807 65.384 92.998 65.352C93.126 65.3093 93.2327 65.2667 93.318 65.224C93.414 65.1707 93.4993 65.128 93.574 65.096C93.6593 65.0533 93.7553 65.032 93.862 65.032C94.0113 65.032 94.1287 65.0693 94.214 65.144C94.31 65.208 94.406 65.3147 94.502 65.464L96.006 67.816C95.366 68.296 94.646 68.6587 93.846 68.904C93.046 69.1387 92.2193 69.256 91.366 69.256ZM102.671 53.864C103.269 53.352 103.914 52.9413 104.607 52.632C105.311 52.312 106.149 52.152 107.119 52.152C108.026 52.152 108.826 52.312 109.519 52.632C110.223 52.9413 110.815 53.3787 111.295 53.944C111.775 54.4987 112.138 55.1653 112.383 55.944C112.629 56.712 112.751 57.5493 112.751 58.456V69H107.791V58.456C107.791 57.6453 107.605 57.016 107.231 56.568C106.858 56.1093 106.309 55.88 105.583 55.88C105.039 55.88 104.527 55.9973 104.047 56.232C103.578 56.456 103.119 56.7653 102.671 57.16V69H97.7113V45.048H102.671V53.864ZM123.609 52.152C124.868 52.152 126.015 52.3493 127.049 52.744C128.084 53.1387 128.969 53.704 129.705 54.44C130.452 55.176 131.028 56.072 131.433 57.128C131.849 58.1733 132.057 59.352 132.057 60.664C132.057 61.9867 131.849 63.1813 131.433 64.248C131.028 65.304 130.452 66.2053 129.705 66.952C128.969 67.688 128.084 68.2587 127.049 68.664C126.015 69.0587 124.868 69.256 123.609 69.256C122.34 69.256 121.183 69.0587 120.137 68.664C119.103 68.2587 118.207 67.688 117.449 66.952C116.703 66.2053 116.121 65.304 115.705 64.248C115.3 63.1813 115.097 61.9867 115.097 60.664C115.097 59.352 115.3 58.1733 115.705 57.128C116.121 56.072 116.703 55.176 117.449 54.44C118.207 53.704 119.103 53.1387 120.137 52.744C121.183 52.3493 122.34 52.152 123.609 52.152ZM123.609 65.576C124.751 65.576 125.588 65.176 126.121 64.376C126.665 63.5653 126.937 62.3387 126.937 60.696C126.937 59.0533 126.665 57.832 126.121 57.032C125.588 56.232 124.751 55.832 123.609 55.832C122.436 55.832 121.577 56.232 121.033 57.032C120.489 57.832 120.217 59.0533 120.217 60.696C120.217 62.3387 120.489 63.5653 121.033 64.376C121.577 65.176 122.436 65.576 123.609 65.576ZM144.619 56.856C144.246 56.44 143.84 56.152 143.403 55.992C142.966 55.8213 142.507 55.736 142.027 55.736C141.568 55.736 141.147 55.8267 140.763 56.008C140.379 56.1893 140.043 56.4827 139.755 56.888C139.478 57.2827 139.259 57.8 139.099 58.44C138.939 59.08 138.859 59.8533 138.859 60.76C138.859 61.6347 138.923 62.3707 139.051 62.968C139.179 63.5653 139.355 64.0507 139.579 64.424C139.814 64.7867 140.091 65.048 140.411 65.208C140.731 65.368 141.088 65.448 141.483 65.448C141.846 65.448 142.171 65.416 142.459 65.352C142.758 65.2773 143.03 65.176 143.275 65.048C143.52 64.92 143.75 64.76 143.963 64.568C144.187 64.3653 144.406 64.136 144.619 63.88V56.856ZM149.579 45.048V69H146.507C145.888 69 145.483 68.7227 145.291 68.168L144.907 66.904C144.576 67.256 144.23 67.576 143.867 67.864C143.504 68.152 143.11 68.4027 142.683 68.616C142.267 68.8187 141.814 68.9733 141.323 69.08C140.843 69.1973 140.32 69.256 139.755 69.256C138.891 69.256 138.091 69.064 137.355 68.68C136.619 68.296 135.984 67.7413 135.451 67.016C134.918 66.2907 134.496 65.4053 134.187 64.36C133.888 63.304 133.739 62.104 133.739 60.76C133.739 59.5227 133.91 58.376 134.251 57.32C134.592 56.2533 135.072 55.336 135.691 54.568C136.32 53.7893 137.072 53.1813 137.947 52.744C138.822 52.3067 139.787 52.088 140.843 52.088C141.707 52.088 142.432 52.2107 143.019 52.456C143.606 52.7013 144.139 53.032 144.619 53.448V45.048H149.579ZM163.474 56.04C163.346 56.2427 163.207 56.3867 163.058 56.472C162.919 56.5573 162.738 56.6 162.514 56.6C162.279 56.6 162.045 56.552 161.81 56.456C161.575 56.3493 161.319 56.2373 161.042 56.12C160.775 56.0027 160.471 55.896 160.13 55.8C159.789 55.6933 159.399 55.64 158.962 55.64C158.333 55.64 157.847 55.7627 157.506 56.008C157.175 56.2427 157.01 56.5733 157.01 57C157.01 57.3093 157.117 57.5653 157.33 57.768C157.554 57.9707 157.847 58.152 158.21 58.312C158.573 58.4613 158.983 58.6053 159.442 58.744C159.901 58.8827 160.37 59.0373 160.85 59.208C161.33 59.3787 161.799 59.5813 162.258 59.816C162.717 60.04 163.127 60.3227 163.49 60.664C163.853 60.9947 164.141 61.4 164.354 61.88C164.578 62.36 164.69 62.936 164.69 63.608C164.69 64.4293 164.541 65.1867 164.242 65.88C163.943 66.5733 163.495 67.1707 162.898 67.672C162.311 68.1733 161.581 68.5627 160.706 68.84C159.842 69.1173 158.845 69.256 157.714 69.256C157.149 69.256 156.583 69.2027 156.018 69.096C155.453 68.9893 154.903 68.8453 154.37 68.664C153.847 68.4827 153.362 68.2693 152.914 68.024C152.466 67.768 152.082 67.496 151.762 67.208L152.914 65.384C153.042 65.1707 153.202 65.0053 153.394 64.888C153.597 64.76 153.853 64.696 154.162 64.696C154.45 64.696 154.706 64.76 154.93 64.888C155.165 65.016 155.415 65.1547 155.682 65.304C155.949 65.4533 156.258 65.592 156.61 65.72C156.973 65.848 157.426 65.912 157.97 65.912C158.354 65.912 158.679 65.8747 158.946 65.8C159.213 65.7147 159.426 65.6027 159.586 65.464C159.746 65.3253 159.863 65.1707 159.938 65C160.013 64.8293 160.05 64.6533 160.05 64.472C160.05 64.1413 159.938 63.8693 159.714 63.656C159.49 63.4427 159.197 63.2613 158.834 63.112C158.471 62.952 158.055 62.808 157.586 62.68C157.127 62.5413 156.658 62.3867 156.178 62.216C155.698 62.0453 155.223 61.8427 154.754 61.608C154.295 61.3627 153.885 61.0587 153.522 60.696C153.159 60.3227 152.866 59.8693 152.642 59.336C152.418 58.8027 152.306 58.1573 152.306 57.4C152.306 56.696 152.439 56.0293 152.706 55.4C152.983 54.76 153.394 54.2 153.938 53.72C154.482 53.24 155.165 52.8613 155.986 52.584C156.807 52.296 157.767 52.152 158.866 52.152C159.463 52.152 160.039 52.2053 160.594 52.312C161.159 52.4187 161.687 52.568 162.178 52.76C162.669 52.952 163.117 53.1813 163.522 53.448C163.927 53.704 164.285 53.9867 164.594 54.296L163.474 56.04Z" fill="black"/>
<path d="M25.8 43.536H16.92V53.088H10.872V43.536H2.04V38.208H10.872V28.704H16.92V38.208H25.8V43.536Z" fill="black"/>
</svg>
