<svg width="260" height="172" viewBox="0 0 260 172" fill="none" xmlns="http://www.w3.org/2000/svg">
<path d="M99.5625 48.6875V140.562H119.25V124.156V117.594H125.812H138.938H145.5V124.156V140.562H165.188V48.6875H99.5625ZM125.812 140.562H138.938V124.156H125.812V140.562ZM119.25 147.125H99.5625H93V140.562V48.6875V42.125H99.5625H165.188H171.75V48.6875V140.562V147.125H165.188H145.5H138.938H125.812H119.25ZM106.125 61.8125H109.406H122.531H125.812V65.0938V78.2188V81.5H122.531H109.406H106.125V78.2188V65.0938V61.8125ZM112.688 68.375V74.9375H119.25V68.375H112.688ZM142.219 61.8125H155.344H158.625V65.0938V78.2188V81.5H155.344H142.219H138.938V78.2188V65.0938V61.8125H142.219ZM145.5 74.9375H152.062V68.375H145.5V74.9375ZM106.125 88.0625H109.406H122.531H125.812V91.3438V104.469V107.75H122.531H109.406H106.125V104.469V91.3438V88.0625ZM112.688 94.625V101.188H119.25V94.625H112.688ZM142.219 88.0625H155.344H158.625V91.3438V104.469V107.75H155.344H142.219H138.938V104.469V91.3438V88.0625H142.219ZM145.5 101.188H152.062V94.625H145.5V101.188Z" fill="#00315C"/>
</svg>
