<svg width="260" height="172" viewBox="0 0 260 172" fill="none" xmlns="http://www.w3.org/2000/svg">
<path d="M133.375 53.1875V56.7031C134.938 56.8984 136.5 57.2891 138.062 57.6797C139.625 58.0703 140.602 59.8281 140.211 61.3906C139.82 63.1484 138.062 64.125 136.305 63.7344C134.156 63.1484 132.008 62.7578 130.055 62.5625C128.492 62.5625 126.734 62.9531 125.562 63.7344C124.391 64.3203 124 65.1016 124 66.2734C124 66.8594 124.195 67.4453 125.367 68.2266C126.734 69.0078 128.492 69.5938 131.031 70.375H131.227C133.375 70.9609 136.109 71.7422 138.258 73.1094C140.602 74.6719 142.555 77.0156 142.75 80.7266C142.75 84.4375 140.797 87.1719 138.258 88.7344C136.695 89.7109 134.938 90.2969 133.375 90.4922V93.8125C133.375 95.5703 131.812 96.9375 130.25 96.9375C128.492 96.9375 127.125 95.5703 127.125 93.8125V90.4922C124.781 90.1016 122.828 89.3203 121.07 88.7344C120.68 88.5391 120.094 88.3438 119.703 88.3438C118.141 87.7578 117.359 86 117.75 84.2422C118.336 82.6797 120.094 81.8984 121.852 82.2891C122.242 82.4844 122.633 82.6797 123.219 82.875C125.758 83.6562 127.906 84.4375 130.25 84.4375C132.008 84.6328 133.766 84.2422 134.938 83.4609C135.914 82.875 136.5 82.0938 136.305 80.7266C136.305 79.9453 136.109 79.1641 134.938 78.5781C133.57 77.6016 131.617 77.0156 129.273 76.2344H128.883C126.734 75.6484 124.195 74.8672 122.047 73.5C119.703 72.1328 117.75 69.7891 117.75 66.2734C117.75 62.5625 119.703 59.8281 122.242 58.2656C123.805 57.4844 125.367 56.8984 127.125 56.7031V53.1875C127.125 51.625 128.492 50.0625 130.25 50.0625C131.812 50.0625 133.375 51.625 133.375 53.1875ZM103.492 110.609C106.031 108.852 108.961 107.875 112.086 107.875H141.188C147.047 107.875 152.125 112.953 152.125 118.812C152.125 120.57 151.734 122.133 150.953 123.5H152.125L170.484 112.562C172.242 111.586 174 111 175.953 111H176.148C181.812 111 186.5 115.688 186.5 121.352C186.5 124.672 184.742 127.992 181.812 129.945L158.375 144.984C154.859 147.328 150.758 148.5 146.461 148.5H77.125C75.3672 148.5 74 147.133 74 145.375C74 143.812 75.3672 142.25 77.125 142.25H146.461C149.586 142.25 152.516 141.469 155.055 139.906L178.297 124.672C179.469 123.891 180.055 122.719 180.055 121.352C180.055 119.203 178.297 117.25 176.148 117.25H175.953C175.172 117.25 174.391 117.641 173.805 117.836L154.469 129.359C154.078 129.75 153.492 129.75 152.906 129.75H141.188H136.5H124C122.242 129.75 120.875 128.383 120.875 126.625C120.875 125.062 122.242 123.5 124 123.5H136.5H141.188C143.727 123.5 145.875 121.547 145.875 118.812C145.875 116.273 143.727 114.125 141.188 114.125H112.086C110.133 114.125 108.375 114.711 106.812 115.883L91.1875 126.234L90.4062 126.625H89.625H77.125C75.3672 126.625 74 125.258 74 123.5C74 121.938 75.3672 120.375 77.125 120.375H88.6484L103.492 110.609Z" fill="#00315C"/>
</svg>
