<svg width="260" height="172" viewBox="0 0 260 172" fill="none" xmlns="http://www.w3.org/2000/svg">
<path d="M49.6055 67.75C49.6055 72.7917 50.8971 76.6458 53.4805 79.3125C56.1055 81.9375 59.8138 83.25 64.6055 83.25C67.1055 83.25 69.3346 82.8542 71.293 82.0625C73.2513 81.2708 74.8971 80.1875 76.2305 78.8125C77.5638 77.4375 78.5638 75.8125 79.2305 73.9375C79.9388 72.0625 80.293 70.0417 80.293 67.875C80.293 65.4167 79.918 63.2292 79.168 61.3125C78.418 59.3542 77.3555 57.7083 75.9805 56.375C74.6055 55.0417 72.9596 54.0208 71.043 53.3125C69.168 52.6042 67.1055 52.25 64.8555 52.25C62.5221 52.25 60.418 52.6458 58.543 53.4375C56.668 54.1875 55.0638 55.25 53.7305 56.625C52.3971 58 51.3763 59.6458 50.668 61.5625C49.9596 63.4375 49.6055 65.5 49.6055 67.75ZM70.1055 95.9375C70.8138 95.0625 71.4805 94.2083 72.1055 93.375C72.7305 92.5417 73.3346 91.7083 73.918 90.875C71.8346 92.2083 69.543 93.2292 67.043 93.9375C64.543 94.6042 61.918 94.9375 59.168 94.9375C56.043 94.9375 52.9805 94.3958 49.9805 93.3125C46.9805 92.2292 44.3138 90.6042 41.9805 88.4375C39.6471 86.2292 37.7513 83.5208 36.293 80.3125C34.8763 77.0625 34.168 73.2708 34.168 68.9375C34.168 64.8958 34.918 61.1042 36.418 57.5625C37.918 54.0208 40.0221 50.9167 42.7305 48.25C45.4388 45.5833 48.6888 43.4792 52.4805 41.9375C56.2721 40.3958 60.4596 39.625 65.043 39.625C69.668 39.625 73.8138 40.3542 77.4805 41.8125C81.1888 43.2708 84.3346 45.3125 86.918 47.9375C89.543 50.5625 91.543 53.7083 92.918 57.375C94.3346 61.0417 95.043 65.0625 95.043 69.4375C95.043 72.2292 94.793 74.875 94.293 77.375C93.8346 79.875 93.168 82.2917 92.293 84.625C91.418 86.9167 90.3555 89.1667 89.1055 91.375C87.8555 93.5833 86.4596 95.7708 84.918 97.9375L64.2305 127.437C63.5221 128.437 62.4596 129.292 61.043 130C59.6263 130.667 58.0221 131 56.2305 131H42.043L70.1055 95.9375ZM145.99 96.9375V67.375C145.99 64.5833 146.178 61.5 146.553 58.125L118.49 96.9375H145.99ZM170.803 96.9375V105.875C170.803 106.708 170.532 107.437 169.99 108.062C169.449 108.646 168.678 108.937 167.678 108.937H159.428V131H145.99V108.937H107.865C106.824 108.937 105.907 108.625 105.115 108C104.324 107.333 103.824 106.521 103.615 105.562L101.99 97.75L144.803 40.5625H159.428V96.9375H170.803Z" fill="#30A8C2"/>
<path d="M203.725 55.6C203.725 57.6 203.363 59.425 202.638 61.075C201.913 62.725 200.95 64.15 199.75 65.35C198.55 66.525 197.15 67.4375 195.55 68.0875C193.975 68.7375 192.325 69.0625 190.6 69.0625C188.7 69.0625 186.95 68.7375 185.35 68.0875C183.775 67.4375 182.4 66.525 181.225 65.35C180.075 64.15 179.175 62.725 178.525 61.075C177.875 59.425 177.55 57.6 177.55 55.6C177.55 53.525 177.875 51.65 178.525 49.975C179.175 48.275 180.075 46.825 181.225 45.625C182.4 44.425 183.775 43.5 185.35 42.85C186.95 42.175 188.7 41.8375 190.6 41.8375C192.5 41.8375 194.25 42.175 195.85 42.85C197.475 43.5 198.863 44.425 200.013 45.625C201.188 46.825 202.1 48.275 202.75 49.975C203.4 51.65 203.725 53.525 203.725 55.6ZM194.8 55.6C194.8 54.325 194.688 53.275 194.463 52.45C194.263 51.6 193.975 50.925 193.6 50.425C193.225 49.925 192.775 49.575 192.25 49.375C191.75 49.175 191.2 49.075 190.6 49.075C190 49.075 189.45 49.175 188.95 49.375C188.45 49.575 188.025 49.925 187.675 50.425C187.325 50.925 187.05 51.6 186.85 52.45C186.65 53.275 186.55 54.325 186.55 55.6C186.55 56.8 186.65 57.8 186.85 58.6C187.05 59.4 187.325 60.0375 187.675 60.5125C188.025 60.9875 188.45 61.325 188.95 61.525C189.45 61.725 190 61.825 190.6 61.825C191.2 61.825 191.75 61.725 192.25 61.525C192.775 61.325 193.225 60.9875 193.6 60.5125C193.975 60.0375 194.263 59.4 194.463 58.6C194.688 57.8 194.8 56.8 194.8 55.6ZM220.9 44.0875C221.275 43.6625 221.738 43.275 222.288 42.925C222.838 42.55 223.6 42.3625 224.575 42.3625H233.05L191.875 95.35C191.5 95.825 191.025 96.225 190.45 96.55C189.9 96.85 189.225 97 188.425 97H179.725L220.9 44.0875ZM235.15 84.175C235.15 86.175 234.788 88.0125 234.063 89.6875C233.338 91.3375 232.375 92.7625 231.175 93.9625C229.975 95.1375 228.575 96.05 226.975 96.7C225.4 97.35 223.75 97.675 222.025 97.675C220.125 97.675 218.375 97.35 216.775 96.7C215.2 96.05 213.825 95.1375 212.65 93.9625C211.5 92.7625 210.6 91.3375 209.95 89.6875C209.3 88.0125 208.975 86.175 208.975 84.175C208.975 82.1 209.3 80.225 209.95 78.55C210.6 76.85 211.5 75.4 212.65 74.2C213.825 73 215.2 72.075 216.775 71.425C218.375 70.75 220.125 70.4125 222.025 70.4125C223.925 70.4125 225.675 70.75 227.275 71.425C228.9 72.075 230.288 73 231.438 74.2C232.613 75.4 233.525 76.85 234.175 78.55C234.825 80.225 235.15 82.1 235.15 84.175ZM226.225 84.175C226.225 82.925 226.113 81.8875 225.888 81.0625C225.688 80.2125 225.4 79.5375 225.025 79.0375C224.65 78.5375 224.2 78.1875 223.675 77.9875C223.175 77.7875 222.625 77.6875 222.025 77.6875C221.425 77.6875 220.875 77.7875 220.375 77.9875C219.875 78.1875 219.45 78.5375 219.1 79.0375C218.75 79.5375 218.475 80.2125 218.275 81.0625C218.075 81.8875 217.975 82.925 217.975 84.175C217.975 85.375 218.075 86.375 218.275 87.175C218.475 87.975 218.75 88.6125 219.1 89.0875C219.45 89.5625 219.875 89.9 220.375 90.1C220.875 90.3 221.425 90.4 222.025 90.4C222.625 90.4 223.175 90.3 223.675 90.1C224.2 89.9 224.65 89.5625 225.025 89.0875C225.4 88.6125 225.688 87.975 225.888 87.175C226.113 86.375 226.225 85.375 226.225 84.175Z" fill="#30A8C2"/>
</svg>
