<svg width="260" height="180" viewBox="0 0 260 180" fill="none" xmlns="http://www.w3.org/2000/svg">
<path d="M146.605 128.207C145.435 130.052 144.175 131.312 142.825 131.987C141.52 132.662 139.99 133 138.235 133H131.148L187.443 40.8625C188.523 39.1525 189.738 37.825 191.088 36.88C192.483 35.89 194.17 35.395 196.15 35.395H203.305L146.605 128.207ZM157.338 77.65V85.345H128.245V77.65H137.628V53.35L137.965 49.9075L132.768 54.025C132.228 54.43 131.665 54.6775 131.08 54.7675C130.54 54.8575 130.023 54.8575 129.528 54.7675C129.078 54.6325 128.673 54.4525 128.313 54.2275C127.953 54.0025 127.683 53.755 127.503 53.485L123.79 48.4225L139.518 35.3275H149.575V77.65H157.338ZM208.368 122.2C209.628 122.2 210.595 122.537 211.27 123.212C211.99 123.887 212.35 124.787 212.35 125.912V133H175.833V129.152C175.833 128.387 175.968 127.577 176.238 126.722C176.553 125.867 177.07 125.08 177.79 124.36L191.898 110.455C192.888 109.465 193.833 108.43 194.733 107.35C195.633 106.225 196.398 105.122 197.028 104.042C197.658 102.917 198.153 101.815 198.513 100.735C198.918 99.61 199.12 98.53 199.12 97.495C199.12 95.875 198.67 94.57 197.77 93.58C196.915 92.545 195.7 92.0275 194.125 92.0275C192.64 92.0275 191.448 92.41 190.548 93.175C189.648 93.895 188.905 94.9525 188.32 96.3475C187.69 97.3375 186.993 98.035 186.228 98.44C185.463 98.845 184.293 98.9125 182.718 98.6425L176.035 97.63C176.44 95.065 177.16 92.8375 178.195 90.9475C179.275 89.0125 180.625 87.415 182.245 86.155C183.865 84.895 185.733 83.9725 187.848 83.3875C189.963 82.7575 192.28 82.4425 194.8 82.4425C197.41 82.4425 199.728 82.825 201.753 83.59C203.823 84.355 205.555 85.39 206.95 86.695C208.39 88 209.47 89.5525 210.19 91.3525C210.91 93.1075 211.27 95.02 211.27 97.09C211.27 98.935 210.978 100.622 210.393 102.152C209.853 103.682 209.11 105.145 208.165 106.54C207.265 107.935 206.208 109.285 204.993 110.59C203.778 111.895 202.518 113.222 201.213 114.572L192.573 123.347C193.833 122.987 195.07 122.717 196.285 122.537C197.5 122.312 198.625 122.2 199.66 122.2H208.368Z" fill="#30A8C2"/>
<path d="M49.6939 92.065C49.6939 93.645 49.4189 95.115 48.8689 96.475C48.3289 97.835 47.5639 99.02 46.5739 100.03C45.5839 101.03 44.3889 101.815 42.9889 102.385C41.5989 102.955 40.0539 103.24 38.3539 103.24C36.6539 103.24 35.1039 102.955 33.7039 102.385C32.3039 101.815 31.1039 101.03 30.1039 100.03C29.1139 99.02 28.3439 97.835 27.7939 96.475C27.2539 95.115 26.9839 93.645 26.9839 92.065C26.9839 90.485 27.2539 89.015 27.7939 87.655C28.3439 86.295 29.1139 85.115 30.1039 84.115C31.1039 83.115 32.3039 82.33 33.7039 81.76C35.1039 81.19 36.6539 80.905 38.3539 80.905C40.0539 80.905 41.5989 81.195 42.9889 81.775C44.3889 82.345 45.5839 83.13 46.5739 84.13C47.5639 85.13 48.3289 86.31 48.8689 87.67C49.4189 89.03 49.6939 90.495 49.6939 92.065ZM44.5039 92.065C44.5039 90.985 44.3639 90.015 44.0839 89.155C43.8039 88.285 43.3989 87.55 42.8689 86.95C42.3489 86.35 41.7089 85.89 40.9489 85.57C40.1889 85.25 39.3239 85.09 38.3539 85.09C37.3739 85.09 36.4989 85.25 35.7289 85.57C34.9689 85.89 34.3239 86.35 33.7939 86.95C33.2739 87.55 32.8739 88.285 32.5939 89.155C32.3139 90.015 32.1739 90.985 32.1739 92.065C32.1739 93.155 32.3139 94.135 32.5939 95.005C32.8739 95.865 33.2739 96.595 33.7939 97.195C34.3239 97.795 34.9689 98.255 35.7289 98.575C36.4989 98.885 37.3739 99.04 38.3539 99.04C39.3239 99.04 40.1889 98.885 40.9489 98.575C41.7089 98.255 42.3489 97.795 42.8689 97.195C43.3989 96.595 43.8039 95.865 44.0839 95.005C44.3639 94.135 44.5039 93.155 44.5039 92.065ZM71.7575 81.145V103H69.1175C68.7275 103 68.3975 102.94 68.1275 102.82C67.8675 102.69 67.6075 102.47 67.3475 102.16L57.0425 89.125C57.0825 89.515 57.1075 89.895 57.1175 90.265C57.1375 90.625 57.1475 90.965 57.1475 91.285V103H52.6775V81.145H55.3475C55.5675 81.145 55.7525 81.155 55.9025 81.175C56.0525 81.195 56.1875 81.235 56.3075 81.295C56.4275 81.345 56.5425 81.42 56.6525 81.52C56.7625 81.62 56.8875 81.755 57.0275 81.925L67.4225 95.05C67.3725 94.63 67.3375 94.225 67.3175 93.835C67.2975 93.435 67.2875 93.06 67.2875 92.71V81.145H71.7575ZM89.1678 98.95V103H75.9978V81.145H81.0678V98.95H89.1678ZM99.3584 94.69V103H94.2884V94.69L86.3684 81.145H90.8384C91.2784 81.145 91.6234 81.25 91.8734 81.46C92.1334 81.66 92.3484 81.92 92.5184 82.24L95.6084 88.6C95.8684 89.1 96.1034 89.57 96.3134 90.01C96.5234 90.44 96.7084 90.865 96.8684 91.285C97.0184 90.855 97.1884 90.425 97.3784 89.995C97.5784 89.555 97.8084 89.09 98.0684 88.6L101.128 82.24C101.198 82.11 101.283 81.98 101.383 81.85C101.483 81.72 101.598 81.605 101.728 81.505C101.868 81.395 102.023 81.31 102.193 81.25C102.373 81.18 102.568 81.145 102.778 81.145H107.278L99.3584 94.69Z" fill="#30A8C2"/>
</svg>
