<svg width="260" height="172" viewBox="0 0 260 172" fill="none" xmlns="http://www.w3.org/2000/svg">
<path d="M96.2305 40.625V47.3125C96.2305 49.3125 96.0221 50.9375 95.6055 52.1875C95.1888 53.3958 94.7721 54.4167 94.3555 55.25L60.1055 125.75C59.3971 127.208 58.3971 128.458 57.1055 129.5C55.8138 130.5 54.0846 131 51.918 131H40.7305L75.668 61.9375C76.4596 60.5208 77.2305 59.2292 77.9805 58.0625C78.7721 56.8542 79.6471 55.7083 80.6055 54.625H37.3555C36.3971 54.625 35.5638 54.2708 34.8555 53.5625C34.1471 52.8542 33.793 52.0208 33.793 51.0625V40.625H96.2305ZM107.24 65.8125C107.865 61.4792 109.074 57.6875 110.865 54.4375C112.657 51.1458 114.886 48.4167 117.553 46.25C120.261 44.0417 123.344 42.3958 126.803 41.3125C130.303 40.1875 134.053 39.625 138.053 39.625C142.219 39.625 145.969 40.2292 149.303 41.4375C152.678 42.6042 155.553 44.25 157.928 46.375C160.303 48.4583 162.115 50.9167 163.365 53.75C164.657 56.5833 165.303 59.6458 165.303 62.9375C165.303 65.8125 164.969 68.3542 164.303 70.5625C163.678 72.7292 162.761 74.625 161.553 76.25C160.344 77.875 158.844 79.25 157.053 80.375C155.261 81.5 153.24 82.4375 150.99 83.1875C156.407 84.8958 160.449 87.5 163.115 91C165.782 94.5 167.115 98.8958 167.115 104.187C167.115 108.687 166.282 112.667 164.615 116.125C162.949 119.583 160.699 122.5 157.865 124.875C155.032 127.208 151.74 128.979 147.99 130.187C144.282 131.396 140.344 132 136.178 132C131.636 132 127.678 131.479 124.303 130.437C120.928 129.396 117.99 127.854 115.49 125.812C112.99 123.771 110.865 121.271 109.115 118.312C107.365 115.354 105.865 111.937 104.615 108.062L111.428 105.25C113.219 104.5 114.886 104.312 116.428 104.687C118.011 105.021 119.157 105.854 119.865 107.187C120.615 108.646 121.428 110.083 122.303 111.5C123.219 112.917 124.303 114.187 125.553 115.312C126.803 116.396 128.261 117.292 129.928 118C131.636 118.667 133.657 119 135.99 119C138.615 119 140.907 118.583 142.865 117.75C144.824 116.875 146.449 115.75 147.74 114.375C149.074 113 150.053 111.479 150.678 109.812C151.344 108.104 151.678 106.396 151.678 104.687C151.678 102.521 151.449 100.562 150.99 98.8125C150.532 97.0208 149.574 95.5 148.115 94.25C146.657 93 144.553 92.0208 141.803 91.3125C139.094 90.6042 135.449 90.25 130.865 90.25V79.25C134.657 79.2083 137.803 78.8542 140.303 78.1875C142.803 77.5208 144.782 76.6042 146.24 75.4375C147.74 74.2292 148.782 72.7917 149.365 71.125C149.949 69.4583 150.24 67.625 150.24 65.625C150.24 61.375 149.053 58.1458 146.678 55.9375C144.303 53.7292 141.136 52.625 137.178 52.625C135.344 52.625 133.657 52.8958 132.115 53.4375C130.574 53.9375 129.178 54.6667 127.928 55.625C126.719 56.5417 125.699 57.625 124.865 58.875C124.032 60.125 123.407 61.5 122.99 63C122.282 64.9167 121.344 66.1875 120.178 66.8125C119.053 67.4375 117.449 67.5833 115.365 67.25L107.24 65.8125Z" fill="#47A9C4"/>
<path d="M202.725 55.6C202.725 57.6 202.363 59.425 201.638 61.075C200.913 62.725 199.95 64.15 198.75 65.35C197.55 66.525 196.15 67.4375 194.55 68.0875C192.975 68.7375 191.325 69.0625 189.6 69.0625C187.7 69.0625 185.95 68.7375 184.35 68.0875C182.775 67.4375 181.4 66.525 180.225 65.35C179.075 64.15 178.175 62.725 177.525 61.075C176.875 59.425 176.55 57.6 176.55 55.6C176.55 53.525 176.875 51.65 177.525 49.975C178.175 48.275 179.075 46.825 180.225 45.625C181.4 44.425 182.775 43.5 184.35 42.85C185.95 42.175 187.7 41.8375 189.6 41.8375C191.5 41.8375 193.25 42.175 194.85 42.85C196.475 43.5 197.863 44.425 199.013 45.625C200.188 46.825 201.1 48.275 201.75 49.975C202.4 51.65 202.725 53.525 202.725 55.6ZM193.8 55.6C193.8 54.325 193.688 53.275 193.463 52.45C193.263 51.6 192.975 50.925 192.6 50.425C192.225 49.925 191.775 49.575 191.25 49.375C190.75 49.175 190.2 49.075 189.6 49.075C189 49.075 188.45 49.175 187.95 49.375C187.45 49.575 187.025 49.925 186.675 50.425C186.325 50.925 186.05 51.6 185.85 52.45C185.65 53.275 185.55 54.325 185.55 55.6C185.55 56.8 185.65 57.8 185.85 58.6C186.05 59.4 186.325 60.0375 186.675 60.5125C187.025 60.9875 187.45 61.325 187.95 61.525C188.45 61.725 189 61.825 189.6 61.825C190.2 61.825 190.75 61.725 191.25 61.525C191.775 61.325 192.225 60.9875 192.6 60.5125C192.975 60.0375 193.263 59.4 193.463 58.6C193.688 57.8 193.8 56.8 193.8 55.6ZM219.9 44.0875C220.275 43.6625 220.738 43.275 221.288 42.925C221.838 42.55 222.6 42.3625 223.575 42.3625H232.05L190.875 95.35C190.5 95.825 190.025 96.225 189.45 96.55C188.9 96.85 188.225 97 187.425 97H178.725L219.9 44.0875ZM234.15 84.175C234.15 86.175 233.788 88.0125 233.063 89.6875C232.338 91.3375 231.375 92.7625 230.175 93.9625C228.975 95.1375 227.575 96.05 225.975 96.7C224.4 97.35 222.75 97.675 221.025 97.675C219.125 97.675 217.375 97.35 215.775 96.7C214.2 96.05 212.825 95.1375 211.65 93.9625C210.5 92.7625 209.6 91.3375 208.95 89.6875C208.3 88.0125 207.975 86.175 207.975 84.175C207.975 82.1 208.3 80.225 208.95 78.55C209.6 76.85 210.5 75.4 211.65 74.2C212.825 73 214.2 72.075 215.775 71.425C217.375 70.75 219.125 70.4125 221.025 70.4125C222.925 70.4125 224.675 70.75 226.275 71.425C227.9 72.075 229.288 73 230.438 74.2C231.613 75.4 232.525 76.85 233.175 78.55C233.825 80.225 234.15 82.1 234.15 84.175ZM225.225 84.175C225.225 82.925 225.113 81.8875 224.888 81.0625C224.688 80.2125 224.4 79.5375 224.025 79.0375C223.65 78.5375 223.2 78.1875 222.675 77.9875C222.175 77.7875 221.625 77.6875 221.025 77.6875C220.425 77.6875 219.875 77.7875 219.375 77.9875C218.875 78.1875 218.45 78.5375 218.1 79.0375C217.75 79.5375 217.475 80.2125 217.275 81.0625C217.075 81.8875 216.975 82.925 216.975 84.175C216.975 85.375 217.075 86.375 217.275 87.175C217.475 87.975 217.75 88.6125 218.1 89.0875C218.45 89.5625 218.875 89.9 219.375 90.1C219.875 90.3 220.425 90.4 221.025 90.4C221.625 90.4 222.175 90.3 222.675 90.1C223.2 89.9 223.65 89.5625 224.025 89.0875C224.4 88.6125 224.688 87.975 224.888 87.175C225.113 86.375 225.225 85.375 225.225 84.175Z" fill="#47A9C4"/>
</svg>
