<svg width="260" height="172" viewBox="0 0 260 172" fill="none" xmlns="http://www.w3.org/2000/svg">
<path d="M62.2305 119.937C64.7721 119.937 67.0013 119.583 68.918 118.875C70.8346 118.125 72.4388 117.104 73.7305 115.812C75.0638 114.521 76.0638 112.979 76.7305 111.187C77.3971 109.396 77.7305 107.458 77.7305 105.375C77.7305 100.417 76.3555 96.6667 73.6055 94.125C70.8555 91.5833 67.0638 90.3125 62.2305 90.3125C57.3971 90.3125 53.6055 91.5833 50.8555 94.125C48.1055 96.6667 46.7305 100.417 46.7305 105.375C46.7305 107.458 47.0638 109.396 47.7305 111.187C48.3971 112.979 49.3763 114.521 50.668 115.812C52.0013 117.104 53.6263 118.125 55.543 118.875C57.4596 119.583 59.6888 119.937 62.2305 119.937ZM62.2305 51.25C59.9388 51.25 57.9596 51.6042 56.293 52.3125C54.6263 53.0208 53.2305 53.9792 52.1055 55.1875C51.0221 56.3542 50.2096 57.7083 49.668 59.25C49.168 60.7917 48.918 62.4167 48.918 64.125C48.918 65.9167 49.1263 67.6667 49.543 69.375C50.0013 71.0417 50.7513 72.5417 51.793 73.875C52.8346 75.1667 54.2096 76.2083 55.918 77C57.6263 77.7917 59.7305 78.1875 62.2305 78.1875C64.7305 78.1875 66.8346 77.7917 68.543 77C70.2513 76.2083 71.6263 75.1667 72.668 73.875C73.7096 72.5417 74.4388 71.0417 74.8555 69.375C75.3138 67.6667 75.543 65.9167 75.543 64.125C75.543 62.4167 75.2721 60.7917 74.7305 59.25C74.1888 57.7083 73.3763 56.3542 72.293 55.1875C71.2096 53.9792 69.8346 53.0208 68.168 52.3125C66.5013 51.6042 64.5221 51.25 62.2305 51.25ZM77.4805 83.875C82.9805 85.6667 87.043 88.4167 89.668 92.125C92.293 95.7917 93.6055 100.292 93.6055 105.625C93.6055 109.625 92.8346 113.25 91.293 116.5C89.793 119.75 87.668 122.521 84.918 124.812C82.168 127.104 78.8555 128.875 74.9805 130.125C71.1471 131.375 66.8971 132 62.2305 132C57.5638 132 53.293 131.375 49.418 130.125C45.5846 128.875 42.293 127.104 39.543 124.812C36.793 122.521 34.6471 119.75 33.1055 116.5C31.6055 113.25 30.8555 109.625 30.8555 105.625C30.8555 100.292 32.168 95.7917 34.793 92.125C37.418 88.4167 41.4805 85.6667 46.9805 83.875C42.6055 82.0417 39.3138 79.4375 37.1055 76.0625C34.9388 72.6875 33.8555 68.625 33.8555 63.875C33.8555 60.4583 34.543 57.2708 35.918 54.3125C37.3346 51.3542 39.293 48.7917 41.793 46.625C44.293 44.4167 47.2721 42.7083 50.7305 41.5C54.2305 40.25 58.0638 39.625 62.2305 39.625C66.3971 39.625 70.2096 40.25 73.668 41.5C77.168 42.7083 80.168 44.4167 82.668 46.625C85.168 48.7917 87.1055 51.3542 88.4805 54.3125C89.8971 57.2708 90.6055 60.4583 90.6055 63.875C90.6055 68.625 89.5013 72.6875 87.293 76.0625C85.1263 79.4375 81.8555 82.0417 77.4805 83.875ZM123.865 73.4375C125.865 73.0208 127.782 72.7292 129.615 72.5625C131.449 72.3542 133.219 72.25 134.928 72.25C139.678 72.25 143.865 72.9583 147.49 74.375C151.115 75.7917 154.157 77.75 156.615 80.25C159.074 82.75 160.928 85.6875 162.178 89.0625C163.428 92.3958 164.053 96 164.053 99.875C164.053 104.667 163.199 109.042 161.49 113C159.824 116.958 157.49 120.354 154.49 123.188C151.49 125.979 147.928 128.146 143.803 129.687C139.719 131.229 135.261 132 130.428 132C127.594 132 124.907 131.708 122.365 131.125C119.824 130.542 117.428 129.771 115.178 128.812C112.969 127.812 110.907 126.687 108.99 125.437C107.115 124.146 105.428 122.792 103.928 121.375L108.678 114.812C109.678 113.396 110.99 112.687 112.615 112.687C113.657 112.687 114.719 113.021 115.803 113.687C116.886 114.354 118.115 115.083 119.49 115.875C120.907 116.667 122.553 117.396 124.428 118.062C126.344 118.729 128.636 119.062 131.303 119.062C134.136 119.062 136.636 118.604 138.803 117.687C140.969 116.771 142.761 115.5 144.178 113.875C145.636 112.208 146.719 110.25 147.428 108C148.178 105.708 148.553 103.229 148.553 100.562C148.553 95.6458 147.115 91.8125 144.24 89.0625C141.407 86.2708 137.199 84.875 131.615 84.875C127.324 84.875 122.928 85.6667 118.428 87.25L108.803 84.5L116.303 40.625H160.928V47.1875C160.928 49.3958 160.24 51.1875 158.865 52.5625C157.49 53.9375 155.157 54.625 151.865 54.625H127.053L123.865 73.4375Z" fill="#30A8C2"/>
<path d="M200.725 55.6C200.725 57.6 200.363 59.425 199.638 61.075C198.913 62.725 197.95 64.15 196.75 65.35C195.55 66.525 194.15 67.4375 192.55 68.0875C190.975 68.7375 189.325 69.0625 187.6 69.0625C185.7 69.0625 183.95 68.7375 182.35 68.0875C180.775 67.4375 179.4 66.525 178.225 65.35C177.075 64.15 176.175 62.725 175.525 61.075C174.875 59.425 174.55 57.6 174.55 55.6C174.55 53.525 174.875 51.65 175.525 49.975C176.175 48.275 177.075 46.825 178.225 45.625C179.4 44.425 180.775 43.5 182.35 42.85C183.95 42.175 185.7 41.8375 187.6 41.8375C189.5 41.8375 191.25 42.175 192.85 42.85C194.475 43.5 195.863 44.425 197.013 45.625C198.188 46.825 199.1 48.275 199.75 49.975C200.4 51.65 200.725 53.525 200.725 55.6ZM191.8 55.6C191.8 54.325 191.688 53.275 191.463 52.45C191.263 51.6 190.975 50.925 190.6 50.425C190.225 49.925 189.775 49.575 189.25 49.375C188.75 49.175 188.2 49.075 187.6 49.075C187 49.075 186.45 49.175 185.95 49.375C185.45 49.575 185.025 49.925 184.675 50.425C184.325 50.925 184.05 51.6 183.85 52.45C183.65 53.275 183.55 54.325 183.55 55.6C183.55 56.8 183.65 57.8 183.85 58.6C184.05 59.4 184.325 60.0375 184.675 60.5125C185.025 60.9875 185.45 61.325 185.95 61.525C186.45 61.725 187 61.825 187.6 61.825C188.2 61.825 188.75 61.725 189.25 61.525C189.775 61.325 190.225 60.9875 190.6 60.5125C190.975 60.0375 191.263 59.4 191.463 58.6C191.688 57.8 191.8 56.8 191.8 55.6ZM217.9 44.0875C218.275 43.6625 218.738 43.275 219.288 42.925C219.838 42.55 220.6 42.3625 221.575 42.3625H230.05L188.875 95.35C188.5 95.825 188.025 96.225 187.45 96.55C186.9 96.85 186.225 97 185.425 97H176.725L217.9 44.0875ZM232.15 84.175C232.15 86.175 231.788 88.0125 231.063 89.6875C230.338 91.3375 229.375 92.7625 228.175 93.9625C226.975 95.1375 225.575 96.05 223.975 96.7C222.4 97.35 220.75 97.675 219.025 97.675C217.125 97.675 215.375 97.35 213.775 96.7C212.2 96.05 210.825 95.1375 209.65 93.9625C208.5 92.7625 207.6 91.3375 206.95 89.6875C206.3 88.0125 205.975 86.175 205.975 84.175C205.975 82.1 206.3 80.225 206.95 78.55C207.6 76.85 208.5 75.4 209.65 74.2C210.825 73 212.2 72.075 213.775 71.425C215.375 70.75 217.125 70.4125 219.025 70.4125C220.925 70.4125 222.675 70.75 224.275 71.425C225.9 72.075 227.288 73 228.438 74.2C229.613 75.4 230.525 76.85 231.175 78.55C231.825 80.225 232.15 82.1 232.15 84.175ZM223.225 84.175C223.225 82.925 223.113 81.8875 222.888 81.0625C222.688 80.2125 222.4 79.5375 222.025 79.0375C221.65 78.5375 221.2 78.1875 220.675 77.9875C220.175 77.7875 219.625 77.6875 219.025 77.6875C218.425 77.6875 217.875 77.7875 217.375 77.9875C216.875 78.1875 216.45 78.5375 216.1 79.0375C215.75 79.5375 215.475 80.2125 215.275 81.0625C215.075 81.8875 214.975 82.925 214.975 84.175C214.975 85.375 215.075 86.375 215.275 87.175C215.475 87.975 215.75 88.6125 216.1 89.0875C216.45 89.5625 216.875 89.9 217.375 90.1C217.875 90.3 218.425 90.4 219.025 90.4C219.625 90.4 220.175 90.3 220.675 90.1C221.2 89.9 221.65 89.5625 222.025 89.0875C222.4 88.6125 222.688 87.975 222.888 87.175C223.113 86.375 223.225 85.375 223.225 84.175Z" fill="#30A8C2"/>
</svg>
