<svg width="260" height="172" viewBox="0 0 260 172" fill="none" xmlns="http://www.w3.org/2000/svg">
<path d="M117.971 87.095V75.08C127.826 72.515 134.981 68.6 137.681 64.145H148.211V108.425H160.496V119.09H119.186V108.425H134.036V79.265C127.016 83.045 122.831 85.205 117.971 87.095ZM144.296 155L194.246 64.955H206.936L156.986 155H144.296ZM233.396 143.525L232.316 155H188.306V144.065C189.656 142.985 191.816 141.5 191.951 141.5L198.971 136.91C203.291 134.075 210.176 128.675 213.686 125.435C216.521 122.87 217.871 120.17 217.871 117.47C217.871 113.555 214.901 110.855 210.311 110.855C204.776 110.855 201.941 114.095 200.996 121.115L188.171 118.55C191.006 106.13 198.431 100.19 211.256 100.19C224.081 100.19 232.586 107.075 232.586 117.335C232.586 126.65 227.051 132.32 207.071 143.525H233.396Z" fill="#30A8C2"/>
<path d="M37.4647 100.69C40.2847 100.69 42.4447 101.53 44.2147 103.36C46.0747 105.28 46.9147 107.68 46.9147 110.95C46.9147 117.1 43.0447 121.3 37.4347 121.3C31.7347 121.3 27.8947 117.16 27.8947 111.01C27.8947 104.8 31.7047 100.69 37.4647 100.69ZM37.4947 105.22C35.5447 105.22 34.4947 107.29 34.4947 111.19C34.4947 114.94 35.4547 116.77 37.4047 116.77C38.9347 116.77 39.7747 115.84 40.0747 113.8C40.2247 112.99 40.3147 111.55 40.3147 110.47C40.3147 106.93 39.4147 105.22 37.4947 105.22ZM66.6369 121H61.6269L56.1669 112.18C55.7469 111.43 55.3569 110.71 54.9369 109.99C54.7269 109.6 54.4569 109 54.0369 108.04C54.4269 109.78 54.5169 110.32 54.5169 111.31V121H49.5369V100.99H55.3269L59.9769 108.31C61.0869 110.11 61.7169 111.28 62.1069 112.18C61.7769 110.35 61.6269 108.52 61.6269 106.93V100.99H66.6369V121ZM84.1133 116.11V121H70.1033V100.99H76.2533V116.11H84.1133ZM100.551 100.99L94.3107 112.54V121H88.3407V112.54L81.6207 100.99H88.3407L91.8207 107.56L95.1807 100.99H100.551Z" fill="#30A8C2"/>
</svg>
