<svg width="260" height="172" viewBox="0 0 260 172" fill="none" xmlns="http://www.w3.org/2000/svg">
<path d="M155.344 123.25C154.172 123.25 153 122.078 153 120.906V75.7891C153 74.6172 154.172 73.25 155.344 73.25H159.836C161.008 73.25 162.375 74.6172 162.375 75.7891V120.906C162.375 122.078 161.008 123.25 159.836 123.25H155.344ZM117.844 123.25C116.672 123.25 115.5 122.078 115.5 120.906V82.0391C115.5 80.8672 116.672 79.5 117.844 79.5H122.336C123.508 79.5 124.875 80.8672 124.875 82.0391V120.906C124.875 122.078 123.508 123.25 122.336 123.25H117.844ZM136.594 123.25C135.422 123.25 134.25 122.078 134.25 120.906V94.5391C134.25 93.3672 135.422 92 136.594 92H141.086C142.258 92 143.625 93.3672 143.625 94.5391V120.906C143.625 122.078 142.258 123.25 141.086 123.25H136.594ZM174.875 132.625C176.438 132.625 178 134.188 178 135.75V138.875C178 140.633 176.438 142 174.875 142H84.25C80.7344 142 78 139.266 78 135.75V70.125C78 68.5625 79.3672 67 81.125 67H84.25C85.8125 67 87.375 68.5625 87.375 70.125V132.625H174.875ZM99.0938 123.25C97.9219 123.25 96.75 122.078 96.75 120.906V107.039C96.75 105.867 97.9219 104.5 99.0938 104.5H103.586C104.758 104.5 106.125 105.867 106.125 107.039V120.906C106.125 122.078 104.758 123.25 103.586 123.25H99.0938Z" fill="#30A8C2"/>
</svg>
