<svg width="260" height="172" viewBox="0 0 260 172" fill="none" xmlns="http://www.w3.org/2000/svg">
<path d="M40.6465 136L57.7715 132.875C59.7715 138.875 63.2715 141.625 68.8965 141.625C74.8965 141.625 79.3965 137.875 81.3965 131.25C82.3965 128.25 82.6465 125.125 83.1465 115C77.5215 121.375 72.5215 123.625 64.5215 123.625C49.3965 123.625 38.7715 113.125 38.7715 98.125C38.7715 81.375 50.8965 70.375 69.3965 70.375C79.3965 70.375 87.8965 73.875 93.0215 80.375C99.0215 87.75 102.396 99 102.396 112.125C102.396 124.875 99.2715 136 93.1465 144.375C87.5215 152.25 79.0215 156.25 67.8965 156.25C59.1465 156.25 52.2715 153.625 47.1465 148.375C44.0215 145 42.3965 142.125 40.6465 136ZM69.7715 84.25C62.8965 84.25 57.2715 89.875 57.2715 96.875C57.2715 104 62.5215 109.5 69.3965 109.5C76.5215 109.5 82.1465 103.875 82.1465 96.875C82.1465 89.875 76.6465 84.25 69.7715 84.25ZM166.386 70.375V121.125H178.136V135.75H166.386V155H146.886V135.75H110.511V121.125L144.136 70.375H166.386ZM125.136 121.125H147.761V93C147.761 92.375 147.761 91 147.886 89L148.011 85.5L125.136 121.125Z" fill="#00315C"/>
<path d="M195.375 71.6C201.75 71.6 205.8 76.625 205.8 84.65C205.8 92.225 201.675 97.325 195.375 97.325C189.15 97.325 185.1 92.225 185.1 84.5C185.1 76.7 189.15 71.6 195.375 71.6ZM195.45 76.1C192.75 76.1 191.775 78.2 191.775 84.275C191.775 90.5 192.75 92.675 195.45 92.675C198.075 92.675 199.125 90.35 199.125 84.65C199.125 78.35 198.15 76.1 195.45 76.1ZM192.075 122L219.825 71.975H225.375L197.625 122H192.075ZM222.15 96.65C228.525 96.65 232.575 101.675 232.575 109.7C232.575 117.275 228.45 122.375 222.15 122.375C215.925 122.375 211.875 117.275 211.875 109.55C211.875 101.75 215.925 96.65 222.15 96.65ZM222.225 101.15C219.525 101.15 218.55 103.25 218.55 109.325C218.55 115.55 219.525 117.725 222.225 117.725C224.85 117.725 225.9 115.4 225.9 109.7C225.9 103.4 224.925 101.15 222.225 101.15Z" fill="#00315C"/>
</svg>
