<svg width="260" height="172" viewBox="0 0 260 172" fill="none" xmlns="http://www.w3.org/2000/svg">
<path d="M97.1465 72.625V87.5C91.0215 94.5 86.6465 101.625 81.1465 113.375C76.7715 122.875 73.5215 138.375 73.5215 149.875C73.5215 151.25 73.6465 153.375 73.7715 156H51.3965C50.6465 134.75 63.0215 105.625 79.6465 89.875H37.3965L38.8965 72.625H97.1465ZM127.886 105.625H136.761C141.761 105.625 144.761 104.625 146.886 102.375C148.636 100.5 149.511 98.25 149.511 95.875C149.511 90 144.761 85.75 138.261 85.75C131.386 85.75 127.761 88.875 125.511 96.375L108.261 93.625C110.011 87.25 111.761 84 115.886 80C122.011 74.25 129.386 71.375 139.011 71.375C156.636 71.375 168.636 80.5 168.636 93.75C168.636 102.875 163.886 109 154.386 112.375C159.636 113.75 162.136 115 164.886 117.5C169.011 121.25 171.136 126.25 171.136 132.125C171.136 147.375 158.511 157.25 138.886 157.25C128.386 157.25 121.136 154.75 114.886 148.875C109.636 144.125 107.386 139.875 105.761 131.875L123.511 129.375C125.636 138.25 130.261 142.25 138.511 142.25C146.136 142.25 151.261 137.75 151.261 131C151.261 127.375 149.636 124 147.011 122.125C144.886 120.75 142.011 120.25 135.511 120.25H127.886V105.625Z" fill="#47A9C4"/>
<path d="M190.45 72.6C196.75 72.6 200.575 77.55 200.575 85.725C200.575 93.3 196.525 98.325 190.375 98.325C184.15 98.325 180.25 93.3 180.25 85.425C180.25 77.55 184.15 72.6 190.45 72.6ZM190.45 78.075C188.725 78.075 187.9 80.25 187.9 85.125C187.9 90.9 188.575 92.85 190.45 92.85C192.25 92.85 193 90.675 193 85.575C193 80.25 192.25 78.075 190.45 78.075ZM223.225 72.975L192.85 123H185.95L216.475 72.975H223.225ZM218.95 97.575C225.25 97.575 229.075 102.525 229.075 110.7C229.075 118.35 225.025 123.375 218.8 123.375C212.65 123.375 208.75 118.35 208.75 110.4C208.75 102.525 212.65 97.575 218.95 97.575ZM218.95 103.05C217.225 103.05 216.4 105.3 216.4 110.175C216.4 115.95 217.075 117.9 218.95 117.9C220.75 117.9 221.5 115.725 221.5 110.55C221.5 105.225 220.75 103.05 218.95 103.05Z" fill="#47A9C4"/>
</svg>
