<svg width="260" height="172" viewBox="0 0 260 172" fill="none" xmlns="http://www.w3.org/2000/svg">
<path d="M86.75 63.125C86.75 66.6406 88.5078 69.5703 91.4375 71.3281C94.1719 73.0859 97.8828 73.0859 100.812 71.3281C103.547 69.5703 105.5 66.6406 105.5 63.125C105.5 59.8047 103.547 56.875 100.812 55.1172C97.8828 53.3594 94.1719 53.3594 91.4375 55.1172C88.5078 56.875 86.75 59.8047 86.75 63.125ZM111.75 63.125C111.75 68.7891 108.625 73.8672 103.938 76.7969C99.0547 79.5312 93 79.5312 88.3125 76.7969C83.4297 73.8672 80.5 68.7891 80.5 63.125C80.5 57.6562 83.4297 52.5781 88.3125 49.6484C93 46.9141 99.0547 46.9141 103.938 49.6484C108.625 52.5781 111.75 57.6562 111.75 63.125ZM130.5 78.75C126.008 78.75 121.906 81.2891 119.562 85C117.414 88.9062 117.414 93.7891 119.562 97.5C121.906 101.406 126.008 103.75 130.5 103.75C134.797 103.75 138.898 101.406 141.242 97.5C143.391 93.7891 143.391 88.9062 141.242 85C138.898 81.2891 134.797 78.75 130.5 78.75ZM130.5 110C123.664 110 117.609 106.484 114.094 100.625C110.773 94.9609 110.773 87.7344 114.094 81.875C117.609 76.2109 123.664 72.5 130.5 72.5C137.141 72.5 143.195 76.2109 146.711 81.875C150.031 87.7344 150.031 94.9609 146.711 100.625C143.195 106.484 137.141 110 130.5 110ZM118.977 122.5C108.43 122.5 99.6406 130.898 99.25 141.25H161.555C161.164 130.898 152.375 122.5 141.828 122.5H118.977ZM118.977 116.25H141.828C156.281 116.25 168 127.969 168 142.422C168 145.352 165.656 147.5 162.727 147.5H98.0781C95.1484 147.5 93 145.156 93 142.422C93 127.969 104.523 116.25 118.977 116.25ZM168 53.75C164.484 53.75 161.555 55.7031 159.797 58.4375C158.039 61.3672 158.039 65.0781 159.797 67.8125C161.555 70.7422 164.484 72.5 168 72.5C171.32 72.5 174.25 70.7422 176.008 67.8125C177.766 65.0781 177.766 61.3672 176.008 58.4375C174.25 55.7031 171.32 53.75 168 53.75ZM168 78.75C162.336 78.75 157.258 75.8203 154.328 70.9375C151.594 66.25 151.594 60.1953 154.328 55.3125C157.258 50.625 162.336 47.5 168 47.5C173.469 47.5 178.547 50.625 181.477 55.3125C184.211 60.1953 184.211 66.25 181.477 70.9375C178.547 75.8203 173.469 78.75 168 78.75ZM171.125 91.25H155.5C155.5 89.1016 155.109 87.1484 154.719 85H171.125C183.039 85 193 94.9609 193 106.875C193 108.633 191.438 110 189.875 110C188.117 110 186.75 108.633 186.75 106.875C186.75 98.2812 179.719 91.25 171.125 91.25ZM105.5 91.25H89.875C81.0859 91.25 74.25 98.2812 74.25 106.875C74.25 108.633 72.6875 110 71.125 110C69.3672 110 68 108.633 68 106.875C68 94.9609 77.7656 85 89.875 85H106.281C105.695 87.1484 105.5 89.1016 105.5 91.25Z" fill="#30A8C2"/>
</svg>
