<svg width="260" height="172" viewBox="0 0 260 172" fill="none" xmlns="http://www.w3.org/2000/svg">
<path d="M93.5215 102C104.646 107 109.021 112.75 109.021 122.5C109.021 138.375 95.7715 148.25 74.5215 148.25C55.0215 148.25 42.8965 139.125 42.8965 124.5C42.8965 115.5 47.1465 110.125 57.7715 106C49.2715 100.875 45.7715 95.25 45.7715 87C45.7715 80.25 49.0215 73.5 54.2715 69.125C59.6465 64.625 67.2715 62.375 76.5215 62.375C94.1465 62.375 106.146 71.25 106.146 84.375C106.146 92.5 102.396 97.75 93.5215 102ZM80.7715 96.5C86.6465 94.5 89.1465 91.375 89.1465 86C89.1465 79.25 84.0215 75 75.7715 75C68.8965 75 64.3965 78.5 64.3965 83.875C64.3965 89.625 67.3965 91.875 80.7715 96.5ZM70.8965 112.25C63.5215 114.625 60.5215 118 60.5215 123.625C60.5215 130.75 66.1465 134.875 75.8965 134.875C84.6465 134.875 90.1465 131.5 90.1465 126C90.1465 122 87.5215 118.625 82.6465 116.5C79.5215 115.125 78.3965 114.75 70.8965 112.25ZM175.386 80.75H139.011L137.761 99.25C142.886 94.125 147.886 92.125 155.511 92.125C171.136 92.125 182.511 103.375 182.511 118.75C182.511 136.875 169.886 148.25 150.011 148.25C140.261 148.25 132.636 145.75 126.511 140.5C121.636 136.25 119.261 132.375 117.261 124.625L135.511 121.875C137.511 129.375 141.886 132.875 149.511 132.875C157.261 132.875 162.886 127.5 162.886 120.125C162.886 112.875 157.011 107 149.761 107C144.636 107 140.386 109.25 137.761 113.5L121.761 110.875L125.011 63.625H177.511L175.386 80.75Z" fill="#002E5D"/>
<path d="M199.375 60.6C205.75 60.6 209.8 65.625 209.8 73.65C209.8 81.225 205.675 86.325 199.375 86.325C193.15 86.325 189.1 81.225 189.1 73.5C189.1 65.7 193.15 60.6 199.375 60.6ZM199.45 65.1C196.75 65.1 195.775 67.2 195.775 73.275C195.775 79.5 196.75 81.675 199.45 81.675C202.075 81.675 203.125 79.35 203.125 73.65C203.125 67.35 202.15 65.1 199.45 65.1ZM196.075 111L223.825 60.975H229.375L201.625 111H196.075ZM226.15 85.65C232.525 85.65 236.575 90.675 236.575 98.7C236.575 106.275 232.45 111.375 226.15 111.375C219.925 111.375 215.875 106.275 215.875 98.55C215.875 90.75 219.925 85.65 226.15 85.65ZM226.225 90.15C223.525 90.15 222.55 92.25 222.55 98.325C222.55 104.55 223.525 106.725 226.225 106.725C228.85 106.725 229.9 104.4 229.9 98.7C229.9 92.4 228.925 90.15 226.225 90.15Z" fill="#002E5D"/>
</svg>
